G04 #@! TF.GenerationSoftware,KiCad,Pcbnew,9.0.2+dfsg-1*
G04 #@! TF.CreationDate,2026-06-02T13:19:59-04:00*
G04 #@! TF.ProjectId,Afterburner-Modern,41667465-7262-4757-926e-65722d4d6f64,1.0*
G04 #@! TF.SameCoordinates,Original*
G04 #@! TF.FileFunction,Legend,Bot*
G04 #@! TF.FilePolarity,Positive*
%FSLAX46Y46*%
G04 Gerber Fmt 4.6, Leading zero omitted, Abs format (unit mm)*
G04 Created by KiCad (PCBNEW 9.0.2+dfsg-1) date 2026-06-02 13:19:59*
%MOMM*%
%LPD*%
G01*
G04 APERTURE LIST*
G04 Aperture macros list*
%AMRoundRect*
0 Rectangle with rounded corners*
0 $1 Rounding radius*
0 $2 $3 $4 $5 $6 $7 $8 $9 X,Y pos of 4 corners*
0 Add a 4 corners polygon primitive as box body*
4,1,4,$2,$3,$4,$5,$6,$7,$8,$9,$2,$3,0*
0 Add four circle primitives for the rounded corners*
1,1,$1+$1,$2,$3*
1,1,$1+$1,$4,$5*
1,1,$1+$1,$6,$7*
1,1,$1+$1,$8,$9*
0 Add four rect primitives between the rounded corners*
20,1,$1+$1,$2,$3,$4,$5,0*
20,1,$1+$1,$4,$5,$6,$7,0*
20,1,$1+$1,$6,$7,$8,$9,0*
20,1,$1+$1,$8,$9,$2,$3,0*%
G04 Aperture macros list end*
%ADD10C,3.200000*%
%ADD11C,2.100000*%
%ADD12C,1.750000*%
%ADD13RoundRect,0.250000X-0.600000X-0.725000X0.600000X-0.725000X0.600000X0.725000X-0.600000X0.725000X0*%
%ADD14O,1.700000X1.950000*%
%ADD15RoundRect,0.250000X-0.600000X-0.600000X0.600000X-0.600000X0.600000X0.600000X-0.600000X0.600000X0*%
%ADD16C,1.700000*%
%ADD17RoundRect,0.250001X1.149999X-1.149999X1.149999X1.149999X-1.149999X1.149999X-1.149999X-1.149999X0*%
%ADD18C,2.800000*%
%ADD19C,0.650000*%
%ADD20O,2.100000X1.000000*%
%ADD21O,1.600000X1.000000*%
G04 APERTURE END LIST*
%LPC*%
D10*
G04 #@! TO.C,MH1*
X5000000Y-5000000D03*
G04 #@! TD*
D11*
G04 #@! TO.C,SW2*
X69750000Y-7490000D03*
X76760000Y-7490000D03*
D12*
X71000000Y-5000000D03*
X75500000Y-5000000D03*
G04 #@! TD*
D13*
G04 #@! TO.C,J4*
X25000000Y-10000000D03*
D14*
X27500000Y-10000000D03*
X30000000Y-10000000D03*
G04 #@! TD*
D10*
G04 #@! TO.C,MH3*
X5000000Y-95000000D03*
G04 #@! TD*
D13*
G04 #@! TO.C,J3*
X8000000Y-66000000D03*
D14*
X10500000Y-66000000D03*
X13000000Y-66000000D03*
G04 #@! TD*
D10*
G04 #@! TO.C,MH2*
X95000000Y-5000000D03*
G04 #@! TD*
D11*
G04 #@! TO.C,SW1*
X58750000Y-7490000D03*
X65760000Y-7490000D03*
D12*
X60000000Y-5000000D03*
X64500000Y-5000000D03*
G04 #@! TD*
D10*
G04 #@! TO.C,MH4*
X95000000Y-95000000D03*
G04 #@! TD*
D13*
G04 #@! TO.C,J5*
X42000000Y-10000000D03*
D14*
X44500000Y-10000000D03*
X47000000Y-10000000D03*
X49500000Y-10000000D03*
G04 #@! TD*
D15*
G04 #@! TO.C,H1*
X78000000Y-28000000D03*
D16*
X80540000Y-28000000D03*
X78000000Y-30540000D03*
X80540000Y-30540000D03*
X78000000Y-33080000D03*
X80540000Y-33080000D03*
X78000000Y-35620000D03*
X80540000Y-35620000D03*
X78000000Y-38160000D03*
X80540000Y-38160000D03*
X78000000Y-40700000D03*
X80540000Y-40700000D03*
X78000000Y-43240000D03*
X80540000Y-43240000D03*
X78000000Y-45780000D03*
X80540000Y-45780000D03*
X78000000Y-48320000D03*
X80540000Y-48320000D03*
X78000000Y-50860000D03*
X80540000Y-50860000D03*
G04 #@! TD*
D17*
G04 #@! TO.C,J2*
X14000000Y-14000000D03*
D18*
X14000000Y-9000000D03*
G04 #@! TD*
D15*
G04 #@! TO.C,H2*
X78000000Y-70000000D03*
D16*
X80540000Y-70000000D03*
X78000000Y-72540000D03*
X80540000Y-72540000D03*
X78000000Y-75080000D03*
X80540000Y-75080000D03*
X78000000Y-77620000D03*
X80540000Y-77620000D03*
X78000000Y-80160000D03*
X80540000Y-80160000D03*
X78000000Y-82700000D03*
X80540000Y-82700000D03*
X78000000Y-85240000D03*
X80540000Y-85240000D03*
X78000000Y-87780000D03*
X80540000Y-87780000D03*
X78000000Y-90320000D03*
X80540000Y-90320000D03*
X78000000Y-92860000D03*
X80540000Y-92860000D03*
G04 #@! TD*
D19*
G04 #@! TO.C,J1*
X83400000Y-16890000D03*
X83400000Y-11110000D03*
D20*
X82870000Y-18320000D03*
D21*
X87050000Y-18320000D03*
D20*
X82870000Y-9680000D03*
D21*
X87050000Y-9680000D03*
G04 #@! TD*
%LPD*%
M02*
