M48
; DRILL file {KiCad 9.0.2+dfsg-1} date 2026-06-02T13:20:00-0400
; FORMAT={-:-/ absolute / metric / decimal}
; #@! TF.CreationDate,2026-06-02T13:20:00-04:00
; #@! TF.GenerationSoftware,Kicad,Pcbnew,9.0.2+dfsg-1
; #@! TF.FileFunction,MixedPlating,1,2
FMAT,2
METRIC
; #@! TA.AperFunction,Plated,PTH,ViaDrill
T1C0.300
; #@! TA.AperFunction,Plated,PTH,ViaDrill
T2C0.400
; #@! TA.AperFunction,Plated,PTH,ComponentDrill
T3C0.600
; #@! TA.AperFunction,Plated,PTH,ComponentDrill
T4C0.950
; #@! TA.AperFunction,Plated,PTH,ComponentDrill
T5C0.990
; #@! TA.AperFunction,Plated,PTH,ComponentDrill
T6C1.000
; #@! TA.AperFunction,Plated,PTH,ComponentDrill
T7C1.300
; #@! TA.AperFunction,NonPlated,NPTH,ComponentDrill
T8C0.650
; #@! TA.AperFunction,NonPlated,NPTH,ComponentDrill
T9C3.200
%
G90
G05
T1
X13.162Y-48.221
X13.162Y-57.81
X39.721Y-71.6
X40.999Y-57.078
X41.774Y-58.491
X44.5Y-28.977
X50.95Y-90.465
T2
X1.925Y-1.925
X1.925Y-6.925
X1.925Y-11.925
X1.925Y-16.925
X1.925Y-21.925
X1.925Y-26.925
X1.925Y-31.925
X1.925Y-36.925
X1.925Y-41.925
X1.925Y-46.925
X1.925Y-51.925
X1.925Y-56.925
X1.925Y-61.925
X1.925Y-66.925
X1.925Y-71.925
X1.925Y-76.925
X1.925Y-81.925
X1.925Y-86.925
X1.925Y-91.925
X1.925Y-96.925
X5.525Y-55.27
X5.525Y-56.54
X5.525Y-57.81
X6.925Y-1.925
X6.925Y-11.925
X6.925Y-16.925
X6.925Y-21.925
X6.925Y-26.925
X6.925Y-31.925
X6.925Y-36.925
X6.925Y-56.925
X6.925Y-61.925
X6.925Y-71.925
X6.925Y-76.925
X6.925Y-81.925
X6.925Y-86.925
X6.925Y-91.925
X8.938Y-42.0
X10.475Y-52.73
X10.475Y-54.0
X10.475Y-55.27
X11.925Y-1.925
X11.925Y-6.925
X11.925Y-11.925
X11.925Y-16.925
X11.925Y-21.925
X11.925Y-26.925
X11.925Y-31.925
X11.925Y-36.925
X11.925Y-41.925
X11.925Y-46.925
X11.925Y-51.925
X11.925Y-56.925
X11.925Y-61.925
X11.925Y-71.925
X11.925Y-76.925
X11.925Y-81.925
X11.925Y-86.925
X11.925Y-91.925
X11.925Y-96.925
X14.938Y-42.0
X16.925Y-1.925
X16.925Y-6.925
X16.925Y-11.925
X16.925Y-16.925
X16.925Y-21.925
X16.925Y-26.925
X16.925Y-36.925
X16.925Y-41.925
X16.925Y-46.925
X16.925Y-51.925
X16.925Y-56.925
X16.925Y-61.925
X16.925Y-66.925
X16.925Y-71.925
X16.925Y-76.925
X16.925Y-81.925
X16.925Y-86.925
X16.925Y-91.925
X16.925Y-96.925
X20.137Y-58.0
X21.925Y-1.925
X21.925Y-6.925
X21.925Y-11.925
X21.925Y-16.925
X21.925Y-26.925
X21.925Y-31.925
X21.925Y-41.925
X21.925Y-46.925
X21.925Y-51.925
X21.925Y-56.925
X21.925Y-66.925
X21.925Y-71.925
X21.925Y-76.925
X21.925Y-81.925
X21.925Y-86.925
X21.925Y-91.925
X21.925Y-96.925
X26.925Y-1.925
X26.925Y-6.925
X26.925Y-11.925
X26.925Y-16.925
X26.925Y-26.925
X26.925Y-31.925
X26.925Y-36.925
X26.925Y-46.925
X26.925Y-51.925
X26.925Y-56.925
X26.925Y-61.925
X26.925Y-71.925
X26.925Y-76.925
X26.925Y-81.925
X26.925Y-86.925
X26.925Y-91.925
X26.925Y-96.925
X29.25Y-66.05
X29.25Y-69.95
X30.25Y-66.05
X30.25Y-69.95
X31.25Y-66.05
X31.25Y-69.95
X31.925Y-1.925
X31.925Y-6.925
X31.925Y-11.925
X31.925Y-16.925
X31.925Y-26.925
X31.925Y-31.925
X31.925Y-36.925
X31.925Y-41.925
X31.925Y-46.925
X31.925Y-51.925
X31.925Y-56.925
X31.925Y-61.925
X31.925Y-66.925
X31.925Y-76.925
X31.925Y-81.925
X31.925Y-86.925
X31.925Y-91.925
X31.925Y-96.925
X31.95Y-68.75
X36.925Y-1.925
X36.925Y-6.925
X36.925Y-11.925
X36.925Y-16.925
X36.925Y-26.925
X36.925Y-31.925
X36.925Y-36.925
X36.925Y-41.925
X36.925Y-46.925
X36.925Y-51.925
X36.925Y-56.925
X36.925Y-61.925
X36.925Y-66.925
X36.925Y-81.925
X36.925Y-86.925
X36.925Y-91.925
X36.925Y-96.925
X38.663Y-41.5
X38.663Y-42.5
X38.663Y-43.5
X38.663Y-44.5
X38.663Y-45.5
X38.663Y-46.5
X39.5Y-40.663
X39.5Y-47.337
X40.5Y-40.663
X40.5Y-47.337
X41.5Y-40.663
X41.5Y-47.337
X41.925Y-1.925
X41.925Y-6.925
X41.925Y-11.925
X41.925Y-16.925
X41.925Y-26.925
X41.925Y-31.925
X41.925Y-36.925
X41.925Y-51.925
X41.925Y-61.925
X41.925Y-66.925
X41.925Y-71.925
X41.925Y-81.925
X41.925Y-91.925
X41.925Y-96.925
X42.5Y-40.663
X42.5Y-47.337
X42.788Y-30.0
X42.788Y-56.0
X43.5Y-40.663
X43.5Y-47.337
X44.5Y-40.663
X44.5Y-47.337
X45.337Y-41.5
X45.337Y-42.5
X45.337Y-43.5
X45.337Y-44.5
X45.337Y-45.5
X45.337Y-46.5
X46.925Y-1.925
X46.925Y-6.925
X46.925Y-16.925
X46.925Y-26.925
X46.925Y-31.925
X46.925Y-36.925
X46.925Y-41.925
X46.925Y-46.925
X46.925Y-51.925
X46.925Y-56.925
X46.925Y-66.925
X46.925Y-71.925
X46.925Y-76.925
X46.925Y-81.925
X46.925Y-86.925
X46.925Y-96.925
X51.925Y-1.925
X51.925Y-6.925
X51.925Y-16.925
X51.925Y-26.925
X51.925Y-31.925
X51.925Y-36.925
X51.925Y-41.925
X51.925Y-46.925
X51.925Y-56.925
X51.925Y-61.925
X51.925Y-66.925
X51.925Y-71.925
X51.925Y-76.925
X51.925Y-81.925
X51.925Y-86.925
X51.925Y-96.925
X52.0Y-78.0
X56.925Y-1.925
X56.925Y-16.925
X56.925Y-26.925
X56.925Y-31.925
X56.925Y-36.925
X56.925Y-41.925
X56.925Y-46.925
X56.925Y-56.925
X56.925Y-61.925
X56.925Y-66.925
X56.925Y-71.925
X56.925Y-76.925
X56.925Y-81.925
X56.925Y-86.925
X56.925Y-91.925
X61.925Y-1.925
X61.925Y-6.925
X61.925Y-16.925
X61.925Y-26.925
X61.925Y-31.925
X61.925Y-36.925
X61.925Y-41.925
X61.925Y-46.925
X61.925Y-56.925
X61.925Y-61.925
X61.925Y-66.925
X61.925Y-71.925
X61.925Y-81.925
X61.925Y-86.925
X61.925Y-91.925
X61.925Y-96.925
X65.525Y-60.445
X66.925Y-1.925
X66.925Y-16.925
X66.925Y-26.925
X66.925Y-31.925
X66.925Y-36.925
X66.925Y-41.925
X66.925Y-56.925
X66.925Y-61.925
X66.925Y-66.925
X66.925Y-71.925
X66.925Y-81.925
X66.925Y-86.925
X66.925Y-91.925
X66.925Y-96.925
X70.475Y-55.365
X70.475Y-60.445
X71.925Y-1.925
X71.925Y-6.925
X71.925Y-16.925
X71.925Y-26.925
X71.925Y-31.925
X71.925Y-36.925
X71.925Y-41.925
X71.925Y-46.925
X71.925Y-51.925
X71.925Y-56.925
X71.925Y-61.925
X71.925Y-66.925
X71.925Y-71.925
X71.925Y-76.925
X71.925Y-81.925
X71.925Y-86.925
X71.925Y-91.925
X71.925Y-96.925
X76.925Y-1.925
X76.925Y-16.925
X76.925Y-21.925
X76.925Y-56.925
X76.925Y-61.925
X76.925Y-66.925
X76.925Y-96.925
X81.925Y-1.925
X81.925Y-6.925
X81.925Y-21.925
X81.925Y-31.925
X81.925Y-36.925
X81.925Y-41.925
X81.925Y-56.925
X81.925Y-61.925
X81.925Y-66.925
X81.925Y-96.925
X86.925Y-1.925
X86.925Y-6.925
X86.925Y-11.925
X86.925Y-16.925
X86.925Y-21.925
X86.925Y-26.925
X86.925Y-31.925
X86.925Y-36.925
X86.925Y-41.925
X86.925Y-46.925
X86.925Y-51.925
X86.925Y-56.925
X86.925Y-61.925
X86.925Y-66.925
X86.925Y-71.925
X86.925Y-76.925
X86.925Y-81.925
X86.925Y-86.925
X86.925Y-91.925
X86.925Y-96.925
X91.925Y-1.925
X91.925Y-6.925
X91.925Y-11.925
X91.925Y-16.925
X91.925Y-21.925
X91.925Y-26.925
X91.925Y-31.925
X91.925Y-36.925
X91.925Y-41.925
X91.925Y-46.925
X91.925Y-51.925
X91.925Y-56.925
X91.925Y-61.925
X91.925Y-66.925
X91.925Y-71.925
X91.925Y-76.925
X91.925Y-81.925
X91.925Y-86.925
X91.925Y-91.925
X91.925Y-96.925
X96.925Y-1.925
X96.925Y-11.925
X96.925Y-16.925
X96.925Y-21.925
X96.925Y-26.925
X96.925Y-31.925
X96.925Y-36.925
X96.925Y-41.925
X96.925Y-46.925
X96.925Y-51.925
X96.925Y-56.925
X96.925Y-61.925
X96.925Y-66.925
X96.925Y-71.925
X96.925Y-76.925
X96.925Y-81.925
X96.925Y-86.925
X96.925Y-91.925
T4
X8.0Y-66.0
X10.5Y-66.0
X13.0Y-66.0
X25.0Y-10.0
X27.5Y-10.0
X30.0Y-10.0
X42.0Y-10.0
X44.5Y-10.0
X47.0Y-10.0
X49.5Y-10.0
T5
X60.0Y-5.0
X64.5Y-5.0
X71.0Y-5.0
X75.5Y-5.0
T6
X78.0Y-28.0
X78.0Y-30.54
X78.0Y-33.08
X78.0Y-35.62
X78.0Y-38.16
X78.0Y-40.7
X78.0Y-43.24
X78.0Y-45.78
X78.0Y-48.32
X78.0Y-50.86
X78.0Y-70.0
X78.0Y-72.54
X78.0Y-75.08
X78.0Y-77.62
X78.0Y-80.16
X78.0Y-82.7
X78.0Y-85.24
X78.0Y-87.78
X78.0Y-90.32
X78.0Y-92.86
X80.54Y-28.0
X80.54Y-30.54
X80.54Y-33.08
X80.54Y-35.62
X80.54Y-38.16
X80.54Y-40.7
X80.54Y-43.24
X80.54Y-45.78
X80.54Y-48.32
X80.54Y-50.86
X80.54Y-70.0
X80.54Y-72.54
X80.54Y-75.08
X80.54Y-77.62
X80.54Y-80.16
X80.54Y-82.7
X80.54Y-85.24
X80.54Y-87.78
X80.54Y-90.32
X80.54Y-92.86
T7
X14.0Y-9.0
X14.0Y-14.0
X58.75Y-7.49
X65.76Y-7.49
X69.75Y-7.49
X76.76Y-7.49
T8
X83.4Y-11.11
X83.4Y-16.89
T9
X5.0Y-5.0
X5.0Y-95.0
X95.0Y-5.0
X95.0Y-95.0
T3
X82.32Y-9.68G85X83.42Y-9.68
G05
X82.32Y-18.32G85X83.42Y-18.32
G05
X86.75Y-9.68G85X87.35Y-9.68
G05
X86.75Y-18.32G85X87.35Y-18.32
G05
M30
