G04 #@! TF.GenerationSoftware,KiCad,Pcbnew,9.0.2+dfsg-1*
G04 #@! TF.CreationDate,2026-06-02T13:19:59-04:00*
G04 #@! TF.ProjectId,Afterburner-Modern,41667465-7262-4757-926e-65722d4d6f64,1.0*
G04 #@! TF.SameCoordinates,Original*
G04 #@! TF.FileFunction,Copper,L2,Bot*
G04 #@! TF.FilePolarity,Positive*
%FSLAX46Y46*%
G04 Gerber Fmt 4.6, Leading zero omitted, Abs format (unit mm)*
G04 Created by KiCad (PCBNEW 9.0.2+dfsg-1) date 2026-06-02 13:19:59*
%MOMM*%
%LPD*%
G01*
G04 APERTURE LIST*
G04 Aperture macros list*
%AMRoundRect*
0 Rectangle with rounded corners*
0 $1 Rounding radius*
0 $2 $3 $4 $5 $6 $7 $8 $9 X,Y pos of 4 corners*
0 Add a 4 corners polygon primitive as box body*
4,1,4,$2,$3,$4,$5,$6,$7,$8,$9,$2,$3,0*
0 Add four circle primitives for the rounded corners*
1,1,$1+$1,$2,$3*
1,1,$1+$1,$4,$5*
1,1,$1+$1,$6,$7*
1,1,$1+$1,$8,$9*
0 Add four rect primitives between the rounded corners*
20,1,$1+$1,$2,$3,$4,$5,0*
20,1,$1+$1,$4,$5,$6,$7,0*
20,1,$1+$1,$6,$7,$8,$9,0*
20,1,$1+$1,$8,$9,$2,$3,0*%
G04 Aperture macros list end*
G04 #@! TA.AperFunction,ComponentPad*
%ADD10C,2.100000*%
G04 #@! TD*
G04 #@! TA.AperFunction,ComponentPad*
%ADD11C,1.750000*%
G04 #@! TD*
G04 #@! TA.AperFunction,ComponentPad*
%ADD12RoundRect,0.250000X-0.600000X-0.725000X0.600000X-0.725000X0.600000X0.725000X-0.600000X0.725000X0*%
G04 #@! TD*
G04 #@! TA.AperFunction,ComponentPad*
%ADD13O,1.700000X1.950000*%
G04 #@! TD*
G04 #@! TA.AperFunction,ComponentPad*
%ADD14RoundRect,0.250000X-0.600000X-0.600000X0.600000X-0.600000X0.600000X0.600000X-0.600000X0.600000X0*%
G04 #@! TD*
G04 #@! TA.AperFunction,ComponentPad*
%ADD15C,1.700000*%
G04 #@! TD*
G04 #@! TA.AperFunction,ComponentPad*
%ADD16RoundRect,0.250001X1.149999X-1.149999X1.149999X1.149999X-1.149999X1.149999X-1.149999X-1.149999X0*%
G04 #@! TD*
G04 #@! TA.AperFunction,ComponentPad*
%ADD17C,2.800000*%
G04 #@! TD*
G04 #@! TA.AperFunction,HeatsinkPad*
%ADD18O,2.100000X1.000000*%
G04 #@! TD*
G04 #@! TA.AperFunction,HeatsinkPad*
%ADD19O,1.600000X1.000000*%
G04 #@! TD*
G04 #@! TA.AperFunction,ViaPad*
%ADD20C,0.800000*%
G04 #@! TD*
G04 #@! TA.AperFunction,ViaPad*
%ADD21C,0.600000*%
G04 #@! TD*
G04 #@! TA.AperFunction,Conductor*
%ADD22C,0.200000*%
G04 #@! TD*
G04 APERTURE END LIST*
D10*
G04 #@! TO.P,SW2,*
G04 #@! TO.N,*
X69750000Y-7490000D03*
X76760000Y-7490000D03*
D11*
G04 #@! TO.P,SW2,1*
G04 #@! TO.N,BUTTON2*
X71000000Y-5000000D03*
G04 #@! TO.P,SW2,2*
G04 #@! TO.N,GND*
X75500000Y-5000000D03*
G04 #@! TD*
D12*
G04 #@! TO.P,J4,1*
G04 #@! TO.N,3V3*
X25000000Y-10000000D03*
D13*
G04 #@! TO.P,J4,2*
G04 #@! TO.N,TEMP_SENSOR*
X27500000Y-10000000D03*
G04 #@! TO.P,J4,3*
G04 #@! TO.N,GND*
X30000000Y-10000000D03*
G04 #@! TD*
D12*
G04 #@! TO.P,J3,1*
G04 #@! TO.N,BLUE_TX_H*
X8000000Y-66000000D03*
D13*
G04 #@! TO.P,J3,2*
G04 #@! TO.N,12V_SENSE*
X10500000Y-66000000D03*
G04 #@! TO.P,J3,3*
G04 #@! TO.N,GND*
X13000000Y-66000000D03*
G04 #@! TD*
D10*
G04 #@! TO.P,SW1,*
G04 #@! TO.N,*
X58750000Y-7490000D03*
X65760000Y-7490000D03*
D11*
G04 #@! TO.P,SW1,1*
G04 #@! TO.N,BUTTON1*
X60000000Y-5000000D03*
G04 #@! TO.P,SW1,2*
G04 #@! TO.N,GND*
X64500000Y-5000000D03*
G04 #@! TD*
D12*
G04 #@! TO.P,J5,1*
G04 #@! TO.N,5V*
X42000000Y-10000000D03*
D13*
G04 #@! TO.P,J5,2*
G04 #@! TO.N,GND*
X44500000Y-10000000D03*
G04 #@! TO.P,J5,3*
G04 #@! TO.N,CO_AOUT*
X47000000Y-10000000D03*
G04 #@! TO.P,J5,4*
G04 #@! TO.N,CO_DOUT*
X49500000Y-10000000D03*
G04 #@! TD*
D14*
G04 #@! TO.P,H1,1*
G04 #@! TO.N,N/C*
X78000000Y-28000000D03*
D15*
G04 #@! TO.P,H1,2*
X80540000Y-28000000D03*
G04 #@! TO.P,H1,3*
X78000000Y-30540000D03*
G04 #@! TO.P,H1,4*
X80540000Y-30540000D03*
G04 #@! TO.P,H1,5*
X78000000Y-33080000D03*
G04 #@! TO.P,H1,6*
X80540000Y-33080000D03*
G04 #@! TO.P,H1,7*
X78000000Y-35620000D03*
G04 #@! TO.P,H1,8*
X80540000Y-35620000D03*
G04 #@! TO.P,H1,9*
X78000000Y-38160000D03*
G04 #@! TO.P,H1,10*
X80540000Y-38160000D03*
G04 #@! TO.P,H1,11*
X78000000Y-40700000D03*
G04 #@! TO.P,H1,12*
X80540000Y-40700000D03*
G04 #@! TO.P,H1,13*
X78000000Y-43240000D03*
G04 #@! TO.P,H1,14*
X80540000Y-43240000D03*
G04 #@! TO.P,H1,15*
X78000000Y-45780000D03*
G04 #@! TO.P,H1,16*
X80540000Y-45780000D03*
G04 #@! TO.P,H1,17*
X78000000Y-48320000D03*
G04 #@! TO.P,H1,18*
X80540000Y-48320000D03*
G04 #@! TO.P,H1,19*
X78000000Y-50860000D03*
G04 #@! TO.P,H1,20*
X80540000Y-50860000D03*
G04 #@! TD*
D16*
G04 #@! TO.P,J2,1*
G04 #@! TO.N,12V*
X14000000Y-14000000D03*
D17*
G04 #@! TO.P,J2,2*
G04 #@! TO.N,GND*
X14000000Y-9000000D03*
G04 #@! TD*
D14*
G04 #@! TO.P,H2,1*
G04 #@! TO.N,N/C*
X78000000Y-70000000D03*
D15*
G04 #@! TO.P,H2,2*
X80540000Y-70000000D03*
G04 #@! TO.P,H2,3*
X78000000Y-72540000D03*
G04 #@! TO.P,H2,4*
X80540000Y-72540000D03*
G04 #@! TO.P,H2,5*
X78000000Y-75080000D03*
G04 #@! TO.P,H2,6*
X80540000Y-75080000D03*
G04 #@! TO.P,H2,7*
X78000000Y-77620000D03*
G04 #@! TO.P,H2,8*
X80540000Y-77620000D03*
G04 #@! TO.P,H2,9*
X78000000Y-80160000D03*
G04 #@! TO.P,H2,10*
X80540000Y-80160000D03*
G04 #@! TO.P,H2,11*
X78000000Y-82700000D03*
G04 #@! TO.P,H2,12*
X80540000Y-82700000D03*
G04 #@! TO.P,H2,13*
X78000000Y-85240000D03*
G04 #@! TO.P,H2,14*
X80540000Y-85240000D03*
G04 #@! TO.P,H2,15*
X78000000Y-87780000D03*
G04 #@! TO.P,H2,16*
X80540000Y-87780000D03*
G04 #@! TO.P,H2,17*
X78000000Y-90320000D03*
G04 #@! TO.P,H2,18*
X80540000Y-90320000D03*
G04 #@! TO.P,H2,19*
X78000000Y-92860000D03*
G04 #@! TO.P,H2,20*
X80540000Y-92860000D03*
G04 #@! TD*
D18*
G04 #@! TO.P,J1,S1*
G04 #@! TO.N,GND*
X82870000Y-18320000D03*
D19*
X87050000Y-18320000D03*
D18*
X82870000Y-9680000D03*
D19*
X87050000Y-9680000D03*
G04 #@! TD*
D20*
G04 #@! TO.N,GND*
X39500000Y-47337500D03*
X11925000Y-6925000D03*
X44500000Y-40662500D03*
X31925000Y-26925000D03*
X91925000Y-46925000D03*
X81925000Y-41925000D03*
X46925000Y-56925000D03*
X21925000Y-91925000D03*
X1925000Y-21925000D03*
X11925000Y-81925000D03*
X11925000Y-21925000D03*
X56925000Y-46925000D03*
X6925000Y-56925000D03*
X96925000Y-46925000D03*
X71925000Y-91925000D03*
X41925000Y-11925000D03*
X76925000Y-96925000D03*
X61925000Y-26925000D03*
X21925000Y-96925000D03*
X6925000Y-36925000D03*
X71925000Y-36925000D03*
X21925000Y-86925000D03*
X5525000Y-57810000D03*
X56925000Y-81925000D03*
X96925000Y-86925000D03*
X71925000Y-31925000D03*
X81925000Y-21925000D03*
X26925000Y-31925000D03*
X31925000Y-1925000D03*
X46925000Y-71925000D03*
X61925000Y-96925000D03*
X46925000Y-51925000D03*
X1925000Y-16925000D03*
X30250000Y-66050000D03*
X86925000Y-51925000D03*
X31925000Y-41925000D03*
X36925000Y-66925000D03*
X66925000Y-91925000D03*
X38662500Y-43500000D03*
X66925000Y-41925000D03*
X11925000Y-26925000D03*
X86925000Y-41925000D03*
X36925000Y-61925000D03*
X21925000Y-71925000D03*
X6925000Y-61925000D03*
X31925000Y-56925000D03*
X61925000Y-91925000D03*
X16925000Y-56925000D03*
X41500000Y-47337500D03*
X71925000Y-1925000D03*
X46925000Y-66925000D03*
X26925000Y-26925000D03*
X71925000Y-51925000D03*
X81925000Y-66925000D03*
X21925000Y-41925000D03*
X71925000Y-76925000D03*
X46925000Y-31925000D03*
X38662500Y-44500000D03*
X56925000Y-1925000D03*
X31925000Y-91925000D03*
X86925000Y-61925000D03*
X86925000Y-11925000D03*
X29250000Y-69950000D03*
X96925000Y-76925000D03*
X16925000Y-81925000D03*
X31925000Y-46925000D03*
X61925000Y-46925000D03*
X86925000Y-26925000D03*
X16925000Y-71925000D03*
X16925000Y-36925000D03*
X11925000Y-11925000D03*
X45337500Y-44500000D03*
X96925000Y-71925000D03*
X41925000Y-31925000D03*
X6925000Y-31925000D03*
X52000000Y-78000000D03*
X1925000Y-36925000D03*
X66925000Y-36925000D03*
X41925000Y-91925000D03*
X5525000Y-56540000D03*
X66925000Y-96925000D03*
X96925000Y-51925000D03*
X6925000Y-21925000D03*
X11925000Y-51925000D03*
X91925000Y-36925000D03*
X96925000Y-1925000D03*
X45337500Y-45500000D03*
X46925000Y-26925000D03*
X16925000Y-26925000D03*
X6925000Y-1925000D03*
X66925000Y-16925000D03*
X46925000Y-96925000D03*
X65525000Y-60445000D03*
X51925000Y-56925000D03*
X26925000Y-91925000D03*
X51925000Y-46925000D03*
X46925000Y-86925000D03*
X86925000Y-46925000D03*
X16925000Y-46925000D03*
X43500000Y-47337500D03*
X51925000Y-6925000D03*
X96925000Y-91925000D03*
X86925000Y-56925000D03*
X45337500Y-46500000D03*
X71925000Y-81925000D03*
X26925000Y-81925000D03*
X96925000Y-56925000D03*
X36925000Y-56925000D03*
X31925000Y-81925000D03*
X38662500Y-45500000D03*
X11925000Y-86925000D03*
X51925000Y-86925000D03*
X56925000Y-16925000D03*
X26925000Y-36925000D03*
X41500000Y-40662500D03*
X91925000Y-21925000D03*
X61925000Y-86925000D03*
X66925000Y-56925000D03*
X21925000Y-16925000D03*
X40500000Y-40662500D03*
X71925000Y-61925000D03*
X46925000Y-1925000D03*
X21925000Y-31925000D03*
X56925000Y-71925000D03*
X1925000Y-71925000D03*
X51925000Y-36925000D03*
X51925000Y-76925000D03*
X6925000Y-91925000D03*
X96925000Y-26925000D03*
X71925000Y-41925000D03*
X1925000Y-86925000D03*
X1925000Y-91925000D03*
X6925000Y-11925000D03*
X26925000Y-86925000D03*
X1925000Y-1925000D03*
X41925000Y-81925000D03*
X36925000Y-46925000D03*
X21925000Y-81925000D03*
X11925000Y-31925000D03*
X16925000Y-76925000D03*
X91925000Y-96925000D03*
X86925000Y-71925000D03*
X56925000Y-31925000D03*
X51925000Y-26925000D03*
X70475000Y-55365000D03*
X36925000Y-36925000D03*
X16925000Y-96925000D03*
X66925000Y-31925000D03*
X66925000Y-1925000D03*
X41925000Y-51925000D03*
X6925000Y-81925000D03*
X11925000Y-41925000D03*
X56925000Y-36925000D03*
X10475000Y-55270000D03*
X1925000Y-81925000D03*
X36925000Y-81925000D03*
X31250000Y-69950000D03*
X91925000Y-81925000D03*
X91925000Y-6925000D03*
X86925000Y-96925000D03*
X41925000Y-16925000D03*
X26925000Y-46925000D03*
X21925000Y-1925000D03*
X81925000Y-31925000D03*
X76925000Y-16925000D03*
X36925000Y-11925000D03*
X6925000Y-86925000D03*
X51925000Y-16925000D03*
X6925000Y-71925000D03*
X81925000Y-1925000D03*
X41925000Y-6925000D03*
X86925000Y-1925000D03*
X26925000Y-61925000D03*
X56925000Y-76925000D03*
X16925000Y-6925000D03*
X31925000Y-36925000D03*
X91925000Y-76925000D03*
X91925000Y-26925000D03*
X45337500Y-43500000D03*
X86925000Y-31925000D03*
X66925000Y-86925000D03*
X71925000Y-86925000D03*
X36925000Y-86925000D03*
X10475000Y-54000000D03*
X71925000Y-96925000D03*
X21925000Y-51925000D03*
X16925000Y-61925000D03*
X61925000Y-81925000D03*
X46925000Y-76925000D03*
D21*
X44500000Y-28977500D03*
D20*
X41925000Y-71925000D03*
X96925000Y-36925000D03*
X81925000Y-96925000D03*
X31950000Y-68750000D03*
X71925000Y-6925000D03*
X16925000Y-66925000D03*
X1925000Y-41925000D03*
X26925000Y-16925000D03*
X86925000Y-91925000D03*
X61925000Y-36925000D03*
X61925000Y-56925000D03*
X96925000Y-81925000D03*
X20137500Y-58000000D03*
X86925000Y-76925000D03*
X41925000Y-96925000D03*
X81925000Y-6925000D03*
X51925000Y-66925000D03*
X1925000Y-11925000D03*
X31925000Y-86925000D03*
X61925000Y-71925000D03*
X6925000Y-16925000D03*
X56925000Y-56925000D03*
X36925000Y-31925000D03*
X26925000Y-56925000D03*
X14937500Y-42000000D03*
X81925000Y-56925000D03*
X31925000Y-76925000D03*
X76925000Y-21925000D03*
X16925000Y-1925000D03*
X21925000Y-26925000D03*
X71925000Y-46925000D03*
X36925000Y-91925000D03*
X44500000Y-47337500D03*
X61925000Y-31925000D03*
X21925000Y-56925000D03*
X11925000Y-61925000D03*
X42500000Y-47337500D03*
X1925000Y-96925000D03*
X11925000Y-76925000D03*
X81925000Y-36925000D03*
X11925000Y-16925000D03*
X21925000Y-66925000D03*
X16925000Y-86925000D03*
X38662500Y-46500000D03*
X51925000Y-41925000D03*
X46925000Y-81925000D03*
X36925000Y-41925000D03*
X61925000Y-16925000D03*
X66925000Y-66925000D03*
X11925000Y-46925000D03*
X41925000Y-66925000D03*
X71925000Y-56925000D03*
X1925000Y-31925000D03*
X1925000Y-61925000D03*
X6925000Y-26925000D03*
X56925000Y-86925000D03*
X26925000Y-11925000D03*
X46925000Y-46925000D03*
X36925000Y-26925000D03*
X41925000Y-26925000D03*
X38662500Y-42500000D03*
X11925000Y-71925000D03*
X86925000Y-21925000D03*
X42787500Y-56000000D03*
X46925000Y-36925000D03*
X31925000Y-11925000D03*
X86925000Y-86925000D03*
X56925000Y-26925000D03*
X66925000Y-71925000D03*
X16925000Y-91925000D03*
X91925000Y-86925000D03*
X39500000Y-40662500D03*
X1925000Y-76925000D03*
X86925000Y-6925000D03*
X31250000Y-66050000D03*
X71925000Y-26925000D03*
X42787500Y-30000000D03*
X1925000Y-66925000D03*
X51925000Y-1925000D03*
X56925000Y-61925000D03*
X1925000Y-6925000D03*
X96925000Y-21925000D03*
X1925000Y-26925000D03*
X36925000Y-1925000D03*
X41925000Y-36925000D03*
X66925000Y-81925000D03*
X86925000Y-36925000D03*
X16925000Y-11925000D03*
X31925000Y-51925000D03*
X96925000Y-66925000D03*
X86925000Y-81925000D03*
X36925000Y-6925000D03*
X61925000Y-61925000D03*
X86925000Y-16925000D03*
X26925000Y-1925000D03*
X70475000Y-60445000D03*
X91925000Y-11925000D03*
X56925000Y-66925000D03*
X5525000Y-55270000D03*
X76925000Y-1925000D03*
X16925000Y-16925000D03*
X1925000Y-46925000D03*
X11925000Y-36925000D03*
X71925000Y-71925000D03*
X76925000Y-56925000D03*
X71925000Y-16925000D03*
X91925000Y-56925000D03*
X41925000Y-1925000D03*
X91925000Y-41925000D03*
X96925000Y-16925000D03*
X91925000Y-61925000D03*
X96925000Y-61925000D03*
X91925000Y-71925000D03*
X21925000Y-11925000D03*
X51925000Y-31925000D03*
X31925000Y-31925000D03*
X36925000Y-16925000D03*
X51925000Y-81925000D03*
X86925000Y-66925000D03*
X26925000Y-96925000D03*
X46925000Y-41925000D03*
X71925000Y-66925000D03*
X66925000Y-26925000D03*
X96925000Y-41925000D03*
X56925000Y-41925000D03*
X31925000Y-6925000D03*
X51925000Y-96925000D03*
X36925000Y-51925000D03*
X29250000Y-66050000D03*
X30250000Y-69950000D03*
X96925000Y-11925000D03*
X21925000Y-76925000D03*
X21925000Y-46925000D03*
X38662500Y-41500000D03*
X26925000Y-71925000D03*
X61925000Y-66925000D03*
X21925000Y-6925000D03*
X91925000Y-31925000D03*
X1925000Y-56925000D03*
X11925000Y-1925000D03*
X51925000Y-61925000D03*
X91925000Y-91925000D03*
X10475000Y-52730000D03*
X46925000Y-16925000D03*
X61925000Y-41925000D03*
X46925000Y-6925000D03*
X91925000Y-51925000D03*
X16925000Y-51925000D03*
X31925000Y-66925000D03*
X31925000Y-96925000D03*
X40500000Y-47337500D03*
X36925000Y-96925000D03*
X6925000Y-76925000D03*
X26925000Y-51925000D03*
X45337500Y-42500000D03*
X11925000Y-91925000D03*
X91925000Y-1925000D03*
X96925000Y-31925000D03*
X16925000Y-21925000D03*
X91925000Y-66925000D03*
X56925000Y-91925000D03*
X11925000Y-56925000D03*
X16925000Y-41925000D03*
X81925000Y-61925000D03*
X26925000Y-76925000D03*
X26925000Y-6925000D03*
X76925000Y-66925000D03*
X8937500Y-42000000D03*
X51925000Y-71925000D03*
X31925000Y-16925000D03*
X42500000Y-40662500D03*
X61925000Y-1925000D03*
X76925000Y-61925000D03*
X11925000Y-96925000D03*
X43500000Y-40662500D03*
X45337500Y-41500000D03*
X1925000Y-51925000D03*
X66925000Y-61925000D03*
X91925000Y-16925000D03*
X61925000Y-6925000D03*
X31925000Y-61925000D03*
X41925000Y-61925000D03*
D21*
G04 #@! TO.N,3V3*
X13162000Y-57810000D03*
X13162000Y-48221400D03*
G04 #@! TO.N,5V*
X50950400Y-90464600D03*
X40999000Y-57077500D03*
G04 #@! TO.N,I2C_SDA*
X41773700Y-58491400D03*
X39721500Y-71600400D03*
G04 #@! TD*
D22*
G04 #@! TO.N,GND*
X44500000Y-10000000D02*
X44500000Y-28977500D01*
G04 #@! TO.N,3V3*
X25000000Y-36383400D02*
X13162000Y-48221400D01*
X25000000Y-10000000D02*
X25000000Y-36383400D01*
X13162000Y-48221400D02*
X13162000Y-57810000D01*
G04 #@! TO.N,5V*
X50950400Y-66817200D02*
X41210700Y-57077500D01*
X41210700Y-57077500D02*
X40999000Y-57077500D01*
X50950400Y-90464600D02*
X50950400Y-66817200D01*
G04 #@! TO.N,I2C_SDA*
X39721500Y-60543600D02*
X39721500Y-71600400D01*
X41773700Y-58491400D02*
X39721500Y-60543600D01*
G04 #@! TD*
M02*
