G04 #@! TF.GenerationSoftware,KiCad,Pcbnew,9.0.2+dfsg-1*
G04 #@! TF.CreationDate,2026-06-02T13:19:59-04:00*
G04 #@! TF.ProjectId,Afterburner-Modern,41667465-7262-4757-926e-65722d4d6f64,1.0*
G04 #@! TF.SameCoordinates,Original*
G04 #@! TF.FileFunction,Paste,Top*
G04 #@! TF.FilePolarity,Positive*
%FSLAX46Y46*%
G04 Gerber Fmt 4.6, Leading zero omitted, Abs format (unit mm)*
G04 Created by KiCad (PCBNEW 9.0.2+dfsg-1) date 2026-06-02 13:19:59*
%MOMM*%
%LPD*%
G01*
G04 APERTURE LIST*
G04 Aperture macros list*
%AMRoundRect*
0 Rectangle with rounded corners*
0 $1 Rounding radius*
0 $2 $3 $4 $5 $6 $7 $8 $9 X,Y pos of 4 corners*
0 Add a 4 corners polygon primitive as box body*
4,1,4,$2,$3,$4,$5,$6,$7,$8,$9,$2,$3,0*
0 Add four circle primitives for the rounded corners*
1,1,$1+$1,$2,$3*
1,1,$1+$1,$4,$5*
1,1,$1+$1,$6,$7*
1,1,$1+$1,$8,$9*
0 Add four rect primitives between the rounded corners*
20,1,$1+$1,$2,$3,$4,$5,0*
20,1,$1+$1,$4,$5,$6,$7,0*
20,1,$1+$1,$6,$7,$8,$9,0*
20,1,$1+$1,$8,$9,$2,$3,0*%
%AMFreePoly0*
4,1,9,3.862500,-0.866500,0.737500,-0.866500,0.737500,-0.450000,-0.737500,-0.450000,-0.737500,0.450000,0.737500,0.450000,0.737500,0.866500,3.862500,0.866500,3.862500,-0.866500,3.862500,-0.866500,$1*%
G04 Aperture macros list end*
%ADD10RoundRect,0.135000X-0.135000X-0.185000X0.135000X-0.185000X0.135000X0.185000X-0.135000X0.185000X0*%
%ADD11RoundRect,0.140000X-0.140000X-0.170000X0.140000X-0.170000X0.140000X0.170000X-0.140000X0.170000X0*%
%ADD12RoundRect,0.250000X-0.275000X-0.275000X0.275000X-0.275000X0.275000X0.275000X-0.275000X0.275000X0*%
%ADD13RoundRect,0.062500X-0.475000X-0.062500X0.475000X-0.062500X0.475000X0.062500X-0.475000X0.062500X0*%
%ADD14RoundRect,0.062500X-0.062500X-0.475000X0.062500X-0.475000X0.062500X0.475000X-0.062500X0.475000X0*%
%ADD15RoundRect,0.150000X-0.587500X-0.150000X0.587500X-0.150000X0.587500X0.150000X-0.587500X0.150000X0*%
%ADD16RoundRect,0.150000X-0.512500X-0.150000X0.512500X-0.150000X0.512500X0.150000X-0.512500X0.150000X0*%
%ADD17RoundRect,0.218750X-0.218750X-0.256250X0.218750X-0.256250X0.218750X0.256250X-0.218750X0.256250X0*%
%ADD18RoundRect,0.150000X-0.825000X-0.150000X0.825000X-0.150000X0.825000X0.150000X-0.825000X0.150000X0*%
%ADD19RoundRect,0.225000X-0.425000X-0.225000X0.425000X-0.225000X0.425000X0.225000X-0.425000X0.225000X0*%
%ADD20FreePoly0,0.000000*%
%ADD21RoundRect,0.250000X-0.255000X-0.255000X0.255000X-0.255000X0.255000X0.255000X-0.255000X0.255000X0*%
%ADD22RoundRect,0.062500X-0.337500X-0.062500X0.337500X-0.062500X0.337500X0.062500X-0.337500X0.062500X0*%
%ADD23RoundRect,0.062500X-0.062500X-0.337500X0.062500X-0.337500X0.062500X0.337500X-0.062500X0.337500X0*%
%ADD24RoundRect,0.090000X-0.090000X-0.210000X0.090000X-0.210000X0.090000X0.210000X-0.090000X0.210000X0*%
%ADD25RoundRect,0.062500X-0.287500X-0.062500X0.287500X-0.062500X0.287500X0.062500X-0.287500X0.062500X0*%
%ADD26R,5.100000X5.100000*%
%ADD27R,0.300000X1.300000*%
%ADD28R,1.800000X2.200000*%
%ADD29R,1.450000X0.600000*%
%ADD30R,1.450000X0.300000*%
G04 APERTURE END LIST*
D10*
G04 #@! TO.C,R8*
X40490000Y-22000000D03*
X41510000Y-22000000D03*
G04 #@! TD*
D11*
G04 #@! TO.C,C8*
X72520000Y-22000000D03*
X73480000Y-22000000D03*
G04 #@! TD*
D10*
G04 #@! TO.C,R9*
X43490000Y-22000000D03*
X44510000Y-22000000D03*
G04 #@! TD*
D12*
G04 #@! TO.C,U1*
X40050000Y-42050000D03*
X40050000Y-43350000D03*
X40050000Y-44650000D03*
X40050000Y-45950000D03*
X41350000Y-42050000D03*
X41350000Y-43350000D03*
X41350000Y-44650000D03*
X41350000Y-45950000D03*
X42650000Y-42050000D03*
X42650000Y-43350000D03*
X42650000Y-44650000D03*
X42650000Y-45950000D03*
X43950000Y-42050000D03*
X43950000Y-43350000D03*
X43950000Y-44650000D03*
X43950000Y-45950000D03*
D13*
X38662500Y-41500000D03*
X38662500Y-42000000D03*
X38662500Y-42500000D03*
X38662500Y-43000000D03*
X38662500Y-43500000D03*
X38662500Y-44000000D03*
X38662500Y-44500000D03*
X38662500Y-45000000D03*
X38662500Y-45500000D03*
X38662500Y-46000000D03*
X38662500Y-46500000D03*
D14*
X39500000Y-47337500D03*
X40000000Y-47337500D03*
X40500000Y-47337500D03*
X41000000Y-47337500D03*
X41500000Y-47337500D03*
X42000000Y-47337500D03*
X42500000Y-47337500D03*
X43000000Y-47337500D03*
X43500000Y-47337500D03*
X44000000Y-47337500D03*
X44500000Y-47337500D03*
D13*
X45337500Y-46500000D03*
X45337500Y-46000000D03*
X45337500Y-45500000D03*
X45337500Y-45000000D03*
X45337500Y-44500000D03*
X45337500Y-44000000D03*
X45337500Y-43500000D03*
X45337500Y-43000000D03*
X45337500Y-42500000D03*
X45337500Y-42000000D03*
X45337500Y-41500000D03*
D14*
X44500000Y-40662500D03*
X44000000Y-40662500D03*
X43500000Y-40662500D03*
X43000000Y-40662500D03*
X42500000Y-40662500D03*
X42000000Y-40662500D03*
X41500000Y-40662500D03*
X41000000Y-40662500D03*
X40500000Y-40662500D03*
X40000000Y-40662500D03*
X39500000Y-40662500D03*
G04 #@! TD*
D11*
G04 #@! TO.C,C7*
X69520000Y-22000000D03*
X70480000Y-22000000D03*
G04 #@! TD*
D15*
G04 #@! TO.C,U8_1*
X7062500Y-41050000D03*
X7062500Y-42950000D03*
X8937500Y-42000000D03*
G04 #@! TD*
D16*
G04 #@! TO.C,U2*
X28862500Y-43050000D03*
X28862500Y-44000000D03*
X28862500Y-44950000D03*
X31137500Y-44950000D03*
X31137500Y-44000000D03*
X31137500Y-43050000D03*
G04 #@! TD*
D17*
G04 #@! TO.C,D2*
X41212500Y-56000000D03*
X42787500Y-56000000D03*
G04 #@! TD*
D10*
G04 #@! TO.C,R1*
X19490000Y-22000000D03*
X20510000Y-22000000D03*
G04 #@! TD*
D11*
G04 #@! TO.C,C5*
X63520000Y-22000000D03*
X64480000Y-22000000D03*
G04 #@! TD*
G04 #@! TO.C,C6*
X66520000Y-22000000D03*
X67480000Y-22000000D03*
G04 #@! TD*
G04 #@! TO.C,C1*
X51520000Y-22000000D03*
X52480000Y-22000000D03*
G04 #@! TD*
D10*
G04 #@! TO.C,R6*
X34490000Y-22000000D03*
X35510000Y-22000000D03*
G04 #@! TD*
G04 #@! TO.C,R5*
X31490000Y-22000000D03*
X32510000Y-22000000D03*
G04 #@! TD*
D18*
G04 #@! TO.C,U7*
X65525000Y-51555000D03*
X65525000Y-52825000D03*
X65525000Y-54095000D03*
X65525000Y-55365000D03*
X65525000Y-56635000D03*
X65525000Y-57905000D03*
X65525000Y-59175000D03*
X65525000Y-60445000D03*
X70475000Y-60445000D03*
X70475000Y-59175000D03*
X70475000Y-57905000D03*
X70475000Y-56635000D03*
X70475000Y-55365000D03*
X70475000Y-54095000D03*
X70475000Y-52825000D03*
X70475000Y-51555000D03*
G04 #@! TD*
D15*
G04 #@! TO.C,U8_2*
X13062500Y-41050000D03*
X13062500Y-42950000D03*
X14937500Y-42000000D03*
G04 #@! TD*
D10*
G04 #@! TO.C,R2*
X22490000Y-22000000D03*
X23510000Y-22000000D03*
G04 #@! TD*
D17*
G04 #@! TO.C,D1*
X41212500Y-30000000D03*
X42787500Y-30000000D03*
G04 #@! TD*
D10*
G04 #@! TO.C,R3*
X25490000Y-22000000D03*
X26510000Y-22000000D03*
G04 #@! TD*
D19*
G04 #@! TO.C,U3*
X20050000Y-56500000D03*
D20*
X20137500Y-58000000D03*
D19*
X20050000Y-59500000D03*
G04 #@! TD*
D10*
G04 #@! TO.C,R10*
X46490000Y-22000000D03*
X47510000Y-22000000D03*
G04 #@! TD*
D18*
G04 #@! TO.C,U9*
X5525000Y-50190000D03*
X5525000Y-51460000D03*
X5525000Y-52730000D03*
X5525000Y-54000000D03*
X5525000Y-55270000D03*
X5525000Y-56540000D03*
X5525000Y-57810000D03*
X10475000Y-57810000D03*
X10475000Y-56540000D03*
X10475000Y-55270000D03*
X10475000Y-54000000D03*
X10475000Y-52730000D03*
X10475000Y-51460000D03*
X10475000Y-50190000D03*
G04 #@! TD*
D21*
G04 #@! TO.C,U10*
X29375000Y-67375000D03*
X29375000Y-68625000D03*
X30625000Y-67375000D03*
X30625000Y-68625000D03*
D22*
X28050000Y-66750000D03*
X28050000Y-67250000D03*
X28050000Y-67750000D03*
X28050000Y-68250000D03*
X28050000Y-68750000D03*
X28050000Y-69250000D03*
D23*
X28750000Y-69950000D03*
X29250000Y-69950000D03*
X29750000Y-69950000D03*
X30250000Y-69950000D03*
X30750000Y-69950000D03*
X31250000Y-69950000D03*
D22*
X31950000Y-69250000D03*
X31950000Y-68750000D03*
X31950000Y-68250000D03*
X31950000Y-67750000D03*
X31950000Y-67250000D03*
X31950000Y-66750000D03*
D23*
X31250000Y-66050000D03*
X30750000Y-66050000D03*
X30250000Y-66050000D03*
X29750000Y-66050000D03*
X29250000Y-66050000D03*
X28750000Y-66050000D03*
G04 #@! TD*
D24*
G04 #@! TO.C,U4*
X67775000Y-43625000D03*
X67775000Y-44375000D03*
X68225000Y-43625000D03*
X68225000Y-44375000D03*
D25*
X67000000Y-43250000D03*
X67000000Y-43750000D03*
X67000000Y-44250000D03*
X67000000Y-44750000D03*
X69000000Y-44750000D03*
X69000000Y-44250000D03*
X69000000Y-43750000D03*
X69000000Y-43250000D03*
G04 #@! TD*
D26*
G04 #@! TO.C,BAT1*
X39200000Y-78000000D03*
X64800000Y-78000000D03*
G04 #@! TD*
D11*
G04 #@! TO.C,C2*
X54520000Y-22000000D03*
X55480000Y-22000000D03*
G04 #@! TD*
D27*
G04 #@! TO.C,U11*
X45750000Y-92150000D03*
X46250000Y-92150000D03*
X46750000Y-92150000D03*
X47250000Y-92150000D03*
X47750000Y-92150000D03*
X48250000Y-92150000D03*
X48750000Y-92150000D03*
X49250000Y-92150000D03*
X49750000Y-92150000D03*
X50250000Y-92150000D03*
X50750000Y-92150000D03*
X51250000Y-92150000D03*
X51750000Y-92150000D03*
X52250000Y-92150000D03*
X52750000Y-92150000D03*
X53250000Y-92150000D03*
X53750000Y-92150000D03*
X54250000Y-92150000D03*
D28*
X43850000Y-95400000D03*
X56150000Y-95400000D03*
G04 #@! TD*
D11*
G04 #@! TO.C,C4*
X60520000Y-22000000D03*
X61480000Y-22000000D03*
G04 #@! TD*
D10*
G04 #@! TO.C,R7*
X37490000Y-22000000D03*
X38510000Y-22000000D03*
G04 #@! TD*
D11*
G04 #@! TO.C,C3*
X57520000Y-22000000D03*
X58480000Y-22000000D03*
G04 #@! TD*
D10*
G04 #@! TO.C,R4*
X28490000Y-22000000D03*
X29510000Y-22000000D03*
G04 #@! TD*
D29*
G04 #@! TO.C,J1*
X81955000Y-17250000D03*
X81955000Y-16450000D03*
D30*
X81955000Y-15250000D03*
X81955000Y-14250000D03*
X81955000Y-13750000D03*
X81955000Y-12750000D03*
D29*
X81955000Y-11550000D03*
X81955000Y-10750000D03*
X81955000Y-10750000D03*
X81955000Y-11550000D03*
D30*
X81955000Y-12250000D03*
X81955000Y-13250000D03*
X81955000Y-14750000D03*
X81955000Y-15750000D03*
D29*
X81955000Y-16450000D03*
X81955000Y-17250000D03*
G04 #@! TD*
M02*
