G04 #@! TF.GenerationSoftware,KiCad,Pcbnew,9.0.2+dfsg-1*
G04 #@! TF.CreationDate,2026-06-02T13:19:59-04:00*
G04 #@! TF.ProjectId,Afterburner-Modern,41667465-7262-4757-926e-65722d4d6f64,1.0*
G04 #@! TF.SameCoordinates,Original*
G04 #@! TF.FileFunction,Copper,L1,Top*
G04 #@! TF.FilePolarity,Positive*
%FSLAX46Y46*%
G04 Gerber Fmt 4.6, Leading zero omitted, Abs format (unit mm)*
G04 Created by KiCad (PCBNEW 9.0.2+dfsg-1) date 2026-06-02 13:19:59*
%MOMM*%
%LPD*%
G01*
G04 APERTURE LIST*
G04 Aperture macros list*
%AMRoundRect*
0 Rectangle with rounded corners*
0 $1 Rounding radius*
0 $2 $3 $4 $5 $6 $7 $8 $9 X,Y pos of 4 corners*
0 Add a 4 corners polygon primitive as box body*
4,1,4,$2,$3,$4,$5,$6,$7,$8,$9,$2,$3,0*
0 Add four circle primitives for the rounded corners*
1,1,$1+$1,$2,$3*
1,1,$1+$1,$4,$5*
1,1,$1+$1,$6,$7*
1,1,$1+$1,$8,$9*
0 Add four rect primitives between the rounded corners*
20,1,$1+$1,$2,$3,$4,$5,0*
20,1,$1+$1,$4,$5,$6,$7,0*
20,1,$1+$1,$6,$7,$8,$9,0*
20,1,$1+$1,$8,$9,$2,$3,0*%
%AMFreePoly0*
4,1,9,3.862500,-0.866500,0.737500,-0.866500,0.737500,-0.450000,-0.737500,-0.450000,-0.737500,0.450000,0.737500,0.450000,0.737500,0.866500,3.862500,0.866500,3.862500,-0.866500,3.862500,-0.866500,$1*%
G04 Aperture macros list end*
G04 #@! TA.AperFunction,SMDPad,CuDef*
%ADD10RoundRect,0.135000X-0.135000X-0.185000X0.135000X-0.185000X0.135000X0.185000X-0.135000X0.185000X0*%
G04 #@! TD*
G04 #@! TA.AperFunction,SMDPad,CuDef*
%ADD11RoundRect,0.140000X-0.140000X-0.170000X0.140000X-0.170000X0.140000X0.170000X-0.140000X0.170000X0*%
G04 #@! TD*
G04 #@! TA.AperFunction,ComponentPad*
%ADD12C,2.100000*%
G04 #@! TD*
G04 #@! TA.AperFunction,ComponentPad*
%ADD13C,1.750000*%
G04 #@! TD*
G04 #@! TA.AperFunction,ComponentPad*
%ADD14RoundRect,0.250000X-0.600000X-0.725000X0.600000X-0.725000X0.600000X0.725000X-0.600000X0.725000X0*%
G04 #@! TD*
G04 #@! TA.AperFunction,ComponentPad*
%ADD15O,1.700000X1.950000*%
G04 #@! TD*
G04 #@! TA.AperFunction,SMDPad,CuDef*
%ADD16RoundRect,0.062500X-0.475000X-0.062500X0.475000X-0.062500X0.475000X0.062500X-0.475000X0.062500X0*%
G04 #@! TD*
G04 #@! TA.AperFunction,SMDPad,CuDef*
%ADD17RoundRect,0.062500X-0.062500X-0.475000X0.062500X-0.475000X0.062500X0.475000X-0.062500X0.475000X0*%
G04 #@! TD*
G04 #@! TA.AperFunction,HeatsinkPad*
%ADD18R,5.200000X5.200000*%
G04 #@! TD*
G04 #@! TA.AperFunction,SMDPad,CuDef*
%ADD19RoundRect,0.150000X-0.587500X-0.150000X0.587500X-0.150000X0.587500X0.150000X-0.587500X0.150000X0*%
G04 #@! TD*
G04 #@! TA.AperFunction,SMDPad,CuDef*
%ADD20RoundRect,0.150000X-0.512500X-0.150000X0.512500X-0.150000X0.512500X0.150000X-0.512500X0.150000X0*%
G04 #@! TD*
G04 #@! TA.AperFunction,SMDPad,CuDef*
%ADD21RoundRect,0.218750X-0.218750X-0.256250X0.218750X-0.256250X0.218750X0.256250X-0.218750X0.256250X0*%
G04 #@! TD*
G04 #@! TA.AperFunction,SMDPad,CuDef*
%ADD22RoundRect,0.150000X-0.825000X-0.150000X0.825000X-0.150000X0.825000X0.150000X-0.825000X0.150000X0*%
G04 #@! TD*
G04 #@! TA.AperFunction,SMDPad,CuDef*
%ADD23RoundRect,0.225000X-0.425000X-0.225000X0.425000X-0.225000X0.425000X0.225000X-0.425000X0.225000X0*%
G04 #@! TD*
G04 #@! TA.AperFunction,SMDPad,CuDef*
%ADD24FreePoly0,0.000000*%
G04 #@! TD*
G04 #@! TA.AperFunction,SMDPad,CuDef*
%ADD25RoundRect,0.062500X-0.337500X-0.062500X0.337500X-0.062500X0.337500X0.062500X-0.337500X0.062500X0*%
G04 #@! TD*
G04 #@! TA.AperFunction,SMDPad,CuDef*
%ADD26RoundRect,0.062500X-0.062500X-0.337500X0.062500X-0.337500X0.062500X0.337500X-0.062500X0.337500X0*%
G04 #@! TD*
G04 #@! TA.AperFunction,HeatsinkPad*
%ADD27R,2.500000X2.500000*%
G04 #@! TD*
G04 #@! TA.AperFunction,SMDPad,CuDef*
%ADD28RoundRect,0.062500X-0.287500X-0.062500X0.287500X-0.062500X0.287500X0.062500X-0.287500X0.062500X0*%
G04 #@! TD*
G04 #@! TA.AperFunction,HeatsinkPad*
%ADD29R,0.900000X1.500000*%
G04 #@! TD*
G04 #@! TA.AperFunction,SMDPad,CuDef*
%ADD30R,5.100000X5.100000*%
G04 #@! TD*
G04 #@! TA.AperFunction,SMDPad,CuDef*
%ADD31C,17.800000*%
G04 #@! TD*
G04 #@! TA.AperFunction,SMDPad,CuDef*
%ADD32R,0.300000X1.300000*%
G04 #@! TD*
G04 #@! TA.AperFunction,SMDPad,CuDef*
%ADD33R,1.800000X2.200000*%
G04 #@! TD*
G04 #@! TA.AperFunction,ComponentPad*
%ADD34RoundRect,0.250000X-0.600000X-0.600000X0.600000X-0.600000X0.600000X0.600000X-0.600000X0.600000X0*%
G04 #@! TD*
G04 #@! TA.AperFunction,ComponentPad*
%ADD35C,1.700000*%
G04 #@! TD*
G04 #@! TA.AperFunction,ComponentPad*
%ADD36RoundRect,0.250001X1.149999X-1.149999X1.149999X1.149999X-1.149999X1.149999X-1.149999X-1.149999X0*%
G04 #@! TD*
G04 #@! TA.AperFunction,ComponentPad*
%ADD37C,2.800000*%
G04 #@! TD*
G04 #@! TA.AperFunction,SMDPad,CuDef*
%ADD38R,1.450000X0.600000*%
G04 #@! TD*
G04 #@! TA.AperFunction,SMDPad,CuDef*
%ADD39R,1.450000X0.300000*%
G04 #@! TD*
G04 #@! TA.AperFunction,HeatsinkPad*
%ADD40O,2.100000X1.000000*%
G04 #@! TD*
G04 #@! TA.AperFunction,HeatsinkPad*
%ADD41O,1.600000X1.000000*%
G04 #@! TD*
G04 #@! TA.AperFunction,ViaPad*
%ADD42C,0.800000*%
G04 #@! TD*
G04 #@! TA.AperFunction,ViaPad*
%ADD43C,0.600000*%
G04 #@! TD*
G04 #@! TA.AperFunction,Conductor*
%ADD44C,0.200000*%
G04 #@! TD*
G04 APERTURE END LIST*
D10*
G04 #@! TO.P,R8,1*
G04 #@! TO.N,N/C*
X40490000Y-22000000D03*
G04 #@! TO.P,R8,2*
X41510000Y-22000000D03*
G04 #@! TD*
D11*
G04 #@! TO.P,C8,1*
G04 #@! TO.N,N/C*
X72520000Y-22000000D03*
G04 #@! TO.P,C8,2*
X73480000Y-22000000D03*
G04 #@! TD*
D10*
G04 #@! TO.P,R9,1*
G04 #@! TO.N,N/C*
X43490000Y-22000000D03*
G04 #@! TO.P,R9,2*
X44510000Y-22000000D03*
G04 #@! TD*
D12*
G04 #@! TO.P,SW2,*
G04 #@! TO.N,*
X69750000Y-7490000D03*
X76760000Y-7490000D03*
D13*
G04 #@! TO.P,SW2,1*
G04 #@! TO.N,BUTTON2*
X71000000Y-5000000D03*
G04 #@! TO.P,SW2,2*
G04 #@! TO.N,GND*
X75500000Y-5000000D03*
G04 #@! TD*
D14*
G04 #@! TO.P,J4,1*
G04 #@! TO.N,3V3*
X25000000Y-10000000D03*
D15*
G04 #@! TO.P,J4,2*
G04 #@! TO.N,TEMP_SENSOR*
X27500000Y-10000000D03*
G04 #@! TO.P,J4,3*
G04 #@! TO.N,GND*
X30000000Y-10000000D03*
G04 #@! TD*
D16*
G04 #@! TO.P,U1,1*
G04 #@! TO.N,GND*
X38662500Y-41500000D03*
G04 #@! TO.P,U1,2*
X38662500Y-42000000D03*
G04 #@! TO.P,U1,3*
X38662500Y-42500000D03*
G04 #@! TO.P,U1,4*
X38662500Y-43000000D03*
G04 #@! TO.P,U1,5*
X38662500Y-43500000D03*
G04 #@! TO.P,U1,6*
X38662500Y-44000000D03*
G04 #@! TO.P,U1,7*
X38662500Y-44500000D03*
G04 #@! TO.P,U1,8*
X38662500Y-45000000D03*
G04 #@! TO.P,U1,9*
X38662500Y-45500000D03*
G04 #@! TO.P,U1,10*
X38662500Y-46000000D03*
G04 #@! TO.P,U1,11*
X38662500Y-46500000D03*
D17*
G04 #@! TO.P,U1,12*
X39500000Y-47337500D03*
G04 #@! TO.P,U1,13*
X40000000Y-47337500D03*
G04 #@! TO.P,U1,14*
X40500000Y-47337500D03*
G04 #@! TO.P,U1,15*
X41000000Y-47337500D03*
G04 #@! TO.P,U1,16*
X41500000Y-47337500D03*
G04 #@! TO.P,U1,17*
X42000000Y-47337500D03*
G04 #@! TO.P,U1,18*
X42500000Y-47337500D03*
G04 #@! TO.P,U1,19*
X43000000Y-47337500D03*
G04 #@! TO.P,U1,20*
X43500000Y-47337500D03*
G04 #@! TO.P,U1,21*
X44000000Y-47337500D03*
G04 #@! TO.P,U1,22*
X44500000Y-47337500D03*
D16*
G04 #@! TO.P,U1,23*
X45337500Y-46500000D03*
G04 #@! TO.P,U1,24*
X45337500Y-46000000D03*
G04 #@! TO.P,U1,25*
X45337500Y-45500000D03*
G04 #@! TO.P,U1,26*
X45337500Y-45000000D03*
G04 #@! TO.P,U1,27*
X45337500Y-44500000D03*
G04 #@! TO.P,U1,28*
X45337500Y-44000000D03*
G04 #@! TO.P,U1,29*
X45337500Y-43500000D03*
G04 #@! TO.P,U1,30*
X45337500Y-43000000D03*
G04 #@! TO.P,U1,31*
X45337500Y-42500000D03*
G04 #@! TO.P,U1,32*
X45337500Y-42000000D03*
G04 #@! TO.P,U1,33*
X45337500Y-41500000D03*
D17*
G04 #@! TO.P,U1,34*
X44500000Y-40662500D03*
G04 #@! TO.P,U1,35*
X44000000Y-40662500D03*
G04 #@! TO.P,U1,36*
X43500000Y-40662500D03*
G04 #@! TO.P,U1,37*
X43000000Y-40662500D03*
G04 #@! TO.P,U1,38*
X42500000Y-40662500D03*
G04 #@! TO.P,U1,39*
X42000000Y-40662500D03*
G04 #@! TO.P,U1,40*
X41500000Y-40662500D03*
G04 #@! TO.P,U1,41*
X41000000Y-40662500D03*
G04 #@! TO.P,U1,42*
X40500000Y-40662500D03*
G04 #@! TO.P,U1,43*
X40000000Y-40662500D03*
G04 #@! TO.P,U1,44*
X39500000Y-40662500D03*
D18*
G04 #@! TO.P,U1,45*
X42000000Y-44000000D03*
G04 #@! TD*
D11*
G04 #@! TO.P,C7,1*
G04 #@! TO.N,N/C*
X69520000Y-22000000D03*
G04 #@! TO.P,C7,2*
X70480000Y-22000000D03*
G04 #@! TD*
D14*
G04 #@! TO.P,J3,1*
G04 #@! TO.N,BLUE_TX_H*
X8000000Y-66000000D03*
D15*
G04 #@! TO.P,J3,2*
G04 #@! TO.N,12V_SENSE*
X10500000Y-66000000D03*
G04 #@! TO.P,J3,3*
G04 #@! TO.N,GND*
X13000000Y-66000000D03*
G04 #@! TD*
D19*
G04 #@! TO.P,U8_1,1*
G04 #@! TO.N,BLUE_TX_OUT*
X7062500Y-41050000D03*
G04 #@! TO.P,U8_1,2*
G04 #@! TO.N,BLUE_TX_H*
X7062500Y-42950000D03*
G04 #@! TO.P,U8_1,3*
G04 #@! TO.N,GND*
X8937500Y-42000000D03*
G04 #@! TD*
D20*
G04 #@! TO.P,U2,1*
G04 #@! TO.N,12V*
X28862500Y-43050000D03*
G04 #@! TO.P,U2,2*
G04 #@! TO.N,GND*
X28862500Y-44000000D03*
G04 #@! TO.P,U2,3*
G04 #@! TO.N,5V*
X28862500Y-44950000D03*
G04 #@! TO.P,U2,4*
G04 #@! TO.N,GND*
X31137500Y-44950000D03*
G04 #@! TO.P,U2,5*
G04 #@! TO.N,12V*
X31137500Y-44000000D03*
G04 #@! TO.P,U2,6*
G04 #@! TO.N,5V*
X31137500Y-43050000D03*
G04 #@! TD*
D21*
G04 #@! TO.P,D2,1*
G04 #@! TO.N,LED2*
X41212500Y-56000000D03*
G04 #@! TO.P,D2,2*
G04 #@! TO.N,GND*
X42787500Y-56000000D03*
G04 #@! TD*
D10*
G04 #@! TO.P,R1,1*
G04 #@! TO.N,N/C*
X19490000Y-22000000D03*
G04 #@! TO.P,R1,2*
X20510000Y-22000000D03*
G04 #@! TD*
D11*
G04 #@! TO.P,C5,1*
G04 #@! TO.N,N/C*
X63520000Y-22000000D03*
G04 #@! TO.P,C5,2*
X64480000Y-22000000D03*
G04 #@! TD*
G04 #@! TO.P,C6,1*
G04 #@! TO.N,N/C*
X66520000Y-22000000D03*
G04 #@! TO.P,C6,2*
X67480000Y-22000000D03*
G04 #@! TD*
G04 #@! TO.P,C1,1*
G04 #@! TO.N,N/C*
X51520000Y-22000000D03*
G04 #@! TO.P,C1,2*
X52480000Y-22000000D03*
G04 #@! TD*
D10*
G04 #@! TO.P,R6,1*
G04 #@! TO.N,N/C*
X34490000Y-22000000D03*
G04 #@! TO.P,R6,2*
X35510000Y-22000000D03*
G04 #@! TD*
G04 #@! TO.P,R5,1*
G04 #@! TO.N,N/C*
X31490000Y-22000000D03*
G04 #@! TO.P,R5,2*
X32510000Y-22000000D03*
G04 #@! TD*
D22*
G04 #@! TO.P,U7,1*
G04 #@! TO.N,I2C_SDA*
X65525000Y-51555000D03*
G04 #@! TO.P,U7,2*
G04 #@! TO.N,I2C_SCL*
X65525000Y-52825000D03*
G04 #@! TO.P,U7,3*
G04 #@! TO.N,GND*
X65525000Y-54095000D03*
G04 #@! TO.P,U7,4*
G04 #@! TO.N,3V3*
X65525000Y-55365000D03*
G04 #@! TO.P,U7,5*
G04 #@! TO.N,GND*
X65525000Y-56635000D03*
G04 #@! TO.P,U7,6*
G04 #@! TO.N,N/C*
X65525000Y-57905000D03*
G04 #@! TO.P,U7,7*
G04 #@! TO.N,GND*
X65525000Y-59175000D03*
G04 #@! TO.P,U7,8*
X65525000Y-60445000D03*
G04 #@! TO.P,U7,9*
X70475000Y-60445000D03*
G04 #@! TO.P,U7,10*
X70475000Y-59175000D03*
G04 #@! TO.P,U7,11*
G04 #@! TO.N,3V3*
X70475000Y-57905000D03*
G04 #@! TO.P,U7,12*
G04 #@! TO.N,GND*
X70475000Y-56635000D03*
G04 #@! TO.P,U7,13*
X70475000Y-55365000D03*
G04 #@! TO.P,U7,14*
X70475000Y-54095000D03*
G04 #@! TO.P,U7,15*
G04 #@! TO.N,3V3*
X70475000Y-52825000D03*
G04 #@! TO.P,U7,16*
G04 #@! TO.N,GND*
X70475000Y-51555000D03*
G04 #@! TD*
D19*
G04 #@! TO.P,U8_2,1*
G04 #@! TO.N,BLUE_RX_OUT*
X13062500Y-41050000D03*
G04 #@! TO.P,U8_2,2*
G04 #@! TO.N,BLUE_RX_H*
X13062500Y-42950000D03*
G04 #@! TO.P,U8_2,3*
G04 #@! TO.N,GND*
X14937500Y-42000000D03*
G04 #@! TD*
D10*
G04 #@! TO.P,R2,1*
G04 #@! TO.N,N/C*
X22490000Y-22000000D03*
G04 #@! TO.P,R2,2*
X23510000Y-22000000D03*
G04 #@! TD*
D21*
G04 #@! TO.P,D1,1*
G04 #@! TO.N,LED1*
X41212500Y-30000000D03*
G04 #@! TO.P,D1,2*
G04 #@! TO.N,GND*
X42787500Y-30000000D03*
G04 #@! TD*
D10*
G04 #@! TO.P,R3,1*
G04 #@! TO.N,N/C*
X25490000Y-22000000D03*
G04 #@! TO.P,R3,2*
X26510000Y-22000000D03*
G04 #@! TD*
D23*
G04 #@! TO.P,U3,1*
G04 #@! TO.N,5V*
X20050000Y-56500000D03*
D24*
G04 #@! TO.P,U3,2*
G04 #@! TO.N,GND*
X20137500Y-58000000D03*
D23*
G04 #@! TO.P,U3,3*
G04 #@! TO.N,3V3*
X20050000Y-59500000D03*
G04 #@! TD*
D10*
G04 #@! TO.P,R10,1*
G04 #@! TO.N,N/C*
X46490000Y-22000000D03*
G04 #@! TO.P,R10,2*
X47510000Y-22000000D03*
G04 #@! TD*
D22*
G04 #@! TO.P,U9,1*
G04 #@! TO.N,BLUE_TX*
X5525000Y-50190000D03*
G04 #@! TO.P,U9,2*
G04 #@! TO.N,BLUE_TX_OUT*
X5525000Y-51460000D03*
G04 #@! TO.P,U9,3*
G04 #@! TO.N,TX_GATE*
X5525000Y-52730000D03*
G04 #@! TO.P,U9,4*
G04 #@! TO.N,GND*
X5525000Y-54000000D03*
G04 #@! TO.P,U9,5*
X5525000Y-55270000D03*
G04 #@! TO.P,U9,6*
X5525000Y-56540000D03*
G04 #@! TO.P,U9,7*
X5525000Y-57810000D03*
G04 #@! TO.P,U9,8*
G04 #@! TO.N,3V3*
X10475000Y-57810000D03*
G04 #@! TO.P,U9,9*
G04 #@! TO.N,GND*
X10475000Y-56540000D03*
G04 #@! TO.P,U9,10*
X10475000Y-55270000D03*
G04 #@! TO.P,U9,11*
X10475000Y-54000000D03*
G04 #@! TO.P,U9,12*
X10475000Y-52730000D03*
G04 #@! TO.P,U9,13*
X10475000Y-51460000D03*
G04 #@! TO.P,U9,14*
G04 #@! TO.N,3V3*
X10475000Y-50190000D03*
G04 #@! TD*
D12*
G04 #@! TO.P,SW1,*
G04 #@! TO.N,*
X58750000Y-7490000D03*
X65760000Y-7490000D03*
D13*
G04 #@! TO.P,SW1,1*
G04 #@! TO.N,BUTTON1*
X60000000Y-5000000D03*
G04 #@! TO.P,SW1,2*
G04 #@! TO.N,GND*
X64500000Y-5000000D03*
G04 #@! TD*
D25*
G04 #@! TO.P,U10,1*
G04 #@! TO.N,GND*
X28050000Y-66750000D03*
G04 #@! TO.P,U10,2*
G04 #@! TO.N,3V3*
X28050000Y-67250000D03*
G04 #@! TO.P,U10,3*
G04 #@! TO.N,I2C_SDA*
X28050000Y-67750000D03*
G04 #@! TO.P,U10,4*
G04 #@! TO.N,I2C_SCL*
X28050000Y-68250000D03*
G04 #@! TO.P,U10,5*
G04 #@! TO.N,TOUCH_INT*
X28050000Y-68750000D03*
G04 #@! TO.P,U10,6*
G04 #@! TO.N,TOUCH_RST*
X28050000Y-69250000D03*
D26*
G04 #@! TO.P,U10,7*
G04 #@! TO.N,GND*
X28750000Y-69950000D03*
G04 #@! TO.P,U10,8*
X29250000Y-69950000D03*
G04 #@! TO.P,U10,9*
X29750000Y-69950000D03*
G04 #@! TO.P,U10,10*
X30250000Y-69950000D03*
G04 #@! TO.P,U10,11*
X30750000Y-69950000D03*
G04 #@! TO.P,U10,12*
X31250000Y-69950000D03*
D25*
G04 #@! TO.P,U10,13*
X31950000Y-69250000D03*
G04 #@! TO.P,U10,14*
X31950000Y-68750000D03*
G04 #@! TO.P,U10,15*
X31950000Y-68250000D03*
G04 #@! TO.P,U10,16*
X31950000Y-67750000D03*
G04 #@! TO.P,U10,17*
X31950000Y-67250000D03*
G04 #@! TO.P,U10,18*
X31950000Y-66750000D03*
D26*
G04 #@! TO.P,U10,19*
X31250000Y-66050000D03*
G04 #@! TO.P,U10,20*
X30750000Y-66050000D03*
G04 #@! TO.P,U10,21*
X30250000Y-66050000D03*
G04 #@! TO.P,U10,22*
X29750000Y-66050000D03*
G04 #@! TO.P,U10,23*
X29250000Y-66050000D03*
G04 #@! TO.P,U10,24*
X28750000Y-66050000D03*
D27*
G04 #@! TO.P,U10,25*
X30000000Y-68000000D03*
G04 #@! TD*
D28*
G04 #@! TO.P,U4,1*
G04 #@! TO.N,GND*
X67000000Y-43250000D03*
G04 #@! TO.P,U4,2*
G04 #@! TO.N,I2C_SDA*
X67000000Y-43750000D03*
G04 #@! TO.P,U4,3*
G04 #@! TO.N,I2C_SCL*
X67000000Y-44250000D03*
G04 #@! TO.P,U4,4*
G04 #@! TO.N,3V3*
X67000000Y-44750000D03*
G04 #@! TO.P,U4,5*
G04 #@! TO.N,GND*
X69000000Y-44750000D03*
G04 #@! TO.P,U4,6*
X69000000Y-44250000D03*
G04 #@! TO.P,U4,7*
G04 #@! TO.N,3V3*
X69000000Y-43750000D03*
G04 #@! TO.P,U4,8*
G04 #@! TO.N,GND*
X69000000Y-43250000D03*
D29*
G04 #@! TO.P,U4,9*
X68000000Y-44000000D03*
G04 #@! TD*
D30*
G04 #@! TO.P,BAT1,1*
G04 #@! TO.N,3V3*
X39200000Y-78000000D03*
X64800000Y-78000000D03*
D31*
G04 #@! TO.P,BAT1,2*
G04 #@! TO.N,GND*
X52000000Y-78000000D03*
G04 #@! TD*
D11*
G04 #@! TO.P,C2,1*
G04 #@! TO.N,N/C*
X54520000Y-22000000D03*
G04 #@! TO.P,C2,2*
X55480000Y-22000000D03*
G04 #@! TD*
D32*
G04 #@! TO.P,U11,1*
G04 #@! TO.N,LCD_BL*
X45750000Y-92150000D03*
G04 #@! TO.P,U11,2*
G04 #@! TO.N,3V3*
X46250000Y-92150000D03*
G04 #@! TO.P,U11,3*
G04 #@! TO.N,GND*
X46750000Y-92150000D03*
G04 #@! TO.P,U11,4*
G04 #@! TO.N,SPI_MOSI*
X47250000Y-92150000D03*
G04 #@! TO.P,U11,5*
G04 #@! TO.N,SPI_SCK*
X47750000Y-92150000D03*
G04 #@! TO.P,U11,6*
G04 #@! TO.N,SPI_MISO*
X48250000Y-92150000D03*
G04 #@! TO.P,U11,7*
G04 #@! TO.N,SPI_CS*
X48750000Y-92150000D03*
G04 #@! TO.P,U11,8*
G04 #@! TO.N,LCD_DC*
X49250000Y-92150000D03*
G04 #@! TO.P,U11,9*
G04 #@! TO.N,LCD_RST*
X49750000Y-92150000D03*
G04 #@! TO.P,U11,10*
G04 #@! TO.N,GND*
X50250000Y-92150000D03*
G04 #@! TO.P,U11,11*
G04 #@! TO.N,3V3*
X50750000Y-92150000D03*
G04 #@! TO.P,U11,12*
G04 #@! TO.N,GND*
X51250000Y-92150000D03*
G04 #@! TO.P,U11,13*
G04 #@! TO.N,5V*
X51750000Y-92150000D03*
G04 #@! TO.P,U11,14*
G04 #@! TO.N,GND*
X52250000Y-92150000D03*
G04 #@! TO.P,U11,15*
G04 #@! TO.N,3V3*
X52750000Y-92150000D03*
G04 #@! TO.P,U11,16*
G04 #@! TO.N,GND*
X53250000Y-92150000D03*
G04 #@! TO.P,U11,17*
G04 #@! TO.N,3V3*
X53750000Y-92150000D03*
G04 #@! TO.P,U11,18*
G04 #@! TO.N,GND*
X54250000Y-92150000D03*
D33*
G04 #@! TO.P,U11,MP*
G04 #@! TO.N,N/C*
X43850000Y-95400000D03*
X56150000Y-95400000D03*
G04 #@! TD*
D11*
G04 #@! TO.P,C4,1*
G04 #@! TO.N,N/C*
X60520000Y-22000000D03*
G04 #@! TO.P,C4,2*
X61480000Y-22000000D03*
G04 #@! TD*
D10*
G04 #@! TO.P,R7,1*
G04 #@! TO.N,N/C*
X37490000Y-22000000D03*
G04 #@! TO.P,R7,2*
X38510000Y-22000000D03*
G04 #@! TD*
D11*
G04 #@! TO.P,C3,1*
G04 #@! TO.N,N/C*
X57520000Y-22000000D03*
G04 #@! TO.P,C3,2*
X58480000Y-22000000D03*
G04 #@! TD*
D10*
G04 #@! TO.P,R4,1*
G04 #@! TO.N,N/C*
X28490000Y-22000000D03*
G04 #@! TO.P,R4,2*
X29510000Y-22000000D03*
G04 #@! TD*
D14*
G04 #@! TO.P,J5,1*
G04 #@! TO.N,5V*
X42000000Y-10000000D03*
D15*
G04 #@! TO.P,J5,2*
G04 #@! TO.N,GND*
X44500000Y-10000000D03*
G04 #@! TO.P,J5,3*
G04 #@! TO.N,CO_AOUT*
X47000000Y-10000000D03*
G04 #@! TO.P,J5,4*
G04 #@! TO.N,CO_DOUT*
X49500000Y-10000000D03*
G04 #@! TD*
D34*
G04 #@! TO.P,H1,1*
G04 #@! TO.N,N/C*
X78000000Y-28000000D03*
D35*
G04 #@! TO.P,H1,2*
X80540000Y-28000000D03*
G04 #@! TO.P,H1,3*
X78000000Y-30540000D03*
G04 #@! TO.P,H1,4*
X80540000Y-30540000D03*
G04 #@! TO.P,H1,5*
X78000000Y-33080000D03*
G04 #@! TO.P,H1,6*
X80540000Y-33080000D03*
G04 #@! TO.P,H1,7*
X78000000Y-35620000D03*
G04 #@! TO.P,H1,8*
X80540000Y-35620000D03*
G04 #@! TO.P,H1,9*
X78000000Y-38160000D03*
G04 #@! TO.P,H1,10*
X80540000Y-38160000D03*
G04 #@! TO.P,H1,11*
X78000000Y-40700000D03*
G04 #@! TO.P,H1,12*
X80540000Y-40700000D03*
G04 #@! TO.P,H1,13*
X78000000Y-43240000D03*
G04 #@! TO.P,H1,14*
X80540000Y-43240000D03*
G04 #@! TO.P,H1,15*
X78000000Y-45780000D03*
G04 #@! TO.P,H1,16*
X80540000Y-45780000D03*
G04 #@! TO.P,H1,17*
X78000000Y-48320000D03*
G04 #@! TO.P,H1,18*
X80540000Y-48320000D03*
G04 #@! TO.P,H1,19*
X78000000Y-50860000D03*
G04 #@! TO.P,H1,20*
X80540000Y-50860000D03*
G04 #@! TD*
D36*
G04 #@! TO.P,J2,1*
G04 #@! TO.N,12V*
X14000000Y-14000000D03*
D37*
G04 #@! TO.P,J2,2*
G04 #@! TO.N,GND*
X14000000Y-9000000D03*
G04 #@! TD*
D34*
G04 #@! TO.P,H2,1*
G04 #@! TO.N,N/C*
X78000000Y-70000000D03*
D35*
G04 #@! TO.P,H2,2*
X80540000Y-70000000D03*
G04 #@! TO.P,H2,3*
X78000000Y-72540000D03*
G04 #@! TO.P,H2,4*
X80540000Y-72540000D03*
G04 #@! TO.P,H2,5*
X78000000Y-75080000D03*
G04 #@! TO.P,H2,6*
X80540000Y-75080000D03*
G04 #@! TO.P,H2,7*
X78000000Y-77620000D03*
G04 #@! TO.P,H2,8*
X80540000Y-77620000D03*
G04 #@! TO.P,H2,9*
X78000000Y-80160000D03*
G04 #@! TO.P,H2,10*
X80540000Y-80160000D03*
G04 #@! TO.P,H2,11*
X78000000Y-82700000D03*
G04 #@! TO.P,H2,12*
X80540000Y-82700000D03*
G04 #@! TO.P,H2,13*
X78000000Y-85240000D03*
G04 #@! TO.P,H2,14*
X80540000Y-85240000D03*
G04 #@! TO.P,H2,15*
X78000000Y-87780000D03*
G04 #@! TO.P,H2,16*
X80540000Y-87780000D03*
G04 #@! TO.P,H2,17*
X78000000Y-90320000D03*
G04 #@! TO.P,H2,18*
X80540000Y-90320000D03*
G04 #@! TO.P,H2,19*
X78000000Y-92860000D03*
G04 #@! TO.P,H2,20*
X80540000Y-92860000D03*
G04 #@! TD*
D38*
G04 #@! TO.P,J1,A1*
G04 #@! TO.N,GND*
X81955000Y-17250000D03*
G04 #@! TO.P,J1,A4*
G04 #@! TO.N,5V*
X81955000Y-16450000D03*
D39*
G04 #@! TO.P,J1,A5*
G04 #@! TO.N,GND*
X81955000Y-15250000D03*
G04 #@! TO.P,J1,A6*
G04 #@! TO.N,USB_D+*
X81955000Y-14250000D03*
G04 #@! TO.P,J1,A7*
G04 #@! TO.N,USB_D-*
X81955000Y-13750000D03*
G04 #@! TO.P,J1,A8*
G04 #@! TO.N,GND*
X81955000Y-12750000D03*
D38*
G04 #@! TO.P,J1,A9*
G04 #@! TO.N,5V*
X81955000Y-11550000D03*
G04 #@! TO.P,J1,A12*
G04 #@! TO.N,GND*
X81955000Y-10750000D03*
G04 #@! TO.P,J1,B1*
X81955000Y-10750000D03*
G04 #@! TO.P,J1,B4*
G04 #@! TO.N,5V*
X81955000Y-11550000D03*
D39*
G04 #@! TO.P,J1,B5*
G04 #@! TO.N,GND*
X81955000Y-12250000D03*
G04 #@! TO.P,J1,B6*
G04 #@! TO.N,USB_D+*
X81955000Y-13250000D03*
G04 #@! TO.P,J1,B7*
G04 #@! TO.N,USB_D-*
X81955000Y-14750000D03*
G04 #@! TO.P,J1,B8*
G04 #@! TO.N,GND*
X81955000Y-15750000D03*
D38*
G04 #@! TO.P,J1,B9*
G04 #@! TO.N,5V*
X81955000Y-16450000D03*
G04 #@! TO.P,J1,B12*
G04 #@! TO.N,GND*
X81955000Y-17250000D03*
D40*
G04 #@! TO.P,J1,S1*
X82870000Y-18320000D03*
D41*
X87050000Y-18320000D03*
D40*
X82870000Y-9680000D03*
D41*
X87050000Y-9680000D03*
G04 #@! TD*
D42*
G04 #@! TO.N,GND*
X39500000Y-47337500D03*
X11925000Y-6925000D03*
X44500000Y-40662500D03*
X31925000Y-26925000D03*
X91925000Y-46925000D03*
X81925000Y-41925000D03*
X46925000Y-56925000D03*
X21925000Y-91925000D03*
X1925000Y-21925000D03*
X11925000Y-81925000D03*
X11925000Y-21925000D03*
X56925000Y-46925000D03*
X6925000Y-56925000D03*
X96925000Y-46925000D03*
X71925000Y-91925000D03*
X41925000Y-11925000D03*
X76925000Y-96925000D03*
X61925000Y-26925000D03*
X21925000Y-96925000D03*
X6925000Y-36925000D03*
X71925000Y-36925000D03*
X21925000Y-86925000D03*
X5525000Y-57810000D03*
X56925000Y-81925000D03*
X96925000Y-86925000D03*
X71925000Y-31925000D03*
X81925000Y-21925000D03*
X26925000Y-31925000D03*
X31925000Y-1925000D03*
X46925000Y-71925000D03*
X61925000Y-96925000D03*
X46925000Y-51925000D03*
X1925000Y-16925000D03*
X30250000Y-66050000D03*
X86925000Y-51925000D03*
X31925000Y-41925000D03*
X36925000Y-66925000D03*
X66925000Y-91925000D03*
X38662500Y-43500000D03*
X66925000Y-41925000D03*
X11925000Y-26925000D03*
X86925000Y-41925000D03*
X36925000Y-61925000D03*
X21925000Y-71925000D03*
X6925000Y-61925000D03*
X31925000Y-56925000D03*
X61925000Y-91925000D03*
X16925000Y-56925000D03*
X41500000Y-47337500D03*
X71925000Y-1925000D03*
X46925000Y-66925000D03*
X26925000Y-26925000D03*
X71925000Y-51925000D03*
X81925000Y-66925000D03*
X21925000Y-41925000D03*
X71925000Y-76925000D03*
X46925000Y-31925000D03*
X38662500Y-44500000D03*
X56925000Y-1925000D03*
X31925000Y-91925000D03*
X86925000Y-61925000D03*
X86925000Y-11925000D03*
X29250000Y-69950000D03*
X96925000Y-76925000D03*
X16925000Y-81925000D03*
X31925000Y-46925000D03*
X61925000Y-46925000D03*
X86925000Y-26925000D03*
X16925000Y-71925000D03*
X16925000Y-36925000D03*
X11925000Y-11925000D03*
X45337500Y-44500000D03*
X96925000Y-71925000D03*
X41925000Y-31925000D03*
X6925000Y-31925000D03*
X52000000Y-78000000D03*
X1925000Y-36925000D03*
X66925000Y-36925000D03*
X41925000Y-91925000D03*
X5525000Y-56540000D03*
X66925000Y-96925000D03*
X96925000Y-51925000D03*
X6925000Y-21925000D03*
X11925000Y-51925000D03*
X91925000Y-36925000D03*
X96925000Y-1925000D03*
X45337500Y-45500000D03*
X46925000Y-26925000D03*
X16925000Y-26925000D03*
X6925000Y-1925000D03*
X66925000Y-16925000D03*
X46925000Y-96925000D03*
X65525000Y-60445000D03*
X51925000Y-56925000D03*
X26925000Y-91925000D03*
X51925000Y-46925000D03*
X46925000Y-86925000D03*
X86925000Y-46925000D03*
X16925000Y-46925000D03*
X43500000Y-47337500D03*
X51925000Y-6925000D03*
X96925000Y-91925000D03*
X86925000Y-56925000D03*
X45337500Y-46500000D03*
X71925000Y-81925000D03*
X26925000Y-81925000D03*
X96925000Y-56925000D03*
X36925000Y-56925000D03*
X31925000Y-81925000D03*
X38662500Y-45500000D03*
X11925000Y-86925000D03*
X51925000Y-86925000D03*
X56925000Y-16925000D03*
X26925000Y-36925000D03*
X41500000Y-40662500D03*
X91925000Y-21925000D03*
X61925000Y-86925000D03*
X66925000Y-56925000D03*
X21925000Y-16925000D03*
X40500000Y-40662500D03*
X71925000Y-61925000D03*
X46925000Y-1925000D03*
X21925000Y-31925000D03*
X56925000Y-71925000D03*
X1925000Y-71925000D03*
X51925000Y-36925000D03*
X51925000Y-76925000D03*
X6925000Y-91925000D03*
X96925000Y-26925000D03*
X71925000Y-41925000D03*
X1925000Y-86925000D03*
X1925000Y-91925000D03*
X6925000Y-11925000D03*
X26925000Y-86925000D03*
X1925000Y-1925000D03*
X41925000Y-81925000D03*
X36925000Y-46925000D03*
X21925000Y-81925000D03*
X11925000Y-31925000D03*
X16925000Y-76925000D03*
X91925000Y-96925000D03*
X86925000Y-71925000D03*
X56925000Y-31925000D03*
X51925000Y-26925000D03*
X70475000Y-55365000D03*
X36925000Y-36925000D03*
X16925000Y-96925000D03*
X66925000Y-31925000D03*
X66925000Y-1925000D03*
X41925000Y-51925000D03*
X6925000Y-81925000D03*
X11925000Y-41925000D03*
X56925000Y-36925000D03*
X10475000Y-55270000D03*
X1925000Y-81925000D03*
X36925000Y-81925000D03*
X31250000Y-69950000D03*
X91925000Y-81925000D03*
X91925000Y-6925000D03*
X86925000Y-96925000D03*
X41925000Y-16925000D03*
X26925000Y-46925000D03*
X21925000Y-1925000D03*
X81925000Y-31925000D03*
X76925000Y-16925000D03*
X36925000Y-11925000D03*
X6925000Y-86925000D03*
X51925000Y-16925000D03*
X6925000Y-71925000D03*
X81925000Y-1925000D03*
X41925000Y-6925000D03*
X86925000Y-1925000D03*
X26925000Y-61925000D03*
X56925000Y-76925000D03*
X16925000Y-6925000D03*
X31925000Y-36925000D03*
X91925000Y-76925000D03*
X91925000Y-26925000D03*
X45337500Y-43500000D03*
X86925000Y-31925000D03*
X66925000Y-86925000D03*
X71925000Y-86925000D03*
X36925000Y-86925000D03*
X10475000Y-54000000D03*
X71925000Y-96925000D03*
X21925000Y-51925000D03*
X16925000Y-61925000D03*
X61925000Y-81925000D03*
X46925000Y-76925000D03*
D43*
X44500000Y-28977500D03*
D42*
X41925000Y-71925000D03*
X96925000Y-36925000D03*
X81925000Y-96925000D03*
X31950000Y-68750000D03*
X71925000Y-6925000D03*
X16925000Y-66925000D03*
X1925000Y-41925000D03*
X26925000Y-16925000D03*
X86925000Y-91925000D03*
X61925000Y-36925000D03*
X61925000Y-56925000D03*
X96925000Y-81925000D03*
X20137500Y-58000000D03*
X86925000Y-76925000D03*
X41925000Y-96925000D03*
X81925000Y-6925000D03*
X51925000Y-66925000D03*
X1925000Y-11925000D03*
X31925000Y-86925000D03*
X61925000Y-71925000D03*
X6925000Y-16925000D03*
X56925000Y-56925000D03*
X36925000Y-31925000D03*
X26925000Y-56925000D03*
X14937500Y-42000000D03*
X81925000Y-56925000D03*
X31925000Y-76925000D03*
X76925000Y-21925000D03*
X16925000Y-1925000D03*
X21925000Y-26925000D03*
X71925000Y-46925000D03*
X36925000Y-91925000D03*
X44500000Y-47337500D03*
X61925000Y-31925000D03*
X21925000Y-56925000D03*
X11925000Y-61925000D03*
X42500000Y-47337500D03*
X1925000Y-96925000D03*
X11925000Y-76925000D03*
X81925000Y-36925000D03*
X11925000Y-16925000D03*
X21925000Y-66925000D03*
X16925000Y-86925000D03*
X38662500Y-46500000D03*
X51925000Y-41925000D03*
X46925000Y-81925000D03*
X36925000Y-41925000D03*
X61925000Y-16925000D03*
X66925000Y-66925000D03*
X11925000Y-46925000D03*
X41925000Y-66925000D03*
X71925000Y-56925000D03*
X1925000Y-31925000D03*
X1925000Y-61925000D03*
X6925000Y-26925000D03*
X56925000Y-86925000D03*
X26925000Y-11925000D03*
X46925000Y-46925000D03*
X36925000Y-26925000D03*
X41925000Y-26925000D03*
X38662500Y-42500000D03*
X11925000Y-71925000D03*
X86925000Y-21925000D03*
X42787500Y-56000000D03*
X46925000Y-36925000D03*
X31925000Y-11925000D03*
X86925000Y-86925000D03*
X56925000Y-26925000D03*
X66925000Y-71925000D03*
X16925000Y-91925000D03*
X91925000Y-86925000D03*
X39500000Y-40662500D03*
X1925000Y-76925000D03*
X86925000Y-6925000D03*
X31250000Y-66050000D03*
X71925000Y-26925000D03*
X42787500Y-30000000D03*
X1925000Y-66925000D03*
X51925000Y-1925000D03*
X56925000Y-61925000D03*
X1925000Y-6925000D03*
X96925000Y-21925000D03*
X1925000Y-26925000D03*
X36925000Y-1925000D03*
X41925000Y-36925000D03*
X66925000Y-81925000D03*
X86925000Y-36925000D03*
X16925000Y-11925000D03*
X31925000Y-51925000D03*
X96925000Y-66925000D03*
X86925000Y-81925000D03*
X36925000Y-6925000D03*
X61925000Y-61925000D03*
X86925000Y-16925000D03*
X26925000Y-1925000D03*
X70475000Y-60445000D03*
X91925000Y-11925000D03*
X56925000Y-66925000D03*
X5525000Y-55270000D03*
X76925000Y-1925000D03*
X16925000Y-16925000D03*
X1925000Y-46925000D03*
X11925000Y-36925000D03*
X71925000Y-71925000D03*
X76925000Y-56925000D03*
X71925000Y-16925000D03*
X91925000Y-56925000D03*
X41925000Y-1925000D03*
X91925000Y-41925000D03*
X96925000Y-16925000D03*
X91925000Y-61925000D03*
X96925000Y-61925000D03*
X91925000Y-71925000D03*
X21925000Y-11925000D03*
X51925000Y-31925000D03*
X31925000Y-31925000D03*
X36925000Y-16925000D03*
X51925000Y-81925000D03*
X86925000Y-66925000D03*
X26925000Y-96925000D03*
X46925000Y-41925000D03*
X71925000Y-66925000D03*
X66925000Y-26925000D03*
X96925000Y-41925000D03*
X56925000Y-41925000D03*
X31925000Y-6925000D03*
X51925000Y-96925000D03*
X36925000Y-51925000D03*
X29250000Y-66050000D03*
X30250000Y-69950000D03*
X96925000Y-11925000D03*
X21925000Y-76925000D03*
X21925000Y-46925000D03*
X38662500Y-41500000D03*
X26925000Y-71925000D03*
X61925000Y-66925000D03*
X21925000Y-6925000D03*
X91925000Y-31925000D03*
X1925000Y-56925000D03*
X11925000Y-1925000D03*
X51925000Y-61925000D03*
X91925000Y-91925000D03*
X10475000Y-52730000D03*
X46925000Y-16925000D03*
X61925000Y-41925000D03*
X46925000Y-6925000D03*
X91925000Y-51925000D03*
X16925000Y-51925000D03*
X31925000Y-66925000D03*
X31925000Y-96925000D03*
X40500000Y-47337500D03*
X36925000Y-96925000D03*
X6925000Y-76925000D03*
X26925000Y-51925000D03*
X45337500Y-42500000D03*
X11925000Y-91925000D03*
X91925000Y-1925000D03*
X96925000Y-31925000D03*
X16925000Y-21925000D03*
X91925000Y-66925000D03*
X56925000Y-91925000D03*
X11925000Y-56925000D03*
X16925000Y-41925000D03*
X81925000Y-61925000D03*
X26925000Y-76925000D03*
X26925000Y-6925000D03*
X76925000Y-66925000D03*
X8937500Y-42000000D03*
X51925000Y-71925000D03*
X31925000Y-16925000D03*
X42500000Y-40662500D03*
X61925000Y-1925000D03*
X76925000Y-61925000D03*
X11925000Y-96925000D03*
X43500000Y-40662500D03*
X45337500Y-41500000D03*
X1925000Y-51925000D03*
X66925000Y-61925000D03*
X91925000Y-16925000D03*
X61925000Y-6925000D03*
X31925000Y-61925000D03*
X41925000Y-61925000D03*
D43*
G04 #@! TO.N,3V3*
X13162000Y-57810000D03*
X13162000Y-48221400D03*
G04 #@! TO.N,5V*
X50950400Y-90464600D03*
X40999000Y-57077500D03*
G04 #@! TO.N,I2C_SDA*
X41773700Y-58491400D03*
X39721500Y-71600400D03*
G04 #@! TD*
D44*
G04 #@! TO.N,GND*
X46750000Y-92150000D02*
X46750000Y-93101700D01*
X40500000Y-47337500D02*
X40000000Y-47337500D01*
X38662500Y-45500000D02*
X38662500Y-45000000D01*
X83522700Y-12250000D02*
X82981700Y-12250000D01*
X45337500Y-44500000D02*
X45337500Y-45000000D01*
X38662500Y-46000000D02*
X38662500Y-45500000D01*
X69000000Y-44250000D02*
X69000000Y-44750000D01*
X43000000Y-30212500D02*
X43000000Y-40662500D01*
X30164700Y-44950000D02*
X31137500Y-44950000D01*
X29250000Y-69950000D02*
X28750000Y-69950000D01*
X52248500Y-93101700D02*
X51437500Y-93101700D01*
X50250000Y-92150000D02*
X50250000Y-93101700D01*
X29250000Y-66050000D02*
X29750000Y-66050000D01*
X42500000Y-55712500D02*
X42500000Y-47337500D01*
X66832100Y-58306200D02*
X66832100Y-57582100D01*
X54250000Y-92625800D02*
X54250000Y-93101700D01*
X82981700Y-15750000D02*
X82981700Y-15250000D01*
X28848300Y-9548300D02*
X28848300Y-10000000D01*
X31950000Y-69250000D02*
X31250000Y-69950000D01*
X54250000Y-93101700D02*
X53250000Y-93101700D01*
X30000000Y-10000000D02*
X28848300Y-10000000D01*
X65126300Y-56635000D02*
X64247700Y-55756400D01*
X16612800Y-43675300D02*
X16612800Y-44000000D01*
X29750000Y-69950000D02*
X29250000Y-69950000D01*
X10475000Y-54000000D02*
X5525000Y-54000000D01*
X68250000Y-44250000D02*
X69000000Y-44250000D01*
X77613000Y-10270000D02*
X80928300Y-10270000D01*
X5525000Y-57810000D02*
X12438300Y-64723300D01*
X51437500Y-93101700D02*
X51250000Y-92914200D01*
X65963300Y-59175000D02*
X66832100Y-58306200D01*
X53250000Y-93101700D02*
X52250000Y-93101700D01*
X29750000Y-66050000D02*
X30250000Y-66050000D01*
X52250000Y-78250000D02*
X52000000Y-78000000D01*
X70841300Y-51555000D02*
X70475000Y-51555000D01*
X70475000Y-54095000D02*
X70475000Y-55365000D01*
X13000000Y-66000000D02*
X13000000Y-64723300D01*
X81518300Y-9680000D02*
X80928300Y-10270000D01*
X59433900Y-6180100D02*
X59377700Y-6123900D01*
X43810000Y-28977500D02*
X44500000Y-28977500D01*
X74269600Y-6230400D02*
X75500000Y-5000000D01*
X45337500Y-42500000D02*
X45337500Y-43000000D01*
X16612800Y-45728600D02*
X10881400Y-51460000D01*
X45337500Y-44000000D02*
X45337500Y-44500000D01*
X41500000Y-47337500D02*
X41000000Y-47337500D01*
X28862500Y-44000000D02*
X29214700Y-44000000D01*
X38662500Y-44000000D02*
X38662500Y-43500000D01*
X45337500Y-45000000D02*
X45337500Y-45500000D01*
X28050000Y-66750000D02*
X28332700Y-66467300D01*
X68000000Y-43236500D02*
X68000000Y-42948300D01*
X70475000Y-44202700D02*
X70475000Y-51555000D01*
X43348300Y-9208200D02*
X42851100Y-8711000D01*
X5525000Y-57810000D02*
X5525000Y-56540000D01*
X30750000Y-66050000D02*
X31250000Y-66050000D01*
X43500000Y-47337500D02*
X43000000Y-47337500D01*
X84321400Y-9680000D02*
X82870000Y-9680000D01*
X71798600Y-53177500D02*
X71798600Y-52512300D01*
X31950000Y-68750000D02*
X31950000Y-69250000D01*
X28332700Y-66467300D02*
X28332700Y-66195200D01*
X65525000Y-64475000D02*
X65525000Y-60445000D01*
X70881100Y-54095000D02*
X71798600Y-53177500D01*
X69171700Y-5000000D02*
X70402100Y-6230400D01*
X10475000Y-52730000D02*
X10475000Y-54000000D01*
X31700000Y-68000000D02*
X31950000Y-68250000D01*
X45337500Y-43250000D02*
X67000000Y-43250000D01*
X28604800Y-66195200D02*
X28332700Y-66195200D01*
X38662500Y-42500000D02*
X38662500Y-42000000D01*
X52250000Y-93100200D02*
X52248500Y-93101700D01*
X42000000Y-47337500D02*
X41500000Y-47337500D01*
X45337500Y-43500000D02*
X45337500Y-44000000D01*
X31950000Y-67750000D02*
X31700000Y-68000000D01*
X42787500Y-30000000D02*
X43000000Y-30212500D01*
X14000000Y-9000000D02*
X14331800Y-8668200D01*
X64500000Y-5000000D02*
X69171700Y-5000000D01*
X31950000Y-67250000D02*
X31950000Y-67750000D01*
X30000000Y-10000000D02*
X31151700Y-10000000D01*
X44500000Y-47337500D02*
X44000000Y-47337500D01*
X10475000Y-55270000D02*
X10475000Y-56540000D01*
X28750000Y-66050000D02*
X29250000Y-66050000D01*
X28750000Y-66050000D02*
X28604800Y-66195200D01*
X81955000Y-15750000D02*
X82981700Y-15750000D01*
X68000000Y-42948300D02*
X68698300Y-42948300D01*
X82870000Y-9680000D02*
X81518300Y-9680000D01*
X42000000Y-40662500D02*
X42500000Y-40662500D01*
X84321400Y-9680000D02*
X84321400Y-11451300D01*
X31250000Y-66050000D02*
X31950000Y-66750000D01*
X51250000Y-92150000D02*
X51250000Y-92914200D01*
X71798600Y-52512300D02*
X70841300Y-51555000D01*
X31250000Y-69950000D02*
X30750000Y-69950000D01*
X10475000Y-51460000D02*
X10475000Y-52730000D01*
X70475000Y-60445000D02*
X65525000Y-60445000D01*
X40000000Y-47337500D02*
X39500000Y-47337500D01*
X31950000Y-66750000D02*
X31950000Y-67250000D01*
X43000000Y-40662500D02*
X43500000Y-40662500D01*
X30750000Y-69950000D02*
X30250000Y-69950000D01*
X46432600Y-6123900D02*
X43348300Y-9208200D01*
X45337500Y-43000000D02*
X45337500Y-43250000D01*
X65525000Y-60445000D02*
X65525000Y-59175000D01*
X44500000Y-10000000D02*
X43348300Y-10000000D01*
X32877400Y-66050000D02*
X42787500Y-56139900D01*
X30250000Y-69950000D02*
X29750000Y-69950000D01*
X12438300Y-64723300D02*
X13000000Y-64723300D01*
X65525000Y-59175000D02*
X65963300Y-59175000D01*
X87050000Y-9680000D02*
X84321400Y-9680000D01*
X71795100Y-58218800D02*
X71795100Y-57554200D01*
X51250000Y-92914200D02*
X51062500Y-93101700D01*
X27968200Y-8668200D02*
X28848300Y-9548300D01*
X70838900Y-59175000D02*
X71795100Y-58218800D01*
X42851100Y-8711000D02*
X32440700Y-8711000D01*
X16612800Y-44000000D02*
X28862500Y-44000000D01*
X42500000Y-40662500D02*
X43000000Y-40662500D01*
X38662500Y-46500000D02*
X38662500Y-46000000D01*
X70475000Y-59175000D02*
X70475000Y-60445000D01*
X68000000Y-44000000D02*
X68000000Y-43236500D01*
X38662500Y-45000000D02*
X38662500Y-44500000D01*
X70402100Y-6230400D02*
X74269600Y-6230400D01*
X31250000Y-66050000D02*
X32877400Y-66050000D01*
X81955000Y-17250000D02*
X80928300Y-17250000D01*
X65145900Y-54095000D02*
X65525000Y-54095000D01*
X30000000Y-68000000D02*
X31700000Y-68000000D01*
X39500000Y-40662500D02*
X40000000Y-40662500D01*
X42787500Y-56139900D02*
X42787500Y-56000000D01*
X82870000Y-18320000D02*
X81518300Y-18320000D01*
X65525000Y-56635000D02*
X65126300Y-56635000D01*
X70475000Y-55365000D02*
X70475000Y-56635000D01*
X68000000Y-44000000D02*
X68250000Y-44250000D01*
X5525000Y-56540000D02*
X5525000Y-55270000D01*
X10881400Y-51460000D02*
X10475000Y-51460000D01*
X38662500Y-44500000D02*
X38662500Y-44000000D01*
X87050000Y-18320000D02*
X84355400Y-18320000D01*
X14937500Y-42000000D02*
X8937500Y-42000000D01*
X45337500Y-42000000D02*
X45337500Y-42500000D01*
X65885000Y-56635000D02*
X65525000Y-56635000D01*
X74269600Y-6926600D02*
X77613000Y-10270000D01*
X43348300Y-10000000D02*
X43348300Y-9208200D01*
X42000000Y-44000000D02*
X45337500Y-44000000D01*
X38662500Y-43500000D02*
X38662500Y-43000000D01*
X45337500Y-43250000D02*
X45337500Y-43500000D01*
X64247700Y-55756400D02*
X64247700Y-54993200D01*
X44000000Y-40662500D02*
X44500000Y-40662500D01*
X52250000Y-91198300D02*
X52250000Y-78250000D01*
X81955000Y-12750000D02*
X82981700Y-12750000D01*
X32440700Y-8711000D02*
X31151700Y-10000000D01*
X64247700Y-54993200D02*
X65145900Y-54095000D01*
X29214700Y-44000000D02*
X30164700Y-44950000D01*
X82981700Y-15250000D02*
X83383400Y-14848300D01*
X38662500Y-43000000D02*
X38662500Y-42500000D01*
X17407500Y-55270000D02*
X10475000Y-55270000D01*
X52250000Y-92150000D02*
X52250000Y-91198300D01*
X45337500Y-46500000D02*
X44500000Y-47337500D01*
X69522300Y-43250000D02*
X70475000Y-44202700D01*
X50250000Y-93101700D02*
X46750000Y-93101700D01*
X83559400Y-15750000D02*
X84355400Y-16546000D01*
X70875900Y-56635000D02*
X70475000Y-56635000D01*
X71795100Y-57554200D02*
X70875900Y-56635000D01*
X80928300Y-17730000D02*
X80928300Y-17250000D01*
X41000000Y-47337500D02*
X40500000Y-47337500D01*
X83383400Y-13151700D02*
X82981700Y-12750000D01*
X52000000Y-78000000D02*
X65525000Y-64475000D01*
X67013500Y-43236500D02*
X67000000Y-43250000D01*
X44500000Y-40662500D02*
X45337500Y-41500000D01*
X81955000Y-12250000D02*
X82981700Y-12250000D01*
X43000000Y-47337500D02*
X42500000Y-47337500D01*
X41000000Y-40662500D02*
X41500000Y-40662500D01*
X42500000Y-47337500D02*
X42000000Y-47337500D01*
X81955000Y-15250000D02*
X82981700Y-15250000D01*
X74269600Y-6230400D02*
X74269600Y-6926600D01*
X14937500Y-42000000D02*
X16612800Y-43675300D01*
X54250000Y-92625800D02*
X54250000Y-92150000D01*
X84355400Y-18320000D02*
X82870000Y-18320000D01*
X45337500Y-45500000D02*
X45337500Y-46000000D01*
X52250000Y-93000800D02*
X52250000Y-93100200D01*
X82981700Y-15750000D02*
X83559400Y-15750000D01*
X83383400Y-14848300D02*
X83383400Y-13151700D01*
X52250000Y-93100200D02*
X52250000Y-93101700D01*
X14331800Y-8668200D02*
X27968200Y-8668200D01*
X82981700Y-12250000D02*
X82981700Y-12750000D01*
X31950000Y-68250000D02*
X31950000Y-68750000D01*
X43500000Y-40662500D02*
X44000000Y-40662500D01*
X52250000Y-92150000D02*
X52250000Y-93000800D01*
X41500000Y-40662500D02*
X42000000Y-40662500D01*
X70475000Y-59175000D02*
X70838900Y-59175000D01*
X63319900Y-6180100D02*
X59433900Y-6180100D01*
X59377700Y-6123900D02*
X46432600Y-6123900D01*
X51062500Y-93101700D02*
X50250000Y-93101700D01*
X53250000Y-92150000D02*
X53250000Y-93101700D01*
X68000000Y-43236500D02*
X67013500Y-43236500D01*
X10475000Y-54000000D02*
X10475000Y-55270000D01*
X45337500Y-41500000D02*
X45337500Y-42000000D01*
X28332700Y-66195200D02*
X20137500Y-58000000D01*
X40000000Y-40662500D02*
X40500000Y-40662500D01*
X84321400Y-11451300D02*
X83522700Y-12250000D01*
X84355400Y-16546000D02*
X84355400Y-18320000D01*
X44000000Y-47337500D02*
X43500000Y-47337500D01*
X20137500Y-58000000D02*
X17407500Y-55270000D01*
X68698300Y-42948300D02*
X69000000Y-43250000D01*
X40500000Y-40662500D02*
X41000000Y-40662500D01*
X81955000Y-10750000D02*
X80928300Y-10750000D01*
X38662500Y-42000000D02*
X38662500Y-41500000D01*
X66832100Y-57582100D02*
X65885000Y-56635000D01*
X69000000Y-43250000D02*
X69522300Y-43250000D01*
X64500000Y-5000000D02*
X63319900Y-6180100D01*
X30250000Y-66050000D02*
X30750000Y-66050000D01*
X45337500Y-46000000D02*
X45337500Y-46500000D01*
X80928300Y-10270000D02*
X80928300Y-10750000D01*
X5525000Y-55270000D02*
X5525000Y-54000000D01*
X70475000Y-54095000D02*
X70881100Y-54095000D01*
X42787500Y-56000000D02*
X42500000Y-55712500D01*
X81518300Y-18320000D02*
X80928300Y-17730000D01*
X42787500Y-30000000D02*
X43810000Y-28977500D01*
X16612800Y-44000000D02*
X16612800Y-45728600D01*
X39500000Y-47337500D02*
X38662500Y-46500000D01*
G04 #@! TO.N,3V3*
X10475000Y-57810000D02*
X13162000Y-57810000D01*
X46250000Y-91198300D02*
X39200000Y-84148300D01*
X70132500Y-52825000D02*
X70023600Y-52825000D01*
X52750000Y-92150000D02*
X52750000Y-91198300D01*
X69000000Y-43750000D02*
X69437200Y-43750000D01*
X28050000Y-67250000D02*
X27341100Y-67250000D01*
X12443600Y-48221400D02*
X13162000Y-48221400D01*
X26489900Y-68101200D02*
X26489900Y-69763100D01*
X70475000Y-52825000D02*
X70132500Y-52825000D01*
X50750000Y-91299100D02*
X50649200Y-91198300D01*
X48972100Y-67343500D02*
X42233800Y-74081800D01*
X20050000Y-59500000D02*
X12165000Y-59500000D01*
X70132500Y-52825000D02*
X70015800Y-52825000D01*
X69658200Y-44966200D02*
X69402000Y-45222400D01*
X67475800Y-55365000D02*
X70015800Y-57905000D01*
X67952100Y-54888700D02*
X67475800Y-55365000D01*
X63423500Y-53460000D02*
X63021800Y-53861700D01*
X39200000Y-74081800D02*
X39200000Y-78000000D01*
X64800000Y-78000000D02*
X64800000Y-80851700D01*
X12165000Y-59500000D02*
X10475000Y-57810000D01*
X50750000Y-92150000D02*
X50750000Y-91299100D01*
X53750000Y-92150000D02*
X53750000Y-91198300D01*
X27341100Y-67250000D02*
X26489900Y-68101200D01*
X46250000Y-91200000D02*
X46250000Y-91199800D01*
X46250000Y-91399200D02*
X46250000Y-91200000D01*
X66523300Y-53460000D02*
X63423500Y-53460000D01*
X10475000Y-50190000D02*
X12443600Y-48221400D01*
X69160500Y-51961900D02*
X69160500Y-45222400D01*
X70023600Y-52825000D02*
X69160500Y-51961900D01*
X46250000Y-91199800D02*
X46250000Y-91198300D01*
X67472400Y-45222400D02*
X67000000Y-44750000D01*
X69160500Y-45222400D02*
X67472400Y-45222400D01*
X70015800Y-52825000D02*
X67952100Y-54888700D01*
X63021800Y-53861700D02*
X62456000Y-53861700D01*
X48974200Y-67343500D02*
X48972100Y-67343500D01*
X46250000Y-92150000D02*
X46250000Y-91399200D01*
X53750000Y-91198300D02*
X52750000Y-91198300D01*
X67475800Y-55365000D02*
X65525000Y-55365000D01*
X53750000Y-91198300D02*
X54453400Y-91198300D01*
X30808600Y-74081800D02*
X39200000Y-74081800D01*
X67952100Y-54888700D02*
X66523300Y-53460000D01*
X69658200Y-43971000D02*
X69658200Y-44966200D01*
X50649200Y-91198300D02*
X46250000Y-91198300D01*
X69402000Y-45222400D02*
X69160500Y-45222400D01*
X42233800Y-74081800D02*
X39200000Y-74081800D01*
X39200000Y-84148300D02*
X39200000Y-78000000D01*
X70015800Y-57905000D02*
X70475000Y-57905000D01*
X27341100Y-67250000D02*
X20050000Y-59958900D01*
X69437200Y-43750000D02*
X69658200Y-43971000D01*
X54453400Y-91198300D02*
X64800000Y-80851700D01*
X20050000Y-59958900D02*
X20050000Y-59500000D01*
X26489900Y-69763100D02*
X30808600Y-74081800D01*
X62456000Y-53861700D02*
X48974200Y-67343500D01*
G04 #@! TO.N,5V*
X43951700Y-11951700D02*
X39500000Y-16403400D01*
X28862500Y-55873000D02*
X39794500Y-55873000D01*
X20050000Y-56500000D02*
X20677000Y-55873000D01*
X32120700Y-43050000D02*
X31137500Y-43050000D01*
X80928300Y-11550000D02*
X80526600Y-11951700D01*
X50950400Y-90464600D02*
X51684100Y-91198300D01*
X80526600Y-16048300D02*
X80928300Y-16450000D01*
X39500000Y-35670700D02*
X32120700Y-43050000D01*
X80526600Y-11951700D02*
X80526600Y-16048300D01*
X39794500Y-55873000D02*
X40999000Y-57077500D01*
X39500000Y-16403400D02*
X39500000Y-35670700D01*
X81955000Y-11550000D02*
X80928300Y-11550000D01*
X43951700Y-11951700D02*
X42000000Y-10000000D01*
X32120700Y-45327200D02*
X31888900Y-45559000D01*
X28862500Y-44950000D02*
X28862500Y-55873000D01*
X51684100Y-91198300D02*
X51750000Y-91198300D01*
X80526600Y-11951700D02*
X43951700Y-11951700D01*
X20677000Y-55873000D02*
X28862500Y-55873000D01*
X29471500Y-45559000D02*
X28862500Y-44950000D01*
X32120700Y-43050000D02*
X32120700Y-45327200D01*
X81955000Y-16450000D02*
X80928300Y-16450000D01*
X31888900Y-45559000D02*
X29471500Y-45559000D01*
X51750000Y-92150000D02*
X51750000Y-91198300D01*
G04 #@! TO.N,12V*
X30475000Y-44000000D02*
X31137500Y-44000000D01*
X29525000Y-43050000D02*
X30475000Y-44000000D01*
X14000000Y-28187500D02*
X28862500Y-43050000D01*
X14000000Y-14000000D02*
X14000000Y-28187500D01*
X28862500Y-43050000D02*
X29525000Y-43050000D01*
G04 #@! TO.N,USB_D+*
X80928300Y-13250000D02*
X80928300Y-14250000D01*
X81955000Y-14250000D02*
X80928300Y-14250000D01*
X81955000Y-13250000D02*
X80928300Y-13250000D01*
G04 #@! TO.N,USB_D-*
X82756700Y-14750000D02*
X81955000Y-14750000D01*
X82981700Y-14525000D02*
X82756700Y-14750000D01*
X81955000Y-13750000D02*
X82981700Y-13750000D01*
X82981700Y-13750000D02*
X82981700Y-14525000D01*
G04 #@! TO.N,I2C_SDA*
X65525000Y-44706200D02*
X65525000Y-51555000D01*
X67000000Y-43750000D02*
X66481200Y-43750000D01*
X65525000Y-51555000D02*
X48710100Y-51555000D01*
X26891600Y-68345800D02*
X26891600Y-69596800D01*
X26891600Y-69596800D02*
X28895200Y-71600400D01*
X28050000Y-67750000D02*
X27487400Y-67750000D01*
X66481200Y-43750000D02*
X65525000Y-44706200D01*
X28895200Y-71600400D02*
X39721500Y-71600400D01*
X27487400Y-67750000D02*
X26891600Y-68345800D01*
X48710100Y-51555000D02*
X41773700Y-58491400D01*
G04 #@! TO.N,I2C_SCL*
X65525000Y-52825000D02*
X65903400Y-52825000D01*
X66551300Y-44250000D02*
X67000000Y-44250000D01*
X66806500Y-51921900D02*
X66806500Y-50487000D01*
X27614200Y-68250000D02*
X28050000Y-68250000D01*
X65903400Y-52825000D02*
X66806500Y-51921900D01*
X66347900Y-44453400D02*
X66551300Y-44250000D01*
X27339600Y-69463200D02*
X27339600Y-68524600D01*
X27339600Y-68524600D02*
X27614200Y-68250000D01*
X31823400Y-70699700D02*
X28576100Y-70699700D01*
X65525000Y-52825000D02*
X49698100Y-52825000D01*
X28576100Y-70699700D02*
X27339600Y-69463200D01*
X66806500Y-50487000D02*
X66347900Y-50028400D01*
X49698100Y-52825000D02*
X31823400Y-70699700D01*
X66347900Y-50028400D02*
X66347900Y-44453400D01*
G04 #@! TO.N,BLUE_TX_OUT*
X4192100Y-43920400D02*
X7062500Y-41050000D01*
X4192100Y-50533400D02*
X4192100Y-43920400D01*
X5525000Y-51460000D02*
X5118700Y-51460000D01*
X5118700Y-51460000D02*
X4192100Y-50533400D01*
G04 #@! TO.N,BLUE_TX_H*
X4542300Y-52095000D02*
X4194800Y-52442500D01*
X6508900Y-52095000D02*
X4542300Y-52095000D01*
X4194800Y-52442500D02*
X4194800Y-62194800D01*
X7062500Y-42950000D02*
X7062500Y-51541400D01*
X4194800Y-62194800D02*
X8000000Y-66000000D01*
X7062500Y-51541400D02*
X6508900Y-52095000D01*
G04 #@! TD*
M02*
