G04 #@! TF.GenerationSoftware,KiCad,Pcbnew,9.0.2+dfsg-1*
G04 #@! TF.CreationDate,2026-06-02T13:19:59-04:00*
G04 #@! TF.ProjectId,Afterburner-Modern,41667465-7262-4757-926e-65722d4d6f64,1.0*
G04 #@! TF.SameCoordinates,Original*
G04 #@! TF.FileFunction,Legend,Top*
G04 #@! TF.FilePolarity,Positive*
%FSLAX46Y46*%
G04 Gerber Fmt 4.6, Leading zero omitted, Abs format (unit mm)*
G04 Created by KiCad (PCBNEW 9.0.2+dfsg-1) date 2026-06-02 13:19:59*
%MOMM*%
%LPD*%
G01*
G04 APERTURE LIST*
G04 Aperture macros list*
%AMRoundRect*
0 Rectangle with rounded corners*
0 $1 Rounding radius*
0 $2 $3 $4 $5 $6 $7 $8 $9 X,Y pos of 4 corners*
0 Add a 4 corners polygon primitive as box body*
4,1,4,$2,$3,$4,$5,$6,$7,$8,$9,$2,$3,0*
0 Add four circle primitives for the rounded corners*
1,1,$1+$1,$2,$3*
1,1,$1+$1,$4,$5*
1,1,$1+$1,$6,$7*
1,1,$1+$1,$8,$9*
0 Add four rect primitives between the rounded corners*
20,1,$1+$1,$2,$3,$4,$5,0*
20,1,$1+$1,$4,$5,$6,$7,0*
20,1,$1+$1,$6,$7,$8,$9,0*
20,1,$1+$1,$8,$9,$2,$3,0*%
%AMFreePoly0*
4,1,9,3.862500,-0.866500,0.737500,-0.866500,0.737500,-0.450000,-0.737500,-0.450000,-0.737500,0.450000,0.737500,0.450000,0.737500,0.866500,3.862500,0.866500,3.862500,-0.866500,3.862500,-0.866500,$1*%
G04 Aperture macros list end*
%ADD10C,0.150000*%
%ADD11C,0.120000*%
%ADD12C,3.200000*%
%ADD13RoundRect,0.135000X-0.135000X-0.185000X0.135000X-0.185000X0.135000X0.185000X-0.135000X0.185000X0*%
%ADD14RoundRect,0.140000X-0.140000X-0.170000X0.140000X-0.170000X0.140000X0.170000X-0.140000X0.170000X0*%
%ADD15C,2.100000*%
%ADD16C,1.750000*%
%ADD17RoundRect,0.250000X-0.600000X-0.725000X0.600000X-0.725000X0.600000X0.725000X-0.600000X0.725000X0*%
%ADD18O,1.700000X1.950000*%
%ADD19RoundRect,0.062500X-0.475000X-0.062500X0.475000X-0.062500X0.475000X0.062500X-0.475000X0.062500X0*%
%ADD20RoundRect,0.062500X-0.062500X-0.475000X0.062500X-0.475000X0.062500X0.475000X-0.062500X0.475000X0*%
%ADD21R,5.200000X5.200000*%
%ADD22RoundRect,0.150000X-0.587500X-0.150000X0.587500X-0.150000X0.587500X0.150000X-0.587500X0.150000X0*%
%ADD23RoundRect,0.150000X-0.512500X-0.150000X0.512500X-0.150000X0.512500X0.150000X-0.512500X0.150000X0*%
%ADD24RoundRect,0.218750X-0.218750X-0.256250X0.218750X-0.256250X0.218750X0.256250X-0.218750X0.256250X0*%
%ADD25RoundRect,0.150000X-0.825000X-0.150000X0.825000X-0.150000X0.825000X0.150000X-0.825000X0.150000X0*%
%ADD26RoundRect,0.225000X-0.425000X-0.225000X0.425000X-0.225000X0.425000X0.225000X-0.425000X0.225000X0*%
%ADD27FreePoly0,0.000000*%
%ADD28RoundRect,0.062500X-0.337500X-0.062500X0.337500X-0.062500X0.337500X0.062500X-0.337500X0.062500X0*%
%ADD29RoundRect,0.062500X-0.062500X-0.337500X0.062500X-0.337500X0.062500X0.337500X-0.062500X0.337500X0*%
%ADD30R,2.500000X2.500000*%
%ADD31RoundRect,0.062500X-0.287500X-0.062500X0.287500X-0.062500X0.287500X0.062500X-0.287500X0.062500X0*%
%ADD32R,0.900000X1.500000*%
%ADD33R,5.100000X5.100000*%
%ADD34C,17.800000*%
%ADD35R,0.300000X1.300000*%
%ADD36R,1.800000X2.200000*%
%ADD37RoundRect,0.250000X-0.600000X-0.600000X0.600000X-0.600000X0.600000X0.600000X-0.600000X0.600000X0*%
%ADD38C,1.700000*%
%ADD39RoundRect,0.250001X1.149999X-1.149999X1.149999X1.149999X-1.149999X1.149999X-1.149999X-1.149999X0*%
%ADD40C,2.800000*%
%ADD41C,0.650000*%
%ADD42R,1.450000X0.600000*%
%ADD43R,1.450000X0.300000*%
%ADD44O,2.100000X1.000000*%
%ADD45O,1.600000X1.000000*%
G04 APERTURE END LIST*
D10*
X3666667Y-1304819D02*
X3666667Y-304819D01*
X3666667Y-304819D02*
X4000000Y-1019104D01*
X4000000Y-1019104D02*
X4333333Y-304819D01*
X4333333Y-304819D02*
X4333333Y-1304819D01*
X4809524Y-1304819D02*
X4809524Y-304819D01*
X4809524Y-781009D02*
X5380952Y-781009D01*
X5380952Y-1304819D02*
X5380952Y-304819D01*
X6380952Y-1304819D02*
X5809524Y-1304819D01*
X6095238Y-1304819D02*
X6095238Y-304819D01*
X6095238Y-304819D02*
X6000000Y-447676D01*
X6000000Y-447676D02*
X5904762Y-542914D01*
X5904762Y-542914D02*
X5809524Y-590533D01*
X40833333Y-21284819D02*
X40500000Y-20808628D01*
X40261905Y-21284819D02*
X40261905Y-20284819D01*
X40261905Y-20284819D02*
X40642857Y-20284819D01*
X40642857Y-20284819D02*
X40738095Y-20332438D01*
X40738095Y-20332438D02*
X40785714Y-20380057D01*
X40785714Y-20380057D02*
X40833333Y-20475295D01*
X40833333Y-20475295D02*
X40833333Y-20618152D01*
X40833333Y-20618152D02*
X40785714Y-20713390D01*
X40785714Y-20713390D02*
X40738095Y-20761009D01*
X40738095Y-20761009D02*
X40642857Y-20808628D01*
X40642857Y-20808628D02*
X40261905Y-20808628D01*
X41404762Y-20713390D02*
X41309524Y-20665771D01*
X41309524Y-20665771D02*
X41261905Y-20618152D01*
X41261905Y-20618152D02*
X41214286Y-20522914D01*
X41214286Y-20522914D02*
X41214286Y-20475295D01*
X41214286Y-20475295D02*
X41261905Y-20380057D01*
X41261905Y-20380057D02*
X41309524Y-20332438D01*
X41309524Y-20332438D02*
X41404762Y-20284819D01*
X41404762Y-20284819D02*
X41595238Y-20284819D01*
X41595238Y-20284819D02*
X41690476Y-20332438D01*
X41690476Y-20332438D02*
X41738095Y-20380057D01*
X41738095Y-20380057D02*
X41785714Y-20475295D01*
X41785714Y-20475295D02*
X41785714Y-20522914D01*
X41785714Y-20522914D02*
X41738095Y-20618152D01*
X41738095Y-20618152D02*
X41690476Y-20665771D01*
X41690476Y-20665771D02*
X41595238Y-20713390D01*
X41595238Y-20713390D02*
X41404762Y-20713390D01*
X41404762Y-20713390D02*
X41309524Y-20761009D01*
X41309524Y-20761009D02*
X41261905Y-20808628D01*
X41261905Y-20808628D02*
X41214286Y-20903866D01*
X41214286Y-20903866D02*
X41214286Y-21094342D01*
X41214286Y-21094342D02*
X41261905Y-21189580D01*
X41261905Y-21189580D02*
X41309524Y-21237200D01*
X41309524Y-21237200D02*
X41404762Y-21284819D01*
X41404762Y-21284819D02*
X41595238Y-21284819D01*
X41595238Y-21284819D02*
X41690476Y-21237200D01*
X41690476Y-21237200D02*
X41738095Y-21189580D01*
X41738095Y-21189580D02*
X41785714Y-21094342D01*
X41785714Y-21094342D02*
X41785714Y-20903866D01*
X41785714Y-20903866D02*
X41738095Y-20808628D01*
X41738095Y-20808628D02*
X41690476Y-20761009D01*
X41690476Y-20761009D02*
X41595238Y-20713390D01*
X72833333Y-21199580D02*
X72785714Y-21247200D01*
X72785714Y-21247200D02*
X72642857Y-21294819D01*
X72642857Y-21294819D02*
X72547619Y-21294819D01*
X72547619Y-21294819D02*
X72404762Y-21247200D01*
X72404762Y-21247200D02*
X72309524Y-21151961D01*
X72309524Y-21151961D02*
X72261905Y-21056723D01*
X72261905Y-21056723D02*
X72214286Y-20866247D01*
X72214286Y-20866247D02*
X72214286Y-20723390D01*
X72214286Y-20723390D02*
X72261905Y-20532914D01*
X72261905Y-20532914D02*
X72309524Y-20437676D01*
X72309524Y-20437676D02*
X72404762Y-20342438D01*
X72404762Y-20342438D02*
X72547619Y-20294819D01*
X72547619Y-20294819D02*
X72642857Y-20294819D01*
X72642857Y-20294819D02*
X72785714Y-20342438D01*
X72785714Y-20342438D02*
X72833333Y-20390057D01*
X73404762Y-20723390D02*
X73309524Y-20675771D01*
X73309524Y-20675771D02*
X73261905Y-20628152D01*
X73261905Y-20628152D02*
X73214286Y-20532914D01*
X73214286Y-20532914D02*
X73214286Y-20485295D01*
X73214286Y-20485295D02*
X73261905Y-20390057D01*
X73261905Y-20390057D02*
X73309524Y-20342438D01*
X73309524Y-20342438D02*
X73404762Y-20294819D01*
X73404762Y-20294819D02*
X73595238Y-20294819D01*
X73595238Y-20294819D02*
X73690476Y-20342438D01*
X73690476Y-20342438D02*
X73738095Y-20390057D01*
X73738095Y-20390057D02*
X73785714Y-20485295D01*
X73785714Y-20485295D02*
X73785714Y-20532914D01*
X73785714Y-20532914D02*
X73738095Y-20628152D01*
X73738095Y-20628152D02*
X73690476Y-20675771D01*
X73690476Y-20675771D02*
X73595238Y-20723390D01*
X73595238Y-20723390D02*
X73404762Y-20723390D01*
X73404762Y-20723390D02*
X73309524Y-20771009D01*
X73309524Y-20771009D02*
X73261905Y-20818628D01*
X73261905Y-20818628D02*
X73214286Y-20913866D01*
X73214286Y-20913866D02*
X73214286Y-21104342D01*
X73214286Y-21104342D02*
X73261905Y-21199580D01*
X73261905Y-21199580D02*
X73309524Y-21247200D01*
X73309524Y-21247200D02*
X73404762Y-21294819D01*
X73404762Y-21294819D02*
X73595238Y-21294819D01*
X73595238Y-21294819D02*
X73690476Y-21247200D01*
X73690476Y-21247200D02*
X73738095Y-21199580D01*
X73738095Y-21199580D02*
X73785714Y-21104342D01*
X73785714Y-21104342D02*
X73785714Y-20913866D01*
X73785714Y-20913866D02*
X73738095Y-20818628D01*
X73738095Y-20818628D02*
X73690476Y-20771009D01*
X73690476Y-20771009D02*
X73595238Y-20723390D01*
X43833333Y-21284819D02*
X43500000Y-20808628D01*
X43261905Y-21284819D02*
X43261905Y-20284819D01*
X43261905Y-20284819D02*
X43642857Y-20284819D01*
X43642857Y-20284819D02*
X43738095Y-20332438D01*
X43738095Y-20332438D02*
X43785714Y-20380057D01*
X43785714Y-20380057D02*
X43833333Y-20475295D01*
X43833333Y-20475295D02*
X43833333Y-20618152D01*
X43833333Y-20618152D02*
X43785714Y-20713390D01*
X43785714Y-20713390D02*
X43738095Y-20761009D01*
X43738095Y-20761009D02*
X43642857Y-20808628D01*
X43642857Y-20808628D02*
X43261905Y-20808628D01*
X44309524Y-21284819D02*
X44500000Y-21284819D01*
X44500000Y-21284819D02*
X44595238Y-21237200D01*
X44595238Y-21237200D02*
X44642857Y-21189580D01*
X44642857Y-21189580D02*
X44738095Y-21046723D01*
X44738095Y-21046723D02*
X44785714Y-20856247D01*
X44785714Y-20856247D02*
X44785714Y-20475295D01*
X44785714Y-20475295D02*
X44738095Y-20380057D01*
X44738095Y-20380057D02*
X44690476Y-20332438D01*
X44690476Y-20332438D02*
X44595238Y-20284819D01*
X44595238Y-20284819D02*
X44404762Y-20284819D01*
X44404762Y-20284819D02*
X44309524Y-20332438D01*
X44309524Y-20332438D02*
X44261905Y-20380057D01*
X44261905Y-20380057D02*
X44214286Y-20475295D01*
X44214286Y-20475295D02*
X44214286Y-20713390D01*
X44214286Y-20713390D02*
X44261905Y-20808628D01*
X44261905Y-20808628D02*
X44309524Y-20856247D01*
X44309524Y-20856247D02*
X44404762Y-20903866D01*
X44404762Y-20903866D02*
X44595238Y-20903866D01*
X44595238Y-20903866D02*
X44690476Y-20856247D01*
X44690476Y-20856247D02*
X44738095Y-20808628D01*
X44738095Y-20808628D02*
X44785714Y-20713390D01*
X71916667Y-7087200D02*
X72059524Y-7134819D01*
X72059524Y-7134819D02*
X72297619Y-7134819D01*
X72297619Y-7134819D02*
X72392857Y-7087200D01*
X72392857Y-7087200D02*
X72440476Y-7039580D01*
X72440476Y-7039580D02*
X72488095Y-6944342D01*
X72488095Y-6944342D02*
X72488095Y-6849104D01*
X72488095Y-6849104D02*
X72440476Y-6753866D01*
X72440476Y-6753866D02*
X72392857Y-6706247D01*
X72392857Y-6706247D02*
X72297619Y-6658628D01*
X72297619Y-6658628D02*
X72107143Y-6611009D01*
X72107143Y-6611009D02*
X72011905Y-6563390D01*
X72011905Y-6563390D02*
X71964286Y-6515771D01*
X71964286Y-6515771D02*
X71916667Y-6420533D01*
X71916667Y-6420533D02*
X71916667Y-6325295D01*
X71916667Y-6325295D02*
X71964286Y-6230057D01*
X71964286Y-6230057D02*
X72011905Y-6182438D01*
X72011905Y-6182438D02*
X72107143Y-6134819D01*
X72107143Y-6134819D02*
X72345238Y-6134819D01*
X72345238Y-6134819D02*
X72488095Y-6182438D01*
X72821429Y-6134819D02*
X73059524Y-7134819D01*
X73059524Y-7134819D02*
X73250000Y-6420533D01*
X73250000Y-6420533D02*
X73440476Y-7134819D01*
X73440476Y-7134819D02*
X73678572Y-6134819D01*
X74011905Y-6230057D02*
X74059524Y-6182438D01*
X74059524Y-6182438D02*
X74154762Y-6134819D01*
X74154762Y-6134819D02*
X74392857Y-6134819D01*
X74392857Y-6134819D02*
X74488095Y-6182438D01*
X74488095Y-6182438D02*
X74535714Y-6230057D01*
X74535714Y-6230057D02*
X74583333Y-6325295D01*
X74583333Y-6325295D02*
X74583333Y-6420533D01*
X74583333Y-6420533D02*
X74535714Y-6563390D01*
X74535714Y-6563390D02*
X73964286Y-7134819D01*
X73964286Y-7134819D02*
X74583333Y-7134819D01*
X27166666Y-5904819D02*
X27166666Y-6619104D01*
X27166666Y-6619104D02*
X27119047Y-6761961D01*
X27119047Y-6761961D02*
X27023809Y-6857200D01*
X27023809Y-6857200D02*
X26880952Y-6904819D01*
X26880952Y-6904819D02*
X26785714Y-6904819D01*
X28071428Y-6238152D02*
X28071428Y-6904819D01*
X27833333Y-5857200D02*
X27595238Y-6571485D01*
X27595238Y-6571485D02*
X28214285Y-6571485D01*
X3666667Y-91304819D02*
X3666667Y-90304819D01*
X3666667Y-90304819D02*
X4000000Y-91019104D01*
X4000000Y-91019104D02*
X4333333Y-90304819D01*
X4333333Y-90304819D02*
X4333333Y-91304819D01*
X4809524Y-91304819D02*
X4809524Y-90304819D01*
X4809524Y-90781009D02*
X5380952Y-90781009D01*
X5380952Y-91304819D02*
X5380952Y-90304819D01*
X5761905Y-90304819D02*
X6380952Y-90304819D01*
X6380952Y-90304819D02*
X6047619Y-90685771D01*
X6047619Y-90685771D02*
X6190476Y-90685771D01*
X6190476Y-90685771D02*
X6285714Y-90733390D01*
X6285714Y-90733390D02*
X6333333Y-90781009D01*
X6333333Y-90781009D02*
X6380952Y-90876247D01*
X6380952Y-90876247D02*
X6380952Y-91114342D01*
X6380952Y-91114342D02*
X6333333Y-91209580D01*
X6333333Y-91209580D02*
X6285714Y-91257200D01*
X6285714Y-91257200D02*
X6190476Y-91304819D01*
X6190476Y-91304819D02*
X5904762Y-91304819D01*
X5904762Y-91304819D02*
X5809524Y-91257200D01*
X5809524Y-91257200D02*
X5761905Y-91209580D01*
X41238095Y-38624819D02*
X41238095Y-39434342D01*
X41238095Y-39434342D02*
X41285714Y-39529580D01*
X41285714Y-39529580D02*
X41333333Y-39577200D01*
X41333333Y-39577200D02*
X41428571Y-39624819D01*
X41428571Y-39624819D02*
X41619047Y-39624819D01*
X41619047Y-39624819D02*
X41714285Y-39577200D01*
X41714285Y-39577200D02*
X41761904Y-39529580D01*
X41761904Y-39529580D02*
X41809523Y-39434342D01*
X41809523Y-39434342D02*
X41809523Y-38624819D01*
X42809523Y-39624819D02*
X42238095Y-39624819D01*
X42523809Y-39624819D02*
X42523809Y-38624819D01*
X42523809Y-38624819D02*
X42428571Y-38767676D01*
X42428571Y-38767676D02*
X42333333Y-38862914D01*
X42333333Y-38862914D02*
X42238095Y-38910533D01*
X69833333Y-21199580D02*
X69785714Y-21247200D01*
X69785714Y-21247200D02*
X69642857Y-21294819D01*
X69642857Y-21294819D02*
X69547619Y-21294819D01*
X69547619Y-21294819D02*
X69404762Y-21247200D01*
X69404762Y-21247200D02*
X69309524Y-21151961D01*
X69309524Y-21151961D02*
X69261905Y-21056723D01*
X69261905Y-21056723D02*
X69214286Y-20866247D01*
X69214286Y-20866247D02*
X69214286Y-20723390D01*
X69214286Y-20723390D02*
X69261905Y-20532914D01*
X69261905Y-20532914D02*
X69309524Y-20437676D01*
X69309524Y-20437676D02*
X69404762Y-20342438D01*
X69404762Y-20342438D02*
X69547619Y-20294819D01*
X69547619Y-20294819D02*
X69642857Y-20294819D01*
X69642857Y-20294819D02*
X69785714Y-20342438D01*
X69785714Y-20342438D02*
X69833333Y-20390057D01*
X70166667Y-20294819D02*
X70833333Y-20294819D01*
X70833333Y-20294819D02*
X70404762Y-21294819D01*
X10166666Y-61904819D02*
X10166666Y-62619104D01*
X10166666Y-62619104D02*
X10119047Y-62761961D01*
X10119047Y-62761961D02*
X10023809Y-62857200D01*
X10023809Y-62857200D02*
X9880952Y-62904819D01*
X9880952Y-62904819D02*
X9785714Y-62904819D01*
X10547619Y-61904819D02*
X11166666Y-61904819D01*
X11166666Y-61904819D02*
X10833333Y-62285771D01*
X10833333Y-62285771D02*
X10976190Y-62285771D01*
X10976190Y-62285771D02*
X11071428Y-62333390D01*
X11071428Y-62333390D02*
X11119047Y-62381009D01*
X11119047Y-62381009D02*
X11166666Y-62476247D01*
X11166666Y-62476247D02*
X11166666Y-62714342D01*
X11166666Y-62714342D02*
X11119047Y-62809580D01*
X11119047Y-62809580D02*
X11071428Y-62857200D01*
X11071428Y-62857200D02*
X10976190Y-62904819D01*
X10976190Y-62904819D02*
X10690476Y-62904819D01*
X10690476Y-62904819D02*
X10595238Y-62857200D01*
X10595238Y-62857200D02*
X10547619Y-62809580D01*
X93666667Y-1304819D02*
X93666667Y-304819D01*
X93666667Y-304819D02*
X94000000Y-1019104D01*
X94000000Y-1019104D02*
X94333333Y-304819D01*
X94333333Y-304819D02*
X94333333Y-1304819D01*
X94809524Y-1304819D02*
X94809524Y-304819D01*
X94809524Y-781009D02*
X95380952Y-781009D01*
X95380952Y-1304819D02*
X95380952Y-304819D01*
X95809524Y-400057D02*
X95857143Y-352438D01*
X95857143Y-352438D02*
X95952381Y-304819D01*
X95952381Y-304819D02*
X96190476Y-304819D01*
X96190476Y-304819D02*
X96285714Y-352438D01*
X96285714Y-352438D02*
X96333333Y-400057D01*
X96333333Y-400057D02*
X96380952Y-495295D01*
X96380952Y-495295D02*
X96380952Y-590533D01*
X96380952Y-590533D02*
X96333333Y-733390D01*
X96333333Y-733390D02*
X95761905Y-1304819D01*
X95761905Y-1304819D02*
X96380952Y-1304819D01*
X6380952Y-39054819D02*
X6380952Y-39864342D01*
X6380952Y-39864342D02*
X6428571Y-39959580D01*
X6428571Y-39959580D02*
X6476190Y-40007200D01*
X6476190Y-40007200D02*
X6571428Y-40054819D01*
X6571428Y-40054819D02*
X6761904Y-40054819D01*
X6761904Y-40054819D02*
X6857142Y-40007200D01*
X6857142Y-40007200D02*
X6904761Y-39959580D01*
X6904761Y-39959580D02*
X6952380Y-39864342D01*
X6952380Y-39864342D02*
X6952380Y-39054819D01*
X7571428Y-39483390D02*
X7476190Y-39435771D01*
X7476190Y-39435771D02*
X7428571Y-39388152D01*
X7428571Y-39388152D02*
X7380952Y-39292914D01*
X7380952Y-39292914D02*
X7380952Y-39245295D01*
X7380952Y-39245295D02*
X7428571Y-39150057D01*
X7428571Y-39150057D02*
X7476190Y-39102438D01*
X7476190Y-39102438D02*
X7571428Y-39054819D01*
X7571428Y-39054819D02*
X7761904Y-39054819D01*
X7761904Y-39054819D02*
X7857142Y-39102438D01*
X7857142Y-39102438D02*
X7904761Y-39150057D01*
X7904761Y-39150057D02*
X7952380Y-39245295D01*
X7952380Y-39245295D02*
X7952380Y-39292914D01*
X7952380Y-39292914D02*
X7904761Y-39388152D01*
X7904761Y-39388152D02*
X7857142Y-39435771D01*
X7857142Y-39435771D02*
X7761904Y-39483390D01*
X7761904Y-39483390D02*
X7571428Y-39483390D01*
X7571428Y-39483390D02*
X7476190Y-39531009D01*
X7476190Y-39531009D02*
X7428571Y-39578628D01*
X7428571Y-39578628D02*
X7380952Y-39673866D01*
X7380952Y-39673866D02*
X7380952Y-39864342D01*
X7380952Y-39864342D02*
X7428571Y-39959580D01*
X7428571Y-39959580D02*
X7476190Y-40007200D01*
X7476190Y-40007200D02*
X7571428Y-40054819D01*
X7571428Y-40054819D02*
X7761904Y-40054819D01*
X7761904Y-40054819D02*
X7857142Y-40007200D01*
X7857142Y-40007200D02*
X7904761Y-39959580D01*
X7904761Y-39959580D02*
X7952380Y-39864342D01*
X7952380Y-39864342D02*
X7952380Y-39673866D01*
X7952380Y-39673866D02*
X7904761Y-39578628D01*
X7904761Y-39578628D02*
X7857142Y-39531009D01*
X7857142Y-39531009D02*
X7761904Y-39483390D01*
X8142857Y-40150057D02*
X8904761Y-40150057D01*
X9666666Y-40054819D02*
X9095238Y-40054819D01*
X9380952Y-40054819D02*
X9380952Y-39054819D01*
X9380952Y-39054819D02*
X9285714Y-39197676D01*
X9285714Y-39197676D02*
X9190476Y-39292914D01*
X9190476Y-39292914D02*
X9095238Y-39340533D01*
X29238095Y-41054819D02*
X29238095Y-41864342D01*
X29238095Y-41864342D02*
X29285714Y-41959580D01*
X29285714Y-41959580D02*
X29333333Y-42007200D01*
X29333333Y-42007200D02*
X29428571Y-42054819D01*
X29428571Y-42054819D02*
X29619047Y-42054819D01*
X29619047Y-42054819D02*
X29714285Y-42007200D01*
X29714285Y-42007200D02*
X29761904Y-41959580D01*
X29761904Y-41959580D02*
X29809523Y-41864342D01*
X29809523Y-41864342D02*
X29809523Y-41054819D01*
X30238095Y-41150057D02*
X30285714Y-41102438D01*
X30285714Y-41102438D02*
X30380952Y-41054819D01*
X30380952Y-41054819D02*
X30619047Y-41054819D01*
X30619047Y-41054819D02*
X30714285Y-41102438D01*
X30714285Y-41102438D02*
X30761904Y-41150057D01*
X30761904Y-41150057D02*
X30809523Y-41245295D01*
X30809523Y-41245295D02*
X30809523Y-41340533D01*
X30809523Y-41340533D02*
X30761904Y-41483390D01*
X30761904Y-41483390D02*
X30190476Y-42054819D01*
X30190476Y-42054819D02*
X30809523Y-42054819D01*
X41261905Y-55024819D02*
X41261905Y-54024819D01*
X41261905Y-54024819D02*
X41500000Y-54024819D01*
X41500000Y-54024819D02*
X41642857Y-54072438D01*
X41642857Y-54072438D02*
X41738095Y-54167676D01*
X41738095Y-54167676D02*
X41785714Y-54262914D01*
X41785714Y-54262914D02*
X41833333Y-54453390D01*
X41833333Y-54453390D02*
X41833333Y-54596247D01*
X41833333Y-54596247D02*
X41785714Y-54786723D01*
X41785714Y-54786723D02*
X41738095Y-54881961D01*
X41738095Y-54881961D02*
X41642857Y-54977200D01*
X41642857Y-54977200D02*
X41500000Y-55024819D01*
X41500000Y-55024819D02*
X41261905Y-55024819D01*
X42214286Y-54120057D02*
X42261905Y-54072438D01*
X42261905Y-54072438D02*
X42357143Y-54024819D01*
X42357143Y-54024819D02*
X42595238Y-54024819D01*
X42595238Y-54024819D02*
X42690476Y-54072438D01*
X42690476Y-54072438D02*
X42738095Y-54120057D01*
X42738095Y-54120057D02*
X42785714Y-54215295D01*
X42785714Y-54215295D02*
X42785714Y-54310533D01*
X42785714Y-54310533D02*
X42738095Y-54453390D01*
X42738095Y-54453390D02*
X42166667Y-55024819D01*
X42166667Y-55024819D02*
X42785714Y-55024819D01*
X19833333Y-21284819D02*
X19500000Y-20808628D01*
X19261905Y-21284819D02*
X19261905Y-20284819D01*
X19261905Y-20284819D02*
X19642857Y-20284819D01*
X19642857Y-20284819D02*
X19738095Y-20332438D01*
X19738095Y-20332438D02*
X19785714Y-20380057D01*
X19785714Y-20380057D02*
X19833333Y-20475295D01*
X19833333Y-20475295D02*
X19833333Y-20618152D01*
X19833333Y-20618152D02*
X19785714Y-20713390D01*
X19785714Y-20713390D02*
X19738095Y-20761009D01*
X19738095Y-20761009D02*
X19642857Y-20808628D01*
X19642857Y-20808628D02*
X19261905Y-20808628D01*
X20785714Y-21284819D02*
X20214286Y-21284819D01*
X20500000Y-21284819D02*
X20500000Y-20284819D01*
X20500000Y-20284819D02*
X20404762Y-20427676D01*
X20404762Y-20427676D02*
X20309524Y-20522914D01*
X20309524Y-20522914D02*
X20214286Y-20570533D01*
X63833333Y-21199580D02*
X63785714Y-21247200D01*
X63785714Y-21247200D02*
X63642857Y-21294819D01*
X63642857Y-21294819D02*
X63547619Y-21294819D01*
X63547619Y-21294819D02*
X63404762Y-21247200D01*
X63404762Y-21247200D02*
X63309524Y-21151961D01*
X63309524Y-21151961D02*
X63261905Y-21056723D01*
X63261905Y-21056723D02*
X63214286Y-20866247D01*
X63214286Y-20866247D02*
X63214286Y-20723390D01*
X63214286Y-20723390D02*
X63261905Y-20532914D01*
X63261905Y-20532914D02*
X63309524Y-20437676D01*
X63309524Y-20437676D02*
X63404762Y-20342438D01*
X63404762Y-20342438D02*
X63547619Y-20294819D01*
X63547619Y-20294819D02*
X63642857Y-20294819D01*
X63642857Y-20294819D02*
X63785714Y-20342438D01*
X63785714Y-20342438D02*
X63833333Y-20390057D01*
X64738095Y-20294819D02*
X64261905Y-20294819D01*
X64261905Y-20294819D02*
X64214286Y-20771009D01*
X64214286Y-20771009D02*
X64261905Y-20723390D01*
X64261905Y-20723390D02*
X64357143Y-20675771D01*
X64357143Y-20675771D02*
X64595238Y-20675771D01*
X64595238Y-20675771D02*
X64690476Y-20723390D01*
X64690476Y-20723390D02*
X64738095Y-20771009D01*
X64738095Y-20771009D02*
X64785714Y-20866247D01*
X64785714Y-20866247D02*
X64785714Y-21104342D01*
X64785714Y-21104342D02*
X64738095Y-21199580D01*
X64738095Y-21199580D02*
X64690476Y-21247200D01*
X64690476Y-21247200D02*
X64595238Y-21294819D01*
X64595238Y-21294819D02*
X64357143Y-21294819D01*
X64357143Y-21294819D02*
X64261905Y-21247200D01*
X64261905Y-21247200D02*
X64214286Y-21199580D01*
X66833333Y-21199580D02*
X66785714Y-21247200D01*
X66785714Y-21247200D02*
X66642857Y-21294819D01*
X66642857Y-21294819D02*
X66547619Y-21294819D01*
X66547619Y-21294819D02*
X66404762Y-21247200D01*
X66404762Y-21247200D02*
X66309524Y-21151961D01*
X66309524Y-21151961D02*
X66261905Y-21056723D01*
X66261905Y-21056723D02*
X66214286Y-20866247D01*
X66214286Y-20866247D02*
X66214286Y-20723390D01*
X66214286Y-20723390D02*
X66261905Y-20532914D01*
X66261905Y-20532914D02*
X66309524Y-20437676D01*
X66309524Y-20437676D02*
X66404762Y-20342438D01*
X66404762Y-20342438D02*
X66547619Y-20294819D01*
X66547619Y-20294819D02*
X66642857Y-20294819D01*
X66642857Y-20294819D02*
X66785714Y-20342438D01*
X66785714Y-20342438D02*
X66833333Y-20390057D01*
X67690476Y-20294819D02*
X67500000Y-20294819D01*
X67500000Y-20294819D02*
X67404762Y-20342438D01*
X67404762Y-20342438D02*
X67357143Y-20390057D01*
X67357143Y-20390057D02*
X67261905Y-20532914D01*
X67261905Y-20532914D02*
X67214286Y-20723390D01*
X67214286Y-20723390D02*
X67214286Y-21104342D01*
X67214286Y-21104342D02*
X67261905Y-21199580D01*
X67261905Y-21199580D02*
X67309524Y-21247200D01*
X67309524Y-21247200D02*
X67404762Y-21294819D01*
X67404762Y-21294819D02*
X67595238Y-21294819D01*
X67595238Y-21294819D02*
X67690476Y-21247200D01*
X67690476Y-21247200D02*
X67738095Y-21199580D01*
X67738095Y-21199580D02*
X67785714Y-21104342D01*
X67785714Y-21104342D02*
X67785714Y-20866247D01*
X67785714Y-20866247D02*
X67738095Y-20771009D01*
X67738095Y-20771009D02*
X67690476Y-20723390D01*
X67690476Y-20723390D02*
X67595238Y-20675771D01*
X67595238Y-20675771D02*
X67404762Y-20675771D01*
X67404762Y-20675771D02*
X67309524Y-20723390D01*
X67309524Y-20723390D02*
X67261905Y-20771009D01*
X67261905Y-20771009D02*
X67214286Y-20866247D01*
X51833333Y-21199580D02*
X51785714Y-21247200D01*
X51785714Y-21247200D02*
X51642857Y-21294819D01*
X51642857Y-21294819D02*
X51547619Y-21294819D01*
X51547619Y-21294819D02*
X51404762Y-21247200D01*
X51404762Y-21247200D02*
X51309524Y-21151961D01*
X51309524Y-21151961D02*
X51261905Y-21056723D01*
X51261905Y-21056723D02*
X51214286Y-20866247D01*
X51214286Y-20866247D02*
X51214286Y-20723390D01*
X51214286Y-20723390D02*
X51261905Y-20532914D01*
X51261905Y-20532914D02*
X51309524Y-20437676D01*
X51309524Y-20437676D02*
X51404762Y-20342438D01*
X51404762Y-20342438D02*
X51547619Y-20294819D01*
X51547619Y-20294819D02*
X51642857Y-20294819D01*
X51642857Y-20294819D02*
X51785714Y-20342438D01*
X51785714Y-20342438D02*
X51833333Y-20390057D01*
X52785714Y-21294819D02*
X52214286Y-21294819D01*
X52500000Y-21294819D02*
X52500000Y-20294819D01*
X52500000Y-20294819D02*
X52404762Y-20437676D01*
X52404762Y-20437676D02*
X52309524Y-20532914D01*
X52309524Y-20532914D02*
X52214286Y-20580533D01*
X34833333Y-21284819D02*
X34500000Y-20808628D01*
X34261905Y-21284819D02*
X34261905Y-20284819D01*
X34261905Y-20284819D02*
X34642857Y-20284819D01*
X34642857Y-20284819D02*
X34738095Y-20332438D01*
X34738095Y-20332438D02*
X34785714Y-20380057D01*
X34785714Y-20380057D02*
X34833333Y-20475295D01*
X34833333Y-20475295D02*
X34833333Y-20618152D01*
X34833333Y-20618152D02*
X34785714Y-20713390D01*
X34785714Y-20713390D02*
X34738095Y-20761009D01*
X34738095Y-20761009D02*
X34642857Y-20808628D01*
X34642857Y-20808628D02*
X34261905Y-20808628D01*
X35690476Y-20284819D02*
X35500000Y-20284819D01*
X35500000Y-20284819D02*
X35404762Y-20332438D01*
X35404762Y-20332438D02*
X35357143Y-20380057D01*
X35357143Y-20380057D02*
X35261905Y-20522914D01*
X35261905Y-20522914D02*
X35214286Y-20713390D01*
X35214286Y-20713390D02*
X35214286Y-21094342D01*
X35214286Y-21094342D02*
X35261905Y-21189580D01*
X35261905Y-21189580D02*
X35309524Y-21237200D01*
X35309524Y-21237200D02*
X35404762Y-21284819D01*
X35404762Y-21284819D02*
X35595238Y-21284819D01*
X35595238Y-21284819D02*
X35690476Y-21237200D01*
X35690476Y-21237200D02*
X35738095Y-21189580D01*
X35738095Y-21189580D02*
X35785714Y-21094342D01*
X35785714Y-21094342D02*
X35785714Y-20856247D01*
X35785714Y-20856247D02*
X35738095Y-20761009D01*
X35738095Y-20761009D02*
X35690476Y-20713390D01*
X35690476Y-20713390D02*
X35595238Y-20665771D01*
X35595238Y-20665771D02*
X35404762Y-20665771D01*
X35404762Y-20665771D02*
X35309524Y-20713390D01*
X35309524Y-20713390D02*
X35261905Y-20761009D01*
X35261905Y-20761009D02*
X35214286Y-20856247D01*
X31833333Y-21284819D02*
X31500000Y-20808628D01*
X31261905Y-21284819D02*
X31261905Y-20284819D01*
X31261905Y-20284819D02*
X31642857Y-20284819D01*
X31642857Y-20284819D02*
X31738095Y-20332438D01*
X31738095Y-20332438D02*
X31785714Y-20380057D01*
X31785714Y-20380057D02*
X31833333Y-20475295D01*
X31833333Y-20475295D02*
X31833333Y-20618152D01*
X31833333Y-20618152D02*
X31785714Y-20713390D01*
X31785714Y-20713390D02*
X31738095Y-20761009D01*
X31738095Y-20761009D02*
X31642857Y-20808628D01*
X31642857Y-20808628D02*
X31261905Y-20808628D01*
X32738095Y-20284819D02*
X32261905Y-20284819D01*
X32261905Y-20284819D02*
X32214286Y-20761009D01*
X32214286Y-20761009D02*
X32261905Y-20713390D01*
X32261905Y-20713390D02*
X32357143Y-20665771D01*
X32357143Y-20665771D02*
X32595238Y-20665771D01*
X32595238Y-20665771D02*
X32690476Y-20713390D01*
X32690476Y-20713390D02*
X32738095Y-20761009D01*
X32738095Y-20761009D02*
X32785714Y-20856247D01*
X32785714Y-20856247D02*
X32785714Y-21094342D01*
X32785714Y-21094342D02*
X32738095Y-21189580D01*
X32738095Y-21189580D02*
X32690476Y-21237200D01*
X32690476Y-21237200D02*
X32595238Y-21284819D01*
X32595238Y-21284819D02*
X32357143Y-21284819D01*
X32357143Y-21284819D02*
X32261905Y-21237200D01*
X32261905Y-21237200D02*
X32214286Y-21189580D01*
X67238095Y-49554819D02*
X67238095Y-50364342D01*
X67238095Y-50364342D02*
X67285714Y-50459580D01*
X67285714Y-50459580D02*
X67333333Y-50507200D01*
X67333333Y-50507200D02*
X67428571Y-50554819D01*
X67428571Y-50554819D02*
X67619047Y-50554819D01*
X67619047Y-50554819D02*
X67714285Y-50507200D01*
X67714285Y-50507200D02*
X67761904Y-50459580D01*
X67761904Y-50459580D02*
X67809523Y-50364342D01*
X67809523Y-50364342D02*
X67809523Y-49554819D01*
X68190476Y-49554819D02*
X68857142Y-49554819D01*
X68857142Y-49554819D02*
X68428571Y-50554819D01*
X12380952Y-39054819D02*
X12380952Y-39864342D01*
X12380952Y-39864342D02*
X12428571Y-39959580D01*
X12428571Y-39959580D02*
X12476190Y-40007200D01*
X12476190Y-40007200D02*
X12571428Y-40054819D01*
X12571428Y-40054819D02*
X12761904Y-40054819D01*
X12761904Y-40054819D02*
X12857142Y-40007200D01*
X12857142Y-40007200D02*
X12904761Y-39959580D01*
X12904761Y-39959580D02*
X12952380Y-39864342D01*
X12952380Y-39864342D02*
X12952380Y-39054819D01*
X13571428Y-39483390D02*
X13476190Y-39435771D01*
X13476190Y-39435771D02*
X13428571Y-39388152D01*
X13428571Y-39388152D02*
X13380952Y-39292914D01*
X13380952Y-39292914D02*
X13380952Y-39245295D01*
X13380952Y-39245295D02*
X13428571Y-39150057D01*
X13428571Y-39150057D02*
X13476190Y-39102438D01*
X13476190Y-39102438D02*
X13571428Y-39054819D01*
X13571428Y-39054819D02*
X13761904Y-39054819D01*
X13761904Y-39054819D02*
X13857142Y-39102438D01*
X13857142Y-39102438D02*
X13904761Y-39150057D01*
X13904761Y-39150057D02*
X13952380Y-39245295D01*
X13952380Y-39245295D02*
X13952380Y-39292914D01*
X13952380Y-39292914D02*
X13904761Y-39388152D01*
X13904761Y-39388152D02*
X13857142Y-39435771D01*
X13857142Y-39435771D02*
X13761904Y-39483390D01*
X13761904Y-39483390D02*
X13571428Y-39483390D01*
X13571428Y-39483390D02*
X13476190Y-39531009D01*
X13476190Y-39531009D02*
X13428571Y-39578628D01*
X13428571Y-39578628D02*
X13380952Y-39673866D01*
X13380952Y-39673866D02*
X13380952Y-39864342D01*
X13380952Y-39864342D02*
X13428571Y-39959580D01*
X13428571Y-39959580D02*
X13476190Y-40007200D01*
X13476190Y-40007200D02*
X13571428Y-40054819D01*
X13571428Y-40054819D02*
X13761904Y-40054819D01*
X13761904Y-40054819D02*
X13857142Y-40007200D01*
X13857142Y-40007200D02*
X13904761Y-39959580D01*
X13904761Y-39959580D02*
X13952380Y-39864342D01*
X13952380Y-39864342D02*
X13952380Y-39673866D01*
X13952380Y-39673866D02*
X13904761Y-39578628D01*
X13904761Y-39578628D02*
X13857142Y-39531009D01*
X13857142Y-39531009D02*
X13761904Y-39483390D01*
X14142857Y-40150057D02*
X14904761Y-40150057D01*
X15095238Y-39150057D02*
X15142857Y-39102438D01*
X15142857Y-39102438D02*
X15238095Y-39054819D01*
X15238095Y-39054819D02*
X15476190Y-39054819D01*
X15476190Y-39054819D02*
X15571428Y-39102438D01*
X15571428Y-39102438D02*
X15619047Y-39150057D01*
X15619047Y-39150057D02*
X15666666Y-39245295D01*
X15666666Y-39245295D02*
X15666666Y-39340533D01*
X15666666Y-39340533D02*
X15619047Y-39483390D01*
X15619047Y-39483390D02*
X15047619Y-40054819D01*
X15047619Y-40054819D02*
X15666666Y-40054819D01*
X22833333Y-21284819D02*
X22500000Y-20808628D01*
X22261905Y-21284819D02*
X22261905Y-20284819D01*
X22261905Y-20284819D02*
X22642857Y-20284819D01*
X22642857Y-20284819D02*
X22738095Y-20332438D01*
X22738095Y-20332438D02*
X22785714Y-20380057D01*
X22785714Y-20380057D02*
X22833333Y-20475295D01*
X22833333Y-20475295D02*
X22833333Y-20618152D01*
X22833333Y-20618152D02*
X22785714Y-20713390D01*
X22785714Y-20713390D02*
X22738095Y-20761009D01*
X22738095Y-20761009D02*
X22642857Y-20808628D01*
X22642857Y-20808628D02*
X22261905Y-20808628D01*
X23214286Y-20380057D02*
X23261905Y-20332438D01*
X23261905Y-20332438D02*
X23357143Y-20284819D01*
X23357143Y-20284819D02*
X23595238Y-20284819D01*
X23595238Y-20284819D02*
X23690476Y-20332438D01*
X23690476Y-20332438D02*
X23738095Y-20380057D01*
X23738095Y-20380057D02*
X23785714Y-20475295D01*
X23785714Y-20475295D02*
X23785714Y-20570533D01*
X23785714Y-20570533D02*
X23738095Y-20713390D01*
X23738095Y-20713390D02*
X23166667Y-21284819D01*
X23166667Y-21284819D02*
X23785714Y-21284819D01*
X41261905Y-29024819D02*
X41261905Y-28024819D01*
X41261905Y-28024819D02*
X41500000Y-28024819D01*
X41500000Y-28024819D02*
X41642857Y-28072438D01*
X41642857Y-28072438D02*
X41738095Y-28167676D01*
X41738095Y-28167676D02*
X41785714Y-28262914D01*
X41785714Y-28262914D02*
X41833333Y-28453390D01*
X41833333Y-28453390D02*
X41833333Y-28596247D01*
X41833333Y-28596247D02*
X41785714Y-28786723D01*
X41785714Y-28786723D02*
X41738095Y-28881961D01*
X41738095Y-28881961D02*
X41642857Y-28977200D01*
X41642857Y-28977200D02*
X41500000Y-29024819D01*
X41500000Y-29024819D02*
X41261905Y-29024819D01*
X42785714Y-29024819D02*
X42214286Y-29024819D01*
X42500000Y-29024819D02*
X42500000Y-28024819D01*
X42500000Y-28024819D02*
X42404762Y-28167676D01*
X42404762Y-28167676D02*
X42309524Y-28262914D01*
X42309524Y-28262914D02*
X42214286Y-28310533D01*
X25833333Y-21284819D02*
X25500000Y-20808628D01*
X25261905Y-21284819D02*
X25261905Y-20284819D01*
X25261905Y-20284819D02*
X25642857Y-20284819D01*
X25642857Y-20284819D02*
X25738095Y-20332438D01*
X25738095Y-20332438D02*
X25785714Y-20380057D01*
X25785714Y-20380057D02*
X25833333Y-20475295D01*
X25833333Y-20475295D02*
X25833333Y-20618152D01*
X25833333Y-20618152D02*
X25785714Y-20713390D01*
X25785714Y-20713390D02*
X25738095Y-20761009D01*
X25738095Y-20761009D02*
X25642857Y-20808628D01*
X25642857Y-20808628D02*
X25261905Y-20808628D01*
X26166667Y-20284819D02*
X26785714Y-20284819D01*
X26785714Y-20284819D02*
X26452381Y-20665771D01*
X26452381Y-20665771D02*
X26595238Y-20665771D01*
X26595238Y-20665771D02*
X26690476Y-20713390D01*
X26690476Y-20713390D02*
X26738095Y-20761009D01*
X26738095Y-20761009D02*
X26785714Y-20856247D01*
X26785714Y-20856247D02*
X26785714Y-21094342D01*
X26785714Y-21094342D02*
X26738095Y-21189580D01*
X26738095Y-21189580D02*
X26690476Y-21237200D01*
X26690476Y-21237200D02*
X26595238Y-21284819D01*
X26595238Y-21284819D02*
X26309524Y-21284819D01*
X26309524Y-21284819D02*
X26214286Y-21237200D01*
X26214286Y-21237200D02*
X26166667Y-21189580D01*
X21238095Y-53954819D02*
X21238095Y-54764342D01*
X21238095Y-54764342D02*
X21285714Y-54859580D01*
X21285714Y-54859580D02*
X21333333Y-54907200D01*
X21333333Y-54907200D02*
X21428571Y-54954819D01*
X21428571Y-54954819D02*
X21619047Y-54954819D01*
X21619047Y-54954819D02*
X21714285Y-54907200D01*
X21714285Y-54907200D02*
X21761904Y-54859580D01*
X21761904Y-54859580D02*
X21809523Y-54764342D01*
X21809523Y-54764342D02*
X21809523Y-53954819D01*
X22190476Y-53954819D02*
X22809523Y-53954819D01*
X22809523Y-53954819D02*
X22476190Y-54335771D01*
X22476190Y-54335771D02*
X22619047Y-54335771D01*
X22619047Y-54335771D02*
X22714285Y-54383390D01*
X22714285Y-54383390D02*
X22761904Y-54431009D01*
X22761904Y-54431009D02*
X22809523Y-54526247D01*
X22809523Y-54526247D02*
X22809523Y-54764342D01*
X22809523Y-54764342D02*
X22761904Y-54859580D01*
X22761904Y-54859580D02*
X22714285Y-54907200D01*
X22714285Y-54907200D02*
X22619047Y-54954819D01*
X22619047Y-54954819D02*
X22333333Y-54954819D01*
X22333333Y-54954819D02*
X22238095Y-54907200D01*
X22238095Y-54907200D02*
X22190476Y-54859580D01*
X46357142Y-21284819D02*
X46023809Y-20808628D01*
X45785714Y-21284819D02*
X45785714Y-20284819D01*
X45785714Y-20284819D02*
X46166666Y-20284819D01*
X46166666Y-20284819D02*
X46261904Y-20332438D01*
X46261904Y-20332438D02*
X46309523Y-20380057D01*
X46309523Y-20380057D02*
X46357142Y-20475295D01*
X46357142Y-20475295D02*
X46357142Y-20618152D01*
X46357142Y-20618152D02*
X46309523Y-20713390D01*
X46309523Y-20713390D02*
X46261904Y-20761009D01*
X46261904Y-20761009D02*
X46166666Y-20808628D01*
X46166666Y-20808628D02*
X45785714Y-20808628D01*
X47309523Y-21284819D02*
X46738095Y-21284819D01*
X47023809Y-21284819D02*
X47023809Y-20284819D01*
X47023809Y-20284819D02*
X46928571Y-20427676D01*
X46928571Y-20427676D02*
X46833333Y-20522914D01*
X46833333Y-20522914D02*
X46738095Y-20570533D01*
X47928571Y-20284819D02*
X48023809Y-20284819D01*
X48023809Y-20284819D02*
X48119047Y-20332438D01*
X48119047Y-20332438D02*
X48166666Y-20380057D01*
X48166666Y-20380057D02*
X48214285Y-20475295D01*
X48214285Y-20475295D02*
X48261904Y-20665771D01*
X48261904Y-20665771D02*
X48261904Y-20903866D01*
X48261904Y-20903866D02*
X48214285Y-21094342D01*
X48214285Y-21094342D02*
X48166666Y-21189580D01*
X48166666Y-21189580D02*
X48119047Y-21237200D01*
X48119047Y-21237200D02*
X48023809Y-21284819D01*
X48023809Y-21284819D02*
X47928571Y-21284819D01*
X47928571Y-21284819D02*
X47833333Y-21237200D01*
X47833333Y-21237200D02*
X47785714Y-21189580D01*
X47785714Y-21189580D02*
X47738095Y-21094342D01*
X47738095Y-21094342D02*
X47690476Y-20903866D01*
X47690476Y-20903866D02*
X47690476Y-20665771D01*
X47690476Y-20665771D02*
X47738095Y-20475295D01*
X47738095Y-20475295D02*
X47785714Y-20380057D01*
X47785714Y-20380057D02*
X47833333Y-20332438D01*
X47833333Y-20332438D02*
X47928571Y-20284819D01*
X7238095Y-48174819D02*
X7238095Y-48984342D01*
X7238095Y-48984342D02*
X7285714Y-49079580D01*
X7285714Y-49079580D02*
X7333333Y-49127200D01*
X7333333Y-49127200D02*
X7428571Y-49174819D01*
X7428571Y-49174819D02*
X7619047Y-49174819D01*
X7619047Y-49174819D02*
X7714285Y-49127200D01*
X7714285Y-49127200D02*
X7761904Y-49079580D01*
X7761904Y-49079580D02*
X7809523Y-48984342D01*
X7809523Y-48984342D02*
X7809523Y-48174819D01*
X8333333Y-49174819D02*
X8523809Y-49174819D01*
X8523809Y-49174819D02*
X8619047Y-49127200D01*
X8619047Y-49127200D02*
X8666666Y-49079580D01*
X8666666Y-49079580D02*
X8761904Y-48936723D01*
X8761904Y-48936723D02*
X8809523Y-48746247D01*
X8809523Y-48746247D02*
X8809523Y-48365295D01*
X8809523Y-48365295D02*
X8761904Y-48270057D01*
X8761904Y-48270057D02*
X8714285Y-48222438D01*
X8714285Y-48222438D02*
X8619047Y-48174819D01*
X8619047Y-48174819D02*
X8428571Y-48174819D01*
X8428571Y-48174819D02*
X8333333Y-48222438D01*
X8333333Y-48222438D02*
X8285714Y-48270057D01*
X8285714Y-48270057D02*
X8238095Y-48365295D01*
X8238095Y-48365295D02*
X8238095Y-48603390D01*
X8238095Y-48603390D02*
X8285714Y-48698628D01*
X8285714Y-48698628D02*
X8333333Y-48746247D01*
X8333333Y-48746247D02*
X8428571Y-48793866D01*
X8428571Y-48793866D02*
X8619047Y-48793866D01*
X8619047Y-48793866D02*
X8714285Y-48746247D01*
X8714285Y-48746247D02*
X8761904Y-48698628D01*
X8761904Y-48698628D02*
X8809523Y-48603390D01*
X60916667Y-7087200D02*
X61059524Y-7134819D01*
X61059524Y-7134819D02*
X61297619Y-7134819D01*
X61297619Y-7134819D02*
X61392857Y-7087200D01*
X61392857Y-7087200D02*
X61440476Y-7039580D01*
X61440476Y-7039580D02*
X61488095Y-6944342D01*
X61488095Y-6944342D02*
X61488095Y-6849104D01*
X61488095Y-6849104D02*
X61440476Y-6753866D01*
X61440476Y-6753866D02*
X61392857Y-6706247D01*
X61392857Y-6706247D02*
X61297619Y-6658628D01*
X61297619Y-6658628D02*
X61107143Y-6611009D01*
X61107143Y-6611009D02*
X61011905Y-6563390D01*
X61011905Y-6563390D02*
X60964286Y-6515771D01*
X60964286Y-6515771D02*
X60916667Y-6420533D01*
X60916667Y-6420533D02*
X60916667Y-6325295D01*
X60916667Y-6325295D02*
X60964286Y-6230057D01*
X60964286Y-6230057D02*
X61011905Y-6182438D01*
X61011905Y-6182438D02*
X61107143Y-6134819D01*
X61107143Y-6134819D02*
X61345238Y-6134819D01*
X61345238Y-6134819D02*
X61488095Y-6182438D01*
X61821429Y-6134819D02*
X62059524Y-7134819D01*
X62059524Y-7134819D02*
X62250000Y-6420533D01*
X62250000Y-6420533D02*
X62440476Y-7134819D01*
X62440476Y-7134819D02*
X62678572Y-6134819D01*
X63583333Y-7134819D02*
X63011905Y-7134819D01*
X63297619Y-7134819D02*
X63297619Y-6134819D01*
X63297619Y-6134819D02*
X63202381Y-6277676D01*
X63202381Y-6277676D02*
X63107143Y-6372914D01*
X63107143Y-6372914D02*
X63011905Y-6420533D01*
X93666667Y-91304819D02*
X93666667Y-90304819D01*
X93666667Y-90304819D02*
X94000000Y-91019104D01*
X94000000Y-91019104D02*
X94333333Y-90304819D01*
X94333333Y-90304819D02*
X94333333Y-91304819D01*
X94809524Y-91304819D02*
X94809524Y-90304819D01*
X94809524Y-90781009D02*
X95380952Y-90781009D01*
X95380952Y-91304819D02*
X95380952Y-90304819D01*
X96285714Y-90638152D02*
X96285714Y-91304819D01*
X96047619Y-90257200D02*
X95809524Y-90971485D01*
X95809524Y-90971485D02*
X96428571Y-90971485D01*
X28761905Y-64154819D02*
X28761905Y-64964342D01*
X28761905Y-64964342D02*
X28809524Y-65059580D01*
X28809524Y-65059580D02*
X28857143Y-65107200D01*
X28857143Y-65107200D02*
X28952381Y-65154819D01*
X28952381Y-65154819D02*
X29142857Y-65154819D01*
X29142857Y-65154819D02*
X29238095Y-65107200D01*
X29238095Y-65107200D02*
X29285714Y-65059580D01*
X29285714Y-65059580D02*
X29333333Y-64964342D01*
X29333333Y-64964342D02*
X29333333Y-64154819D01*
X30333333Y-65154819D02*
X29761905Y-65154819D01*
X30047619Y-65154819D02*
X30047619Y-64154819D01*
X30047619Y-64154819D02*
X29952381Y-64297676D01*
X29952381Y-64297676D02*
X29857143Y-64392914D01*
X29857143Y-64392914D02*
X29761905Y-64440533D01*
X30952381Y-64154819D02*
X31047619Y-64154819D01*
X31047619Y-64154819D02*
X31142857Y-64202438D01*
X31142857Y-64202438D02*
X31190476Y-64250057D01*
X31190476Y-64250057D02*
X31238095Y-64345295D01*
X31238095Y-64345295D02*
X31285714Y-64535771D01*
X31285714Y-64535771D02*
X31285714Y-64773866D01*
X31285714Y-64773866D02*
X31238095Y-64964342D01*
X31238095Y-64964342D02*
X31190476Y-65059580D01*
X31190476Y-65059580D02*
X31142857Y-65107200D01*
X31142857Y-65107200D02*
X31047619Y-65154819D01*
X31047619Y-65154819D02*
X30952381Y-65154819D01*
X30952381Y-65154819D02*
X30857143Y-65107200D01*
X30857143Y-65107200D02*
X30809524Y-65059580D01*
X30809524Y-65059580D02*
X30761905Y-64964342D01*
X30761905Y-64964342D02*
X30714286Y-64773866D01*
X30714286Y-64773866D02*
X30714286Y-64535771D01*
X30714286Y-64535771D02*
X30761905Y-64345295D01*
X30761905Y-64345295D02*
X30809524Y-64250057D01*
X30809524Y-64250057D02*
X30857143Y-64202438D01*
X30857143Y-64202438D02*
X30952381Y-64154819D01*
X67238095Y-41504819D02*
X67238095Y-42314342D01*
X67238095Y-42314342D02*
X67285714Y-42409580D01*
X67285714Y-42409580D02*
X67333333Y-42457200D01*
X67333333Y-42457200D02*
X67428571Y-42504819D01*
X67428571Y-42504819D02*
X67619047Y-42504819D01*
X67619047Y-42504819D02*
X67714285Y-42457200D01*
X67714285Y-42457200D02*
X67761904Y-42409580D01*
X67761904Y-42409580D02*
X67809523Y-42314342D01*
X67809523Y-42314342D02*
X67809523Y-41504819D01*
X68714285Y-41838152D02*
X68714285Y-42504819D01*
X68476190Y-41457200D02*
X68238095Y-42171485D01*
X68238095Y-42171485D02*
X68857142Y-42171485D01*
X41635714Y-87631009D02*
X41778571Y-87678628D01*
X41778571Y-87678628D02*
X41826190Y-87726247D01*
X41826190Y-87726247D02*
X41873809Y-87821485D01*
X41873809Y-87821485D02*
X41873809Y-87964342D01*
X41873809Y-87964342D02*
X41826190Y-88059580D01*
X41826190Y-88059580D02*
X41778571Y-88107200D01*
X41778571Y-88107200D02*
X41683333Y-88154819D01*
X41683333Y-88154819D02*
X41302381Y-88154819D01*
X41302381Y-88154819D02*
X41302381Y-87154819D01*
X41302381Y-87154819D02*
X41635714Y-87154819D01*
X41635714Y-87154819D02*
X41730952Y-87202438D01*
X41730952Y-87202438D02*
X41778571Y-87250057D01*
X41778571Y-87250057D02*
X41826190Y-87345295D01*
X41826190Y-87345295D02*
X41826190Y-87440533D01*
X41826190Y-87440533D02*
X41778571Y-87535771D01*
X41778571Y-87535771D02*
X41730952Y-87583390D01*
X41730952Y-87583390D02*
X41635714Y-87631009D01*
X41635714Y-87631009D02*
X41302381Y-87631009D01*
X42254762Y-87869104D02*
X42730952Y-87869104D01*
X42159524Y-88154819D02*
X42492857Y-87154819D01*
X42492857Y-87154819D02*
X42826190Y-88154819D01*
X43016667Y-87154819D02*
X43588095Y-87154819D01*
X43302381Y-88154819D02*
X43302381Y-87154819D01*
X44445238Y-88154819D02*
X43873810Y-88154819D01*
X44159524Y-88154819D02*
X44159524Y-87154819D01*
X44159524Y-87154819D02*
X44064286Y-87297676D01*
X44064286Y-87297676D02*
X43969048Y-87392914D01*
X43969048Y-87392914D02*
X43873810Y-87440533D01*
X54833333Y-21199580D02*
X54785714Y-21247200D01*
X54785714Y-21247200D02*
X54642857Y-21294819D01*
X54642857Y-21294819D02*
X54547619Y-21294819D01*
X54547619Y-21294819D02*
X54404762Y-21247200D01*
X54404762Y-21247200D02*
X54309524Y-21151961D01*
X54309524Y-21151961D02*
X54261905Y-21056723D01*
X54261905Y-21056723D02*
X54214286Y-20866247D01*
X54214286Y-20866247D02*
X54214286Y-20723390D01*
X54214286Y-20723390D02*
X54261905Y-20532914D01*
X54261905Y-20532914D02*
X54309524Y-20437676D01*
X54309524Y-20437676D02*
X54404762Y-20342438D01*
X54404762Y-20342438D02*
X54547619Y-20294819D01*
X54547619Y-20294819D02*
X54642857Y-20294819D01*
X54642857Y-20294819D02*
X54785714Y-20342438D01*
X54785714Y-20342438D02*
X54833333Y-20390057D01*
X55214286Y-20390057D02*
X55261905Y-20342438D01*
X55261905Y-20342438D02*
X55357143Y-20294819D01*
X55357143Y-20294819D02*
X55595238Y-20294819D01*
X55595238Y-20294819D02*
X55690476Y-20342438D01*
X55690476Y-20342438D02*
X55738095Y-20390057D01*
X55738095Y-20390057D02*
X55785714Y-20485295D01*
X55785714Y-20485295D02*
X55785714Y-20580533D01*
X55785714Y-20580533D02*
X55738095Y-20723390D01*
X55738095Y-20723390D02*
X55166667Y-21294819D01*
X55166667Y-21294819D02*
X55785714Y-21294819D01*
X48761905Y-89754819D02*
X48761905Y-90564342D01*
X48761905Y-90564342D02*
X48809524Y-90659580D01*
X48809524Y-90659580D02*
X48857143Y-90707200D01*
X48857143Y-90707200D02*
X48952381Y-90754819D01*
X48952381Y-90754819D02*
X49142857Y-90754819D01*
X49142857Y-90754819D02*
X49238095Y-90707200D01*
X49238095Y-90707200D02*
X49285714Y-90659580D01*
X49285714Y-90659580D02*
X49333333Y-90564342D01*
X49333333Y-90564342D02*
X49333333Y-89754819D01*
X50333333Y-90754819D02*
X49761905Y-90754819D01*
X50047619Y-90754819D02*
X50047619Y-89754819D01*
X50047619Y-89754819D02*
X49952381Y-89897676D01*
X49952381Y-89897676D02*
X49857143Y-89992914D01*
X49857143Y-89992914D02*
X49761905Y-90040533D01*
X51285714Y-90754819D02*
X50714286Y-90754819D01*
X51000000Y-90754819D02*
X51000000Y-89754819D01*
X51000000Y-89754819D02*
X50904762Y-89897676D01*
X50904762Y-89897676D02*
X50809524Y-89992914D01*
X50809524Y-89992914D02*
X50714286Y-90040533D01*
X60833333Y-21199580D02*
X60785714Y-21247200D01*
X60785714Y-21247200D02*
X60642857Y-21294819D01*
X60642857Y-21294819D02*
X60547619Y-21294819D01*
X60547619Y-21294819D02*
X60404762Y-21247200D01*
X60404762Y-21247200D02*
X60309524Y-21151961D01*
X60309524Y-21151961D02*
X60261905Y-21056723D01*
X60261905Y-21056723D02*
X60214286Y-20866247D01*
X60214286Y-20866247D02*
X60214286Y-20723390D01*
X60214286Y-20723390D02*
X60261905Y-20532914D01*
X60261905Y-20532914D02*
X60309524Y-20437676D01*
X60309524Y-20437676D02*
X60404762Y-20342438D01*
X60404762Y-20342438D02*
X60547619Y-20294819D01*
X60547619Y-20294819D02*
X60642857Y-20294819D01*
X60642857Y-20294819D02*
X60785714Y-20342438D01*
X60785714Y-20342438D02*
X60833333Y-20390057D01*
X61690476Y-20628152D02*
X61690476Y-21294819D01*
X61452381Y-20247200D02*
X61214286Y-20961485D01*
X61214286Y-20961485D02*
X61833333Y-20961485D01*
X37833333Y-21284819D02*
X37500000Y-20808628D01*
X37261905Y-21284819D02*
X37261905Y-20284819D01*
X37261905Y-20284819D02*
X37642857Y-20284819D01*
X37642857Y-20284819D02*
X37738095Y-20332438D01*
X37738095Y-20332438D02*
X37785714Y-20380057D01*
X37785714Y-20380057D02*
X37833333Y-20475295D01*
X37833333Y-20475295D02*
X37833333Y-20618152D01*
X37833333Y-20618152D02*
X37785714Y-20713390D01*
X37785714Y-20713390D02*
X37738095Y-20761009D01*
X37738095Y-20761009D02*
X37642857Y-20808628D01*
X37642857Y-20808628D02*
X37261905Y-20808628D01*
X38166667Y-20284819D02*
X38833333Y-20284819D01*
X38833333Y-20284819D02*
X38404762Y-21284819D01*
X57833333Y-21199580D02*
X57785714Y-21247200D01*
X57785714Y-21247200D02*
X57642857Y-21294819D01*
X57642857Y-21294819D02*
X57547619Y-21294819D01*
X57547619Y-21294819D02*
X57404762Y-21247200D01*
X57404762Y-21247200D02*
X57309524Y-21151961D01*
X57309524Y-21151961D02*
X57261905Y-21056723D01*
X57261905Y-21056723D02*
X57214286Y-20866247D01*
X57214286Y-20866247D02*
X57214286Y-20723390D01*
X57214286Y-20723390D02*
X57261905Y-20532914D01*
X57261905Y-20532914D02*
X57309524Y-20437676D01*
X57309524Y-20437676D02*
X57404762Y-20342438D01*
X57404762Y-20342438D02*
X57547619Y-20294819D01*
X57547619Y-20294819D02*
X57642857Y-20294819D01*
X57642857Y-20294819D02*
X57785714Y-20342438D01*
X57785714Y-20342438D02*
X57833333Y-20390057D01*
X58166667Y-20294819D02*
X58785714Y-20294819D01*
X58785714Y-20294819D02*
X58452381Y-20675771D01*
X58452381Y-20675771D02*
X58595238Y-20675771D01*
X58595238Y-20675771D02*
X58690476Y-20723390D01*
X58690476Y-20723390D02*
X58738095Y-20771009D01*
X58738095Y-20771009D02*
X58785714Y-20866247D01*
X58785714Y-20866247D02*
X58785714Y-21104342D01*
X58785714Y-21104342D02*
X58738095Y-21199580D01*
X58738095Y-21199580D02*
X58690476Y-21247200D01*
X58690476Y-21247200D02*
X58595238Y-21294819D01*
X58595238Y-21294819D02*
X58309524Y-21294819D01*
X58309524Y-21294819D02*
X58214286Y-21247200D01*
X58214286Y-21247200D02*
X58166667Y-21199580D01*
X28833333Y-21284819D02*
X28500000Y-20808628D01*
X28261905Y-21284819D02*
X28261905Y-20284819D01*
X28261905Y-20284819D02*
X28642857Y-20284819D01*
X28642857Y-20284819D02*
X28738095Y-20332438D01*
X28738095Y-20332438D02*
X28785714Y-20380057D01*
X28785714Y-20380057D02*
X28833333Y-20475295D01*
X28833333Y-20475295D02*
X28833333Y-20618152D01*
X28833333Y-20618152D02*
X28785714Y-20713390D01*
X28785714Y-20713390D02*
X28738095Y-20761009D01*
X28738095Y-20761009D02*
X28642857Y-20808628D01*
X28642857Y-20808628D02*
X28261905Y-20808628D01*
X29690476Y-20618152D02*
X29690476Y-21284819D01*
X29452381Y-20237200D02*
X29214286Y-20951485D01*
X29214286Y-20951485D02*
X29833333Y-20951485D01*
X45416666Y-5904819D02*
X45416666Y-6619104D01*
X45416666Y-6619104D02*
X45369047Y-6761961D01*
X45369047Y-6761961D02*
X45273809Y-6857200D01*
X45273809Y-6857200D02*
X45130952Y-6904819D01*
X45130952Y-6904819D02*
X45035714Y-6904819D01*
X46369047Y-5904819D02*
X45892857Y-5904819D01*
X45892857Y-5904819D02*
X45845238Y-6381009D01*
X45845238Y-6381009D02*
X45892857Y-6333390D01*
X45892857Y-6333390D02*
X45988095Y-6285771D01*
X45988095Y-6285771D02*
X46226190Y-6285771D01*
X46226190Y-6285771D02*
X46321428Y-6333390D01*
X46321428Y-6333390D02*
X46369047Y-6381009D01*
X46369047Y-6381009D02*
X46416666Y-6476247D01*
X46416666Y-6476247D02*
X46416666Y-6714342D01*
X46416666Y-6714342D02*
X46369047Y-6809580D01*
X46369047Y-6809580D02*
X46321428Y-6857200D01*
X46321428Y-6857200D02*
X46226190Y-6904819D01*
X46226190Y-6904819D02*
X45988095Y-6904819D01*
X45988095Y-6904819D02*
X45892857Y-6857200D01*
X45892857Y-6857200D02*
X45845238Y-6809580D01*
X78508095Y-22354819D02*
X78508095Y-21354819D01*
X78508095Y-21831009D02*
X79079523Y-21831009D01*
X79079523Y-22354819D02*
X79079523Y-21354819D01*
X80079523Y-22354819D02*
X79508095Y-22354819D01*
X79793809Y-22354819D02*
X79793809Y-21354819D01*
X79793809Y-21354819D02*
X79698571Y-21497676D01*
X79698571Y-21497676D02*
X79603333Y-21592914D01*
X79603333Y-21592914D02*
X79508095Y-21640533D01*
X8334819Y-12083333D02*
X9049104Y-12083333D01*
X9049104Y-12083333D02*
X9191961Y-12130952D01*
X9191961Y-12130952D02*
X9287200Y-12226190D01*
X9287200Y-12226190D02*
X9334819Y-12369047D01*
X9334819Y-12369047D02*
X9334819Y-12464285D01*
X8430057Y-11654761D02*
X8382438Y-11607142D01*
X8382438Y-11607142D02*
X8334819Y-11511904D01*
X8334819Y-11511904D02*
X8334819Y-11273809D01*
X8334819Y-11273809D02*
X8382438Y-11178571D01*
X8382438Y-11178571D02*
X8430057Y-11130952D01*
X8430057Y-11130952D02*
X8525295Y-11083333D01*
X8525295Y-11083333D02*
X8620533Y-11083333D01*
X8620533Y-11083333D02*
X8763390Y-11130952D01*
X8763390Y-11130952D02*
X9334819Y-11702380D01*
X9334819Y-11702380D02*
X9334819Y-11083333D01*
X78508095Y-64354819D02*
X78508095Y-63354819D01*
X78508095Y-63831009D02*
X79079523Y-63831009D01*
X79079523Y-64354819D02*
X79079523Y-63354819D01*
X79508095Y-63450057D02*
X79555714Y-63402438D01*
X79555714Y-63402438D02*
X79650952Y-63354819D01*
X79650952Y-63354819D02*
X79889047Y-63354819D01*
X79889047Y-63354819D02*
X79984285Y-63402438D01*
X79984285Y-63402438D02*
X80031904Y-63450057D01*
X80031904Y-63450057D02*
X80079523Y-63545295D01*
X80079523Y-63545295D02*
X80079523Y-63640533D01*
X80079523Y-63640533D02*
X80031904Y-63783390D01*
X80031904Y-63783390D02*
X79460476Y-64354819D01*
X79460476Y-64354819D02*
X80079523Y-64354819D01*
X79809819Y-14333333D02*
X80524104Y-14333333D01*
X80524104Y-14333333D02*
X80666961Y-14380952D01*
X80666961Y-14380952D02*
X80762200Y-14476190D01*
X80762200Y-14476190D02*
X80809819Y-14619047D01*
X80809819Y-14619047D02*
X80809819Y-14714285D01*
X80809819Y-13333333D02*
X80809819Y-13904761D01*
X80809819Y-13619047D02*
X79809819Y-13619047D01*
X79809819Y-13619047D02*
X79952676Y-13714285D01*
X79952676Y-13714285D02*
X80047914Y-13809523D01*
X80047914Y-13809523D02*
X80095533Y-13904761D01*
D11*
G04 #@! TO.C,R8*
X40846359Y-21620000D02*
X41153641Y-21620000D01*
X40846359Y-22380000D02*
X41153641Y-22380000D01*
G04 #@! TO.C,C8*
X72892164Y-21640000D02*
X73107836Y-21640000D01*
X72892164Y-22360000D02*
X73107836Y-22360000D01*
G04 #@! TO.C,R9*
X43846359Y-21620000D02*
X44153641Y-21620000D01*
X43846359Y-22380000D02*
X44153641Y-22380000D01*
G04 #@! TO.C,SW2*
X69390000Y-4100000D02*
X69390000Y-6200000D01*
X69390000Y-8800000D02*
X69390000Y-9310000D01*
X69390000Y-9310000D02*
X69910000Y-9310000D01*
X69910000Y-5970000D02*
X69910000Y-6200000D01*
X69910000Y-5970000D02*
X70450000Y-5970000D01*
X69910000Y-8800000D02*
X69910000Y-9310000D01*
X71550000Y-5970000D02*
X74950000Y-5970000D01*
X76050000Y-5970000D02*
X76590000Y-5970000D01*
X76590000Y-5970000D02*
X76590000Y-6200000D01*
X76590000Y-8800000D02*
X76590000Y-9310000D01*
X76590000Y-9310000D02*
X77110000Y-9310000D01*
X77110000Y-4100000D02*
X77110000Y-6200000D01*
X77110000Y-8800000D02*
X77110000Y-9310000D01*
G04 #@! TO.C,J4*
X22150000Y-7250000D02*
X22150000Y-8500000D01*
X22440000Y-7540000D02*
X22440000Y-13510000D01*
X22440000Y-13510000D02*
X32560000Y-13510000D01*
X22450000Y-7550000D02*
X22450000Y-8300000D01*
X22450000Y-8300000D02*
X24250000Y-8300000D01*
X22450000Y-9800000D02*
X23200000Y-9800000D01*
X23200000Y-9800000D02*
X23200000Y-12750000D01*
X23200000Y-12750000D02*
X27500000Y-12750000D01*
X23400000Y-7250000D02*
X22150000Y-7250000D01*
X24250000Y-7550000D02*
X22450000Y-7550000D01*
X24250000Y-8300000D02*
X24250000Y-7550000D01*
X25750000Y-7550000D02*
X25750000Y-8300000D01*
X25750000Y-8300000D02*
X29250000Y-8300000D01*
X29250000Y-7550000D02*
X25750000Y-7550000D01*
X29250000Y-8300000D02*
X29250000Y-7550000D01*
X30750000Y-7550000D02*
X30750000Y-8300000D01*
X30750000Y-8300000D02*
X32550000Y-8300000D01*
X31800000Y-9800000D02*
X31800000Y-12750000D01*
X31800000Y-12750000D02*
X27500000Y-12750000D01*
X32550000Y-7550000D02*
X30750000Y-7550000D01*
X32550000Y-8300000D02*
X32550000Y-7550000D01*
X32550000Y-9800000D02*
X31800000Y-9800000D01*
X32560000Y-7540000D02*
X22440000Y-7540000D01*
X32560000Y-13510000D02*
X32560000Y-7540000D01*
G04 #@! TO.C,U1*
X38390000Y-41115000D02*
X38390000Y-40630000D01*
X38390000Y-47610000D02*
X38390000Y-46885000D01*
X39115000Y-40390000D02*
X38690000Y-40390000D01*
X39115000Y-47610000D02*
X38390000Y-47610000D01*
X44885000Y-40390000D02*
X45610000Y-40390000D01*
X44885000Y-47610000D02*
X45610000Y-47610000D01*
X45610000Y-40390000D02*
X45610000Y-41115000D01*
X45610000Y-47610000D02*
X45610000Y-46885000D01*
X38390000Y-40390000D02*
X38150000Y-40060000D01*
X38630000Y-40060000D01*
X38390000Y-40390000D01*
G36*
X38390000Y-40390000D02*
G01*
X38150000Y-40060000D01*
X38630000Y-40060000D01*
X38390000Y-40390000D01*
G37*
G04 #@! TO.C,C7*
X69892164Y-21640000D02*
X70107836Y-21640000D01*
X69892164Y-22360000D02*
X70107836Y-22360000D01*
G04 #@! TO.C,J3*
X5150000Y-63250000D02*
X5150000Y-64500000D01*
X5440000Y-63540000D02*
X5440000Y-69510000D01*
X5440000Y-69510000D02*
X15560000Y-69510000D01*
X5450000Y-63550000D02*
X5450000Y-64300000D01*
X5450000Y-64300000D02*
X7250000Y-64300000D01*
X5450000Y-65800000D02*
X6200000Y-65800000D01*
X6200000Y-65800000D02*
X6200000Y-68750000D01*
X6200000Y-68750000D02*
X10500000Y-68750000D01*
X6400000Y-63250000D02*
X5150000Y-63250000D01*
X7250000Y-63550000D02*
X5450000Y-63550000D01*
X7250000Y-64300000D02*
X7250000Y-63550000D01*
X8750000Y-63550000D02*
X8750000Y-64300000D01*
X8750000Y-64300000D02*
X12250000Y-64300000D01*
X12250000Y-63550000D02*
X8750000Y-63550000D01*
X12250000Y-64300000D02*
X12250000Y-63550000D01*
X13750000Y-63550000D02*
X13750000Y-64300000D01*
X13750000Y-64300000D02*
X15550000Y-64300000D01*
X14800000Y-65800000D02*
X14800000Y-68750000D01*
X14800000Y-68750000D02*
X10500000Y-68750000D01*
X15550000Y-63550000D02*
X13750000Y-63550000D01*
X15550000Y-64300000D02*
X15550000Y-63550000D01*
X15550000Y-65800000D02*
X14800000Y-65800000D01*
X15560000Y-63540000D02*
X5440000Y-63540000D01*
X15560000Y-69510000D02*
X15560000Y-63540000D01*
G04 #@! TO.C,U8_1*
X8000000Y-40440000D02*
X7350000Y-40440000D01*
X8000000Y-40440000D02*
X8650000Y-40440000D01*
X8000000Y-43560000D02*
X7350000Y-43560000D01*
X8000000Y-43560000D02*
X8650000Y-43560000D01*
X6837500Y-40490000D02*
X6597500Y-40160000D01*
X7077500Y-40160000D01*
X6837500Y-40490000D01*
G36*
X6837500Y-40490000D02*
G01*
X6597500Y-40160000D01*
X7077500Y-40160000D01*
X6837500Y-40490000D01*
G37*
G04 #@! TO.C,U2*
X30000000Y-42440000D02*
X29200000Y-42440000D01*
X30000000Y-42440000D02*
X30800000Y-42440000D01*
X30000000Y-45560000D02*
X29200000Y-45560000D01*
X30000000Y-45560000D02*
X30800000Y-45560000D01*
X28700000Y-42490000D02*
X28460000Y-42160000D01*
X28940000Y-42160000D01*
X28700000Y-42490000D01*
G36*
X28700000Y-42490000D02*
G01*
X28460000Y-42160000D01*
X28940000Y-42160000D01*
X28700000Y-42490000D01*
G37*
G04 #@! TO.C,D2*
X40515000Y-55265000D02*
X40515000Y-56735000D01*
X40515000Y-56735000D02*
X42800000Y-56735000D01*
X42800000Y-55265000D02*
X40515000Y-55265000D01*
G04 #@! TO.C,R1*
X19846359Y-21620000D02*
X20153641Y-21620000D01*
X19846359Y-22380000D02*
X20153641Y-22380000D01*
G04 #@! TO.C,C5*
X63892164Y-21640000D02*
X64107836Y-21640000D01*
X63892164Y-22360000D02*
X64107836Y-22360000D01*
G04 #@! TO.C,C6*
X66892164Y-21640000D02*
X67107836Y-21640000D01*
X66892164Y-22360000D02*
X67107836Y-22360000D01*
G04 #@! TO.C,C1*
X51892164Y-21640000D02*
X52107836Y-21640000D01*
X51892164Y-22360000D02*
X52107836Y-22360000D01*
G04 #@! TO.C,R6*
X34846359Y-21620000D02*
X35153641Y-21620000D01*
X34846359Y-22380000D02*
X35153641Y-22380000D01*
G04 #@! TO.C,R5*
X31846359Y-21620000D02*
X32153641Y-21620000D01*
X31846359Y-22380000D02*
X32153641Y-22380000D01*
G04 #@! TO.C,U7*
X68000000Y-50940000D02*
X66050000Y-50940000D01*
X68000000Y-50940000D02*
X69950000Y-50940000D01*
X68000000Y-61060000D02*
X66050000Y-61060000D01*
X68000000Y-61060000D02*
X69950000Y-61060000D01*
X65300000Y-50995000D02*
X65060000Y-50665000D01*
X65540000Y-50665000D01*
X65300000Y-50995000D01*
G36*
X65300000Y-50995000D02*
G01*
X65060000Y-50665000D01*
X65540000Y-50665000D01*
X65300000Y-50995000D01*
G37*
G04 #@! TO.C,U8_2*
X14000000Y-40440000D02*
X13350000Y-40440000D01*
X14000000Y-40440000D02*
X14650000Y-40440000D01*
X14000000Y-43560000D02*
X13350000Y-43560000D01*
X14000000Y-43560000D02*
X14650000Y-43560000D01*
X12837500Y-40490000D02*
X12597500Y-40160000D01*
X13077500Y-40160000D01*
X12837500Y-40490000D01*
G36*
X12837500Y-40490000D02*
G01*
X12597500Y-40160000D01*
X13077500Y-40160000D01*
X12837500Y-40490000D01*
G37*
G04 #@! TO.C,R2*
X22846359Y-21620000D02*
X23153641Y-21620000D01*
X22846359Y-22380000D02*
X23153641Y-22380000D01*
G04 #@! TO.C,D1*
X40515000Y-29265000D02*
X40515000Y-30735000D01*
X40515000Y-30735000D02*
X42800000Y-30735000D01*
X42800000Y-29265000D02*
X40515000Y-29265000D01*
G04 #@! TO.C,R3*
X25846359Y-21620000D02*
X26153641Y-21620000D01*
X25846359Y-22380000D02*
X26153641Y-22380000D01*
G04 #@! TO.C,U3*
X20780000Y-55640000D02*
X23360000Y-55640000D01*
X23360000Y-56620000D02*
X23360000Y-55640000D01*
X23360000Y-59380000D02*
X23360000Y-60360000D01*
X23360000Y-60360000D02*
X20640000Y-60360000D01*
X20230000Y-55790000D02*
X19990000Y-55460000D01*
X20470000Y-55460000D01*
X20230000Y-55790000D01*
G36*
X20230000Y-55790000D02*
G01*
X19990000Y-55460000D01*
X20470000Y-55460000D01*
X20230000Y-55790000D01*
G37*
G04 #@! TO.C,R10*
X46846359Y-21620000D02*
X47153641Y-21620000D01*
X46846359Y-22380000D02*
X47153641Y-22380000D01*
G04 #@! TO.C,U9*
X8000000Y-49565000D02*
X6050000Y-49565000D01*
X8000000Y-49565000D02*
X9950000Y-49565000D01*
X8000000Y-58435000D02*
X6050000Y-58435000D01*
X8000000Y-58435000D02*
X9950000Y-58435000D01*
X5300000Y-49630000D02*
X5060000Y-49300000D01*
X5540000Y-49300000D01*
X5300000Y-49630000D01*
G36*
X5300000Y-49630000D02*
G01*
X5060000Y-49300000D01*
X5540000Y-49300000D01*
X5300000Y-49630000D01*
G37*
G04 #@! TO.C,SW1*
X58390000Y-4100000D02*
X58390000Y-6200000D01*
X58390000Y-8800000D02*
X58390000Y-9310000D01*
X58390000Y-9310000D02*
X58910000Y-9310000D01*
X58910000Y-5970000D02*
X58910000Y-6200000D01*
X58910000Y-5970000D02*
X59450000Y-5970000D01*
X58910000Y-8800000D02*
X58910000Y-9310000D01*
X60550000Y-5970000D02*
X63950000Y-5970000D01*
X65050000Y-5970000D02*
X65590000Y-5970000D01*
X65590000Y-5970000D02*
X65590000Y-6200000D01*
X65590000Y-8800000D02*
X65590000Y-9310000D01*
X65590000Y-9310000D02*
X66110000Y-9310000D01*
X66110000Y-4100000D02*
X66110000Y-6200000D01*
X66110000Y-8800000D02*
X66110000Y-9310000D01*
G04 #@! TO.C,U10*
X27890000Y-66365000D02*
X27890000Y-66130000D01*
X27890000Y-70110000D02*
X27890000Y-69635000D01*
X28365000Y-65890000D02*
X28190000Y-65890000D01*
X28365000Y-70110000D02*
X27890000Y-70110000D01*
X31635000Y-65890000D02*
X32110000Y-65890000D01*
X31635000Y-70110000D02*
X32110000Y-70110000D01*
X32110000Y-65890000D02*
X32110000Y-66365000D01*
X32110000Y-70110000D02*
X32110000Y-69635000D01*
X27890000Y-65890000D02*
X27650000Y-65560000D01*
X28130000Y-65560000D01*
X27890000Y-65890000D01*
G36*
X27890000Y-65890000D02*
G01*
X27650000Y-65560000D01*
X28130000Y-65560000D01*
X27890000Y-65890000D01*
G37*
G04 #@! TO.C,U4*
X67000000Y-42865000D02*
X69000000Y-42865000D01*
X67000000Y-45135000D02*
X69000000Y-45135000D01*
X66480000Y-42950000D02*
X66200000Y-42950000D01*
X66480000Y-42670000D01*
X66480000Y-42950000D01*
G36*
X66480000Y-42950000D02*
G01*
X66200000Y-42950000D01*
X66480000Y-42670000D01*
X66480000Y-42950000D01*
G37*
G04 #@! TO.C,BAT1*
X36450000Y-75250000D02*
X36450000Y-80750000D01*
X36450000Y-80750000D02*
X41250000Y-80750000D01*
X41200000Y-84050000D02*
X48050000Y-88850000D01*
X41250000Y-75250000D02*
X36450000Y-75250000D01*
X41450000Y-68500000D02*
X48150000Y-68500000D01*
X48050000Y-88850000D02*
X55950000Y-88850000D01*
X55950000Y-88850000D02*
X62750000Y-84050000D01*
X62550000Y-68500000D02*
X55850000Y-68500000D01*
X62750000Y-80750000D02*
X67550000Y-80750000D01*
X67550000Y-75250000D02*
X62750000Y-75250000D01*
X67550000Y-80750000D02*
X67550000Y-75250000D01*
X48153615Y-68498536D02*
G75*
G02*
X55850000Y-68500000I3846385J-9501464D01*
G01*
G04 #@! TO.C,C2*
X54892164Y-21640000D02*
X55107836Y-21640000D01*
X54892164Y-22360000D02*
X55107836Y-22360000D01*
G04 #@! TO.C,U11*
X43850000Y-92700000D02*
X43850000Y-94040000D01*
X43850000Y-96760000D02*
X43850000Y-98500000D01*
X43850000Y-98500000D02*
X56150000Y-98500000D01*
X45340000Y-92700000D02*
X43850000Y-92700000D01*
X45340000Y-92700000D02*
X45340000Y-91500000D01*
X54660000Y-92700000D02*
X56150000Y-92700000D01*
X56150000Y-92700000D02*
X56150000Y-94040000D01*
X56150000Y-98500000D02*
X56150000Y-96760000D01*
G04 #@! TO.C,C4*
X60892164Y-21640000D02*
X61107836Y-21640000D01*
X60892164Y-22360000D02*
X61107836Y-22360000D01*
G04 #@! TO.C,R7*
X37846359Y-21620000D02*
X38153641Y-21620000D01*
X37846359Y-22380000D02*
X38153641Y-22380000D01*
G04 #@! TO.C,C3*
X57892164Y-21640000D02*
X58107836Y-21640000D01*
X57892164Y-22360000D02*
X58107836Y-22360000D01*
G04 #@! TO.C,R4*
X28846359Y-21620000D02*
X29153641Y-21620000D01*
X28846359Y-22380000D02*
X29153641Y-22380000D01*
G04 #@! TO.C,J5*
X39150000Y-7250000D02*
X39150000Y-8500000D01*
X39440000Y-7540000D02*
X39440000Y-13510000D01*
X39440000Y-13510000D02*
X52060000Y-13510000D01*
X39450000Y-7550000D02*
X39450000Y-8300000D01*
X39450000Y-8300000D02*
X41250000Y-8300000D01*
X39450000Y-9800000D02*
X40200000Y-9800000D01*
X40200000Y-9800000D02*
X40200000Y-12750000D01*
X40200000Y-12750000D02*
X45750000Y-12750000D01*
X40400000Y-7250000D02*
X39150000Y-7250000D01*
X41250000Y-7550000D02*
X39450000Y-7550000D01*
X41250000Y-8300000D02*
X41250000Y-7550000D01*
X42750000Y-7550000D02*
X42750000Y-8300000D01*
X42750000Y-8300000D02*
X48750000Y-8300000D01*
X48750000Y-7550000D02*
X42750000Y-7550000D01*
X48750000Y-8300000D02*
X48750000Y-7550000D01*
X50250000Y-7550000D02*
X50250000Y-8300000D01*
X50250000Y-8300000D02*
X52050000Y-8300000D01*
X51300000Y-9800000D02*
X51300000Y-12750000D01*
X51300000Y-12750000D02*
X45750000Y-12750000D01*
X52050000Y-7550000D02*
X50250000Y-7550000D01*
X52050000Y-8300000D02*
X52050000Y-7550000D01*
X52050000Y-9800000D02*
X51300000Y-9800000D01*
X52060000Y-7540000D02*
X39440000Y-7540000D01*
X52060000Y-13510000D02*
X52060000Y-7540000D01*
G04 #@! TO.C,H1*
X73320000Y-27500000D02*
X73320000Y-28500000D01*
X73320000Y-28500000D02*
X74320000Y-28000000D01*
X74320000Y-28000000D02*
X73320000Y-27500000D01*
X74710000Y-22790000D02*
X83830000Y-22790000D01*
X74710000Y-37380000D02*
X76020000Y-37380000D01*
X74710000Y-56070000D02*
X74710000Y-22790000D01*
X76020000Y-24090000D02*
X82520000Y-24090000D01*
X76020000Y-37380000D02*
X76020000Y-24090000D01*
X76020000Y-41480000D02*
X74710000Y-41480000D01*
X76020000Y-41480000D02*
X76020000Y-41480000D01*
X76020000Y-54770000D02*
X76020000Y-41480000D01*
X82520000Y-24090000D02*
X82520000Y-54770000D01*
X82520000Y-54770000D02*
X76020000Y-54770000D01*
X83830000Y-22790000D02*
X83830000Y-56070000D01*
X83830000Y-56070000D02*
X74710000Y-56070000D01*
G04 #@! TO.C,J2*
X9880000Y-6380000D02*
X17920000Y-6380000D01*
X9880000Y-17120000D02*
X9880000Y-6380000D01*
X9880000Y-17120000D02*
X17920000Y-17120000D01*
X13500000Y-7188000D02*
X13500000Y-6380000D01*
X13500000Y-12120000D02*
X13500000Y-10812000D01*
X13500000Y-17120000D02*
X13500000Y-15880000D01*
X14500000Y-7188000D02*
X14500000Y-6380000D01*
X14500000Y-12120000D02*
X14500000Y-10812000D01*
X14500000Y-17120000D02*
X14500000Y-15880000D01*
X15800000Y-8457000D02*
X15800000Y-6380000D01*
X15800000Y-12120000D02*
X15800000Y-9543000D01*
X15800000Y-17120000D02*
X15800000Y-15880000D01*
X17920000Y-13700000D02*
X17920000Y-6380000D01*
X17920000Y-17120000D02*
X17920000Y-14300000D01*
X18530000Y-14440000D02*
X17920000Y-14000000D01*
X18530000Y-13560000D01*
X18530000Y-14440000D01*
G36*
X18530000Y-14440000D02*
G01*
X17920000Y-14000000D01*
X18530000Y-13560000D01*
X18530000Y-14440000D01*
G37*
G04 #@! TO.C,H2*
X73320000Y-69500000D02*
X73320000Y-70500000D01*
X73320000Y-70500000D02*
X74320000Y-70000000D01*
X74320000Y-70000000D02*
X73320000Y-69500000D01*
X74710000Y-64790000D02*
X83830000Y-64790000D01*
X74710000Y-79380000D02*
X76020000Y-79380000D01*
X74710000Y-98070000D02*
X74710000Y-64790000D01*
X76020000Y-66090000D02*
X82520000Y-66090000D01*
X76020000Y-79380000D02*
X76020000Y-66090000D01*
X76020000Y-83480000D02*
X74710000Y-83480000D01*
X76020000Y-83480000D02*
X76020000Y-83480000D01*
X76020000Y-96770000D02*
X76020000Y-83480000D01*
X82520000Y-66090000D02*
X82520000Y-96770000D01*
X82520000Y-96770000D02*
X76020000Y-96770000D01*
X83830000Y-64790000D02*
X83830000Y-98070000D01*
X83830000Y-98070000D02*
X74710000Y-98070000D01*
G04 #@! TO.C,J1*
X84100000Y-9300000D02*
X86100000Y-9300000D01*
X84100000Y-18700000D02*
X86100000Y-18700000D01*
X88000000Y-9300000D02*
X89900000Y-9300000D01*
X88000000Y-18700000D02*
X89900000Y-18700000D01*
X89900000Y-18700000D02*
X89900000Y-9300000D01*
G04 #@! TD*
%LPC*%
D12*
G04 #@! TO.C,MH1*
X5000000Y-5000000D03*
G04 #@! TD*
D13*
G04 #@! TO.C,R8*
X40490000Y-22000000D03*
X41510000Y-22000000D03*
G04 #@! TD*
D14*
G04 #@! TO.C,C8*
X72520000Y-22000000D03*
X73480000Y-22000000D03*
G04 #@! TD*
D13*
G04 #@! TO.C,R9*
X43490000Y-22000000D03*
X44510000Y-22000000D03*
G04 #@! TD*
D15*
G04 #@! TO.C,SW2*
X69750000Y-7490000D03*
X76760000Y-7490000D03*
D16*
X71000000Y-5000000D03*
X75500000Y-5000000D03*
G04 #@! TD*
D17*
G04 #@! TO.C,J4*
X25000000Y-10000000D03*
D18*
X27500000Y-10000000D03*
X30000000Y-10000000D03*
G04 #@! TD*
D12*
G04 #@! TO.C,MH3*
X5000000Y-95000000D03*
G04 #@! TD*
D19*
G04 #@! TO.C,U1*
X38662500Y-41500000D03*
X38662500Y-42000000D03*
X38662500Y-42500000D03*
X38662500Y-43000000D03*
X38662500Y-43500000D03*
X38662500Y-44000000D03*
X38662500Y-44500000D03*
X38662500Y-45000000D03*
X38662500Y-45500000D03*
X38662500Y-46000000D03*
X38662500Y-46500000D03*
D20*
X39500000Y-47337500D03*
X40000000Y-47337500D03*
X40500000Y-47337500D03*
X41000000Y-47337500D03*
X41500000Y-47337500D03*
X42000000Y-47337500D03*
X42500000Y-47337500D03*
X43000000Y-47337500D03*
X43500000Y-47337500D03*
X44000000Y-47337500D03*
X44500000Y-47337500D03*
D19*
X45337500Y-46500000D03*
X45337500Y-46000000D03*
X45337500Y-45500000D03*
X45337500Y-45000000D03*
X45337500Y-44500000D03*
X45337500Y-44000000D03*
X45337500Y-43500000D03*
X45337500Y-43000000D03*
X45337500Y-42500000D03*
X45337500Y-42000000D03*
X45337500Y-41500000D03*
D20*
X44500000Y-40662500D03*
X44000000Y-40662500D03*
X43500000Y-40662500D03*
X43000000Y-40662500D03*
X42500000Y-40662500D03*
X42000000Y-40662500D03*
X41500000Y-40662500D03*
X41000000Y-40662500D03*
X40500000Y-40662500D03*
X40000000Y-40662500D03*
X39500000Y-40662500D03*
D21*
X42000000Y-44000000D03*
G04 #@! TD*
D14*
G04 #@! TO.C,C7*
X69520000Y-22000000D03*
X70480000Y-22000000D03*
G04 #@! TD*
D17*
G04 #@! TO.C,J3*
X8000000Y-66000000D03*
D18*
X10500000Y-66000000D03*
X13000000Y-66000000D03*
G04 #@! TD*
D12*
G04 #@! TO.C,MH2*
X95000000Y-5000000D03*
G04 #@! TD*
D22*
G04 #@! TO.C,U8_1*
X7062500Y-41050000D03*
X7062500Y-42950000D03*
X8937500Y-42000000D03*
G04 #@! TD*
D23*
G04 #@! TO.C,U2*
X28862500Y-43050000D03*
X28862500Y-44000000D03*
X28862500Y-44950000D03*
X31137500Y-44950000D03*
X31137500Y-44000000D03*
X31137500Y-43050000D03*
G04 #@! TD*
D24*
G04 #@! TO.C,D2*
X41212500Y-56000000D03*
X42787500Y-56000000D03*
G04 #@! TD*
D13*
G04 #@! TO.C,R1*
X19490000Y-22000000D03*
X20510000Y-22000000D03*
G04 #@! TD*
D14*
G04 #@! TO.C,C5*
X63520000Y-22000000D03*
X64480000Y-22000000D03*
G04 #@! TD*
G04 #@! TO.C,C6*
X66520000Y-22000000D03*
X67480000Y-22000000D03*
G04 #@! TD*
G04 #@! TO.C,C1*
X51520000Y-22000000D03*
X52480000Y-22000000D03*
G04 #@! TD*
D13*
G04 #@! TO.C,R6*
X34490000Y-22000000D03*
X35510000Y-22000000D03*
G04 #@! TD*
G04 #@! TO.C,R5*
X31490000Y-22000000D03*
X32510000Y-22000000D03*
G04 #@! TD*
D25*
G04 #@! TO.C,U7*
X65525000Y-51555000D03*
X65525000Y-52825000D03*
X65525000Y-54095000D03*
X65525000Y-55365000D03*
X65525000Y-56635000D03*
X65525000Y-57905000D03*
X65525000Y-59175000D03*
X65525000Y-60445000D03*
X70475000Y-60445000D03*
X70475000Y-59175000D03*
X70475000Y-57905000D03*
X70475000Y-56635000D03*
X70475000Y-55365000D03*
X70475000Y-54095000D03*
X70475000Y-52825000D03*
X70475000Y-51555000D03*
G04 #@! TD*
D22*
G04 #@! TO.C,U8_2*
X13062500Y-41050000D03*
X13062500Y-42950000D03*
X14937500Y-42000000D03*
G04 #@! TD*
D13*
G04 #@! TO.C,R2*
X22490000Y-22000000D03*
X23510000Y-22000000D03*
G04 #@! TD*
D24*
G04 #@! TO.C,D1*
X41212500Y-30000000D03*
X42787500Y-30000000D03*
G04 #@! TD*
D13*
G04 #@! TO.C,R3*
X25490000Y-22000000D03*
X26510000Y-22000000D03*
G04 #@! TD*
D26*
G04 #@! TO.C,U3*
X20050000Y-56500000D03*
D27*
X20137500Y-58000000D03*
D26*
X20050000Y-59500000D03*
G04 #@! TD*
D13*
G04 #@! TO.C,R10*
X46490000Y-22000000D03*
X47510000Y-22000000D03*
G04 #@! TD*
D25*
G04 #@! TO.C,U9*
X5525000Y-50190000D03*
X5525000Y-51460000D03*
X5525000Y-52730000D03*
X5525000Y-54000000D03*
X5525000Y-55270000D03*
X5525000Y-56540000D03*
X5525000Y-57810000D03*
X10475000Y-57810000D03*
X10475000Y-56540000D03*
X10475000Y-55270000D03*
X10475000Y-54000000D03*
X10475000Y-52730000D03*
X10475000Y-51460000D03*
X10475000Y-50190000D03*
G04 #@! TD*
D15*
G04 #@! TO.C,SW1*
X58750000Y-7490000D03*
X65760000Y-7490000D03*
D16*
X60000000Y-5000000D03*
X64500000Y-5000000D03*
G04 #@! TD*
D12*
G04 #@! TO.C,MH4*
X95000000Y-95000000D03*
G04 #@! TD*
D28*
G04 #@! TO.C,U10*
X28050000Y-66750000D03*
X28050000Y-67250000D03*
X28050000Y-67750000D03*
X28050000Y-68250000D03*
X28050000Y-68750000D03*
X28050000Y-69250000D03*
D29*
X28750000Y-69950000D03*
X29250000Y-69950000D03*
X29750000Y-69950000D03*
X30250000Y-69950000D03*
X30750000Y-69950000D03*
X31250000Y-69950000D03*
D28*
X31950000Y-69250000D03*
X31950000Y-68750000D03*
X31950000Y-68250000D03*
X31950000Y-67750000D03*
X31950000Y-67250000D03*
X31950000Y-66750000D03*
D29*
X31250000Y-66050000D03*
X30750000Y-66050000D03*
X30250000Y-66050000D03*
X29750000Y-66050000D03*
X29250000Y-66050000D03*
X28750000Y-66050000D03*
D30*
X30000000Y-68000000D03*
G04 #@! TD*
D31*
G04 #@! TO.C,U4*
X67000000Y-43250000D03*
X67000000Y-43750000D03*
X67000000Y-44250000D03*
X67000000Y-44750000D03*
X69000000Y-44750000D03*
X69000000Y-44250000D03*
X69000000Y-43750000D03*
X69000000Y-43250000D03*
D32*
X68000000Y-44000000D03*
G04 #@! TD*
D33*
G04 #@! TO.C,BAT1*
X39200000Y-78000000D03*
X64800000Y-78000000D03*
D34*
X52000000Y-78000000D03*
G04 #@! TD*
D14*
G04 #@! TO.C,C2*
X54520000Y-22000000D03*
X55480000Y-22000000D03*
G04 #@! TD*
D35*
G04 #@! TO.C,U11*
X45750000Y-92150000D03*
X46250000Y-92150000D03*
X46750000Y-92150000D03*
X47250000Y-92150000D03*
X47750000Y-92150000D03*
X48250000Y-92150000D03*
X48750000Y-92150000D03*
X49250000Y-92150000D03*
X49750000Y-92150000D03*
X50250000Y-92150000D03*
X50750000Y-92150000D03*
X51250000Y-92150000D03*
X51750000Y-92150000D03*
X52250000Y-92150000D03*
X52750000Y-92150000D03*
X53250000Y-92150000D03*
X53750000Y-92150000D03*
X54250000Y-92150000D03*
D36*
X43850000Y-95400000D03*
X56150000Y-95400000D03*
G04 #@! TD*
D14*
G04 #@! TO.C,C4*
X60520000Y-22000000D03*
X61480000Y-22000000D03*
G04 #@! TD*
D13*
G04 #@! TO.C,R7*
X37490000Y-22000000D03*
X38510000Y-22000000D03*
G04 #@! TD*
D14*
G04 #@! TO.C,C3*
X57520000Y-22000000D03*
X58480000Y-22000000D03*
G04 #@! TD*
D13*
G04 #@! TO.C,R4*
X28490000Y-22000000D03*
X29510000Y-22000000D03*
G04 #@! TD*
D17*
G04 #@! TO.C,J5*
X42000000Y-10000000D03*
D18*
X44500000Y-10000000D03*
X47000000Y-10000000D03*
X49500000Y-10000000D03*
G04 #@! TD*
D37*
G04 #@! TO.C,H1*
X78000000Y-28000000D03*
D38*
X80540000Y-28000000D03*
X78000000Y-30540000D03*
X80540000Y-30540000D03*
X78000000Y-33080000D03*
X80540000Y-33080000D03*
X78000000Y-35620000D03*
X80540000Y-35620000D03*
X78000000Y-38160000D03*
X80540000Y-38160000D03*
X78000000Y-40700000D03*
X80540000Y-40700000D03*
X78000000Y-43240000D03*
X80540000Y-43240000D03*
X78000000Y-45780000D03*
X80540000Y-45780000D03*
X78000000Y-48320000D03*
X80540000Y-48320000D03*
X78000000Y-50860000D03*
X80540000Y-50860000D03*
G04 #@! TD*
D39*
G04 #@! TO.C,J2*
X14000000Y-14000000D03*
D40*
X14000000Y-9000000D03*
G04 #@! TD*
D37*
G04 #@! TO.C,H2*
X78000000Y-70000000D03*
D38*
X80540000Y-70000000D03*
X78000000Y-72540000D03*
X80540000Y-72540000D03*
X78000000Y-75080000D03*
X80540000Y-75080000D03*
X78000000Y-77620000D03*
X80540000Y-77620000D03*
X78000000Y-80160000D03*
X80540000Y-80160000D03*
X78000000Y-82700000D03*
X80540000Y-82700000D03*
X78000000Y-85240000D03*
X80540000Y-85240000D03*
X78000000Y-87780000D03*
X80540000Y-87780000D03*
X78000000Y-90320000D03*
X80540000Y-90320000D03*
X78000000Y-92860000D03*
X80540000Y-92860000D03*
G04 #@! TD*
D41*
G04 #@! TO.C,J1*
X83400000Y-16890000D03*
X83400000Y-11110000D03*
D42*
X81955000Y-17250000D03*
X81955000Y-16450000D03*
D43*
X81955000Y-15250000D03*
X81955000Y-14250000D03*
X81955000Y-13750000D03*
X81955000Y-12750000D03*
D42*
X81955000Y-11550000D03*
X81955000Y-10750000D03*
X81955000Y-10750000D03*
X81955000Y-11550000D03*
D43*
X81955000Y-12250000D03*
X81955000Y-13250000D03*
X81955000Y-14750000D03*
X81955000Y-15750000D03*
D42*
X81955000Y-16450000D03*
X81955000Y-17250000D03*
D44*
X82870000Y-18320000D03*
D45*
X87050000Y-18320000D03*
D44*
X82870000Y-9680000D03*
D45*
X87050000Y-9680000D03*
G04 #@! TD*
%LPD*%
M02*
