M48
; DRILL file {KiCad 9.0.2+dfsg-1} date 2026-05-31T17:28:23-0400
; FORMAT={-:-/ absolute / metric / decimal}
; #@! TF.CreationDate,2026-05-31T17:28:23-04:00
; #@! TF.GenerationSoftware,Kicad,Pcbnew,9.0.2+dfsg-1
; #@! TF.FileFunction,Plated,1,2,PTH
FMAT,2
METRIC
; #@! TA.AperFunction,Plated,PTH,ViaDrill
T1C0.300
; #@! TA.AperFunction,Plated,PTH,ViaDrill
T2C0.400
; #@! TA.AperFunction,Plated,PTH,ComponentDrill
T3C0.600
; #@! TA.AperFunction,Plated,PTH,ComponentDrill
T4C0.950
; #@! TA.AperFunction,Plated,PTH,ComponentDrill
T5C1.000
; #@! TA.AperFunction,Plated,PTH,ComponentDrill
T6C1.090
; #@! TA.AperFunction,Plated,PTH,ComponentDrill
T7C1.300
; #@! TA.AperFunction,Plated,PTH,ComponentDrill
T8C2.120
%
G90
G05
T1
X37.274Y-43.5
X42.961Y-37.755
X44.325Y-34.993
X55.693Y-52.864
X57.018Y-52.464
X57.718Y-49.75
X58.039Y-35.325
T2
X3.925Y-3.925
X3.925Y-8.925
X3.925Y-13.925
X3.925Y-18.925
X3.925Y-23.925
X3.925Y-28.925
X3.925Y-33.925
X3.925Y-43.925
X3.925Y-48.925
X3.925Y-53.925
X5.525Y-45.27
X5.525Y-46.54
X5.525Y-47.81
X8.925Y-8.925
X8.925Y-13.925
X8.925Y-23.925
X8.925Y-28.925
X8.925Y-33.925
X8.925Y-38.925
X8.925Y-43.925
X8.925Y-48.925
X8.925Y-53.925
X8.938Y-36.0
X10.475Y-42.73
X10.475Y-44.0
X10.475Y-45.27
X13.0Y-18.0
X13.925Y-3.925
X13.925Y-8.925
X13.925Y-18.925
X13.925Y-23.925
X13.925Y-28.925
X13.925Y-33.925
X13.925Y-38.925
X13.925Y-48.925
X13.925Y-53.925
X14.938Y-36.0
X18.925Y-3.925
X18.925Y-8.925
X18.925Y-13.925
X18.925Y-23.925
X18.925Y-28.925
X18.925Y-33.925
X18.925Y-38.925
X18.925Y-48.925
X18.925Y-53.925
X23.925Y-3.925
X23.925Y-8.925
X23.925Y-13.925
X23.925Y-18.925
X23.925Y-28.925
X23.925Y-33.925
X23.925Y-38.925
X23.925Y-48.925
X23.925Y-53.925
X27.0Y-30.0
X27.137Y-42.0
X28.925Y-3.925
X28.925Y-8.925
X28.925Y-13.925
X28.925Y-18.925
X28.925Y-23.925
X28.925Y-33.925
X28.925Y-48.925
X28.925Y-53.925
X33.925Y-3.925
X33.925Y-8.925
X33.925Y-13.925
X33.925Y-18.925
X33.925Y-23.925
X33.925Y-28.925
X33.925Y-33.925
X33.925Y-38.925
X33.925Y-53.925
X34.663Y-22.5
X34.663Y-23.0
X34.663Y-23.5
X34.663Y-24.0
X34.663Y-24.5
X34.663Y-25.0
X34.663Y-25.5
X34.663Y-26.0
X34.663Y-26.5
X34.663Y-27.0
X34.663Y-27.5
X35.5Y-21.662
X35.5Y-28.337
X36.0Y-21.662
X36.0Y-28.337
X36.5Y-21.662
X36.5Y-28.337
X37.0Y-21.662
X37.0Y-28.337
X37.5Y-21.662
X37.5Y-28.337
X38.0Y-21.662
X38.0Y-25.0
X38.0Y-28.337
X38.5Y-21.662
X38.5Y-28.337
X38.788Y-30.0
X38.925Y-3.925
X38.925Y-13.925
X38.925Y-18.925
X38.925Y-23.925
X38.925Y-28.925
X38.925Y-33.925
X38.925Y-38.925
X38.925Y-43.925
X38.925Y-53.925
X39.0Y-21.662
X39.0Y-28.337
X39.5Y-21.662
X39.5Y-28.337
X40.0Y-21.662
X40.0Y-28.337
X40.5Y-21.662
X40.5Y-28.337
X41.0Y-6.0
X41.337Y-22.5
X41.337Y-23.0
X41.337Y-23.5
X41.337Y-24.0
X41.337Y-24.5
X41.337Y-25.0
X41.337Y-25.5
X41.337Y-26.0
X41.337Y-26.5
X41.337Y-27.0
X41.337Y-27.5
X43.925Y-3.925
X43.925Y-8.925
X43.925Y-38.925
X43.925Y-43.925
X43.925Y-53.925
X46.75Y-48.05
X46.75Y-51.95
X47.25Y-48.05
X47.25Y-51.95
X47.75Y-48.05
X47.75Y-51.95
X48.0Y-50.0
X48.25Y-48.05
X48.25Y-51.95
X48.75Y-48.05
X48.75Y-51.95
X48.925Y-3.925
X48.925Y-8.925
X48.925Y-13.925
X48.925Y-18.925
X48.925Y-23.925
X48.925Y-28.925
X48.925Y-33.925
X48.925Y-38.925
X48.925Y-43.925
X48.925Y-48.925
X49.0Y-30.0
X49.25Y-48.05
X49.25Y-51.95
X49.95Y-48.75
X49.95Y-49.25
X49.95Y-49.75
X49.95Y-50.25
X49.95Y-50.75
X49.95Y-51.25
X50.5Y-6.0
X53.925Y-3.925
X53.925Y-8.925
X53.925Y-13.925
X53.925Y-18.925
X53.925Y-23.925
X53.925Y-28.925
X53.925Y-33.925
X53.925Y-38.925
X53.925Y-43.925
X53.925Y-48.925
X58.925Y-3.925
X58.925Y-8.925
X58.925Y-13.925
X58.925Y-18.925
X58.925Y-23.925
X58.925Y-28.925
X58.925Y-33.925
X58.925Y-43.925
X58.925Y-48.925
X58.925Y-53.925
X59.525Y-43.175
X59.525Y-44.445
X62.0Y-50.0
X63.925Y-3.925
X63.925Y-8.925
X63.925Y-13.925
X63.925Y-18.925
X63.925Y-23.925
X63.925Y-28.925
X63.925Y-33.925
X63.925Y-38.925
X63.925Y-43.925
X63.925Y-53.925
X64.475Y-39.365
X64.475Y-44.445
X67.955Y-5.25
X67.955Y-5.75
X67.955Y-6.25
X67.955Y-6.75
X68.87Y-10.32
X68.925Y-13.925
X68.925Y-18.925
X68.925Y-23.925
X68.925Y-28.925
X68.925Y-33.925
X68.925Y-38.925
X68.925Y-43.925
X68.925Y-48.925
X68.925Y-53.925
X73.05Y-10.32
X73.925Y-3.925
X73.925Y-8.925
X73.925Y-13.925
X73.925Y-18.925
X73.925Y-23.925
X73.925Y-28.925
X73.925Y-33.925
X73.925Y-38.925
X73.925Y-43.925
X73.925Y-53.925
T4
X8.0Y-18.0
X10.5Y-18.0
X13.0Y-18.0
X36.0Y-6.0
X38.5Y-6.0
X41.0Y-6.0
X48.0Y-6.0
X50.5Y-6.0
X53.0Y-6.0
X55.5Y-6.0
T5
X70.0Y-14.0
X70.0Y-16.54
X70.0Y-19.08
X70.0Y-21.62
X70.0Y-24.16
X70.0Y-26.0
X70.0Y-26.7
X70.0Y-28.54
X70.0Y-29.24
X70.0Y-31.08
X70.0Y-31.78
X70.0Y-33.62
X70.0Y-34.32
X70.0Y-36.16
X70.0Y-36.86
X70.0Y-38.7
X70.0Y-41.24
X70.0Y-43.78
X70.0Y-46.32
X70.0Y-48.86
X72.54Y-14.0
X72.54Y-16.54
X72.54Y-19.08
X72.54Y-21.62
X72.54Y-24.16
X72.54Y-26.0
X72.54Y-26.7
X72.54Y-28.54
X72.54Y-29.24
X72.54Y-31.08
X72.54Y-31.78
X72.54Y-33.62
X72.54Y-34.32
X72.54Y-36.16
X72.54Y-36.86
X72.54Y-38.7
X72.54Y-41.24
X72.54Y-43.78
X72.54Y-46.32
X72.54Y-48.86
T6
X84.17Y-46.15
T7
X8.0Y-1.0
X8.0Y-6.0
T8
X74.0Y-50.0
T3
X68.32Y-1.68G85X69.42Y-1.68
G05
X68.32Y-10.32G85X69.42Y-10.32
G05
X72.75Y-1.68G85X73.35Y-1.68
G05
X72.75Y-10.32G85X73.35Y-10.32
G05
M30
